  0
SECTION
  2
HEADER
  9
$ACADVER
  1
AC1009
  9
$INSBASE
 10
0.0
 20
0.0
 30
0.0
  9
$EXTMIN
 10
0.0
 20
0.0
 30
0.0
  9
$EXTMAX
 10
0.0
 20
0.0
 30
0.0
  0
ENDSEC
  0
SECTION
  2
TABLES
  0
TABLE
  2
VPORT
 70
0
  0
ENDTAB
  0
TABLE
  2
LTYPE
 70
1
  0
LTYPE
  2
CONTINUOUS
 70
0
  3
Solid line
 72
65
 73
0
 40
0.0
  0
ENDTAB
  0
TABLE
  2
LAYER
 70
1
  0
LAYER
  2
0
 70
64
 62
7
  6
continuous
  0
ENDTAB
  0
TABLE
  2
STYLE
 70
1
  0
STYLE
  2
STANDARD
 70
0
 40
0
 41
1.0
 50
0.0
 71
0
 42
1
 3
ARIAL.TTF
 4

  0
ENDTAB
  0
TABLE
  2
VIEW
 70
0
  0
ENDTAB
  0
ENDSEC
  0
SECTION
  2
BLOCKS
  0
BLOCK
  8
0
  2
SKETCH
 70
0
 10
0.0
 20
0.0
 30
0.0
  3
SKETCH
  0
CIRCLE
  8
0
 62
250
 10
0.0
 20
0.0
 30
0.0
 40
260.0
  0
CIRCLE
  8
0
 62
250
 10
177.0
 20
15.0
 30
0.0
 40
1.5
  0
CIRCLE
  8
0
 62
250
 10
177.0
 20
-15.0
 30
0.0
 40
1.5
  0
CIRCLE
  8
0
 62
250
 10
217.0
 20
-15.0
 30
0.0
 40
1.5
  0
CIRCLE
  8
0
 62
250
 10
217.0
 20
15.0
 30
0.0
 40
1.5
  0
CIRCLE
  8
0
 62
250
 10
197.0
 20
0.0
 30
0.0
 40
4.0
  0
CIRCLE
  8
0
 62
250
 10
15.0
 20
177.0
 30
0.0
 40
1.5
  0
CIRCLE
  8
0
 62
250
 10
-15.0
 20
177.0
 30
0.0
 40
1.5
  0
CIRCLE
  8
0
 62
250
 10
0.0
 20
197.0
 30
0.0
 40
4.0
  0
CIRCLE
  8
0
 62
250
 10
-15.0
 20
217.0
 30
0.0
 40
1.5
  0
CIRCLE
  8
0
 62
250
 10
15.0
 20
217.0
 30
0.0
 40
1.5
  0
CIRCLE
  8
0
 62
250
 10
-177.0
 20
15.0
 30
0.0
 40
1.5
  0
CIRCLE
  8
0
 62
250
 10
-177.0
 20
-15.0
 30
0.0
 40
1.5
  0
CIRCLE
  8
0
 62
250
 10
-197.0
 20
0.0
 30
0.0
 40
4.0
  0
CIRCLE
  8
0
 62
250
 10
-217.0
 20
-15.0
 30
0.0
 40
1.5
  0
CIRCLE
  8
0
 62
250
 10
-217.0
 20
15.0
 30
0.0
 40
1.5
  0
CIRCLE
  8
0
 62
250
 10
-15.0
 20
-177.0
 30
0.0
 40
1.5
  0
CIRCLE
  8
0
 62
250
 10
15.0
 20
-177.0
 30
0.0
 40
1.5
  0
CIRCLE
  8
0
 62
250
 10
0.0
 20
-197.0
 30
0.0
 40
4.0
  0
CIRCLE
  8
0
 62
250
 10
15.0
 20
-217.0
 30
0.0
 40
1.5
  0
CIRCLE
  8
0
 62
250
 10
-15.0
 20
-217.0
 30
0.0
 40
1.5
  0
POLYLINE
  8
0
 62
250
 70
1
 66
1
 10
0.0
 20
0.0
 30
0.0
  0
VERTEX
  8
0
 10
-88.38838233089119
 20
-17.677599999999998
 30
0.0
  0
VERTEX
  8
0
 10
-17.67774394771199
 20
-88.38835344602533
 30
0.0
  0
VERTEX
  8
0
 10
88.38838450509436
 20
17.67765811513245
 30
0.0
  0
VERTEX
  8
0
 10
17.677695526042072
 20
88.38835631377178
 30
0.0
  0
SEQEND
  8
0
  0
CIRCLE
  8
0
 62
250
 10
-29.69843456442687
 20
-93.338065
 30
0.0
 40
2.5
  0
CIRCLE
  8
0
 62
250
 10
-40.305052
 20
-82.731479
 30
0.0
 40
2.5
  0
CIRCLE
  8
0
 62
250
 10
-50.911669435573145
 20
-72.124893
 30
0.0
 40
2.5
  0
CIRCLE
  8
0
 62
250
 10
-61.51828687114629
 20
-61.518307
 30
0.0
 40
2.5
  0
CIRCLE
  8
0
 62
250
 10
-72.1248827432055
 20
-50.91169983414381
 30
0.0
 40
2.5
  0
CIRCLE
  8
0
 62
250
 10
-82.73147926172747
 20
-40.3050929170719
 30
0.0
 40
2.5
  0
CIRCLE
  8
0
 62
250
 10
-93.33807578024944
 20
-29.698486
 30
0.0
 40
2.5
  0
CIRCLE
  8
0
 62
250
 10
-85.559905
 20
-28.991378872195202
 30
0.0
 40
1.5
  0
CIRCLE
  8
0
 62
250
 10
-57.275647837023875
 20
-57.275664
 30
0.0
 40
1.5
  0
CIRCLE
  8
0
 62
250
 10
-28.991335342160227
 20
-85.559894
 30
0.0
 40
1.5
  0
CIRCLE
  8
0
 62
250
 10
29.69837133239436
 20
93.33809506381344
 30
0.0
 40
2.5
  0
CIRCLE
  8
0
 62
250
 10
40.30498979697512
 20
82.73151009282421
 30
0.0
 40
2.5
  0
CIRCLE
  8
0
 62
250
 10
50.911608261555884
 20
72.12492512183499
 30
0.0
 40
2.5
  0
CIRCLE
  8
0
 62
250
 10
61.518226974920225
 20
61.51834079730882
 30
0.0
 40
2.5
  0
CIRCLE
  8
0
 62
250
 10
57.27558859392908
 20
57.275697307154196
 30
0.0
 40
1.5
  0
CIRCLE
  8
0
 62
250
 10
72.12482452245186
 20
50.91173490924565
 30
0.0
 40
2.5
  0
CIRCLE
  8
0
 62
250
 10
82.73142206998348
 20
40.30512902118248
 30
0.0
 40
2.5
  0
CIRCLE
  8
0
 62
250
 10
85.55984938734659
 20
28.991415100514857
 30
0.0
 40
1.5
  0
CIRCLE
  8
0
 62
250
 10
93.33801961751513
 20
29.698523133119323
 30
0.0
 40
2.5
  0
CIRCLE
  8
0
 62
250
 10
28.991462753802224
 20
85.5598765772549
 30
0.0
 40
1.5
  0
CIRCLE
  8
0
 62
250
 10
158.39194486662112
 20
-158.39189310495036
 30
0.0
 40
4.0
  0
CIRCLE
  8
0
 62
250
 10
135.7645241713894
 20
-135.76447980424302
 30
0.0
 40
4.0
  0
CIRCLE
  8
0
 62
250
 10
113.13710347615769
 20
-113.1370665035357
 30
0.0
 40
4.0
  0
CIRCLE
  8
0
 62
250
 10
90.50968278092597
 20
-90.50965320282839
 30
0.0
 40
4.0
  0
CIRCLE
  8
0
 62
250
 10
67.88226208569425
 20
-67.88223990212107
 30
0.0
 40
4.0
  0
CIRCLE
  8
0
 62
250
 10
45.25484139046283
 20
-45.254826601414045
 30
0.0
 40
4.0
  0
CIRCLE
  8
0
 62
250
 10
90.509657
 20
90.509679
 30
0.0
 40
4.0
  0
CIRCLE
  8
0
 62
250
 10
113.137074
 20
113.137096
 30
0.0
 40
4.0
  0
CIRCLE
  8
0
 62
250
 10
135.764491
 20
135.764513
 30
0.0
 40
4.0
  0
CIRCLE
  8
0
 62
250
 10
158.391908
 20
158.39193
 30
0.0
 40
4.0
  0
CIRCLE
  8
0
 62
250
 10
-45.254841
 20
45.254827
 30
0.0
 40
4.0
  0
CIRCLE
  8
0
 62
250
 10
-67.882262
 20
67.88224
 30
0.0
 40
4.0
  0
CIRCLE
  8
0
 62
250
 10
-90.509679
 20
90.509657
 30
0.0
 40
4.0
  0
CIRCLE
  8
0
 62
250
 10
-113.137096
 20
113.137074
 30
0.0
 40
4.0
  0
CIRCLE
  8
0
 62
250
 10
-135.764513
 20
135.764491
 30
0.0
 40
4.0
  0
CIRCLE
  8
0
 62
250
 10
-158.39193
 20
158.391908
 30
0.0
 40
4.0
  0
CIRCLE
  8
0
 62
250
 10
-90.509657
 20
-90.509679
 30
0.0
 40
4.0
  0
CIRCLE
  8
0
 62
250
 10
-113.137074
 20
-113.137096
 30
0.0
 40
4.0
  0
CIRCLE
  8
0
 62
250
 10
-135.764491
 20
-135.764513
 30
0.0
 40
4.0
  0
CIRCLE
  8
0
 62
250
 10
-158.391908
 20
-158.39193
 30
0.0
 40
4.0
  0
CIRCLE
  8
0
 62
250
 10
10.686693289977592
 20
-244.76681675939233
 30
0.0
 40
2.5
  0
POLYLINE
  8
0
 62
250
 70
1
 66
1
 10
0.0
 20
0.0
 30
0.0
  0
VERTEX
  8
0
 10
1.5
 20
-236.0
 30
0.0
 42
1.633123935319537e+16
  0
VERTEX
  8
0
 10
1.5
 20
-236.0
 30
0.0
 42
1.633123935319537e+16
  0
SEQEND
  8
0
  0
POLYLINE
  8
0
 62
250
 70
1
 66
1
 10
0.0
 20
0.0
 30
0.0
  0
VERTEX
  8
0
 10
1.5
 20
-254.0
 30
0.0
 42
1.633123935319537e+16
  0
VERTEX
  8
0
 10
1.5
 20
-254.0
 30
0.0
 42
1.633123935319537e+16
  0
SEQEND
  8
0
  0
CIRCLE
  8
0
 62
250
 10
22.137559
 20
-253.033453
 30
0.0
 40
1.5
  0
CIRCLE
  8
0
 62
250
 10
31.978866
 20
-242.903998
 30
0.0
 40
2.5
  0
CIRCLE
  8
0
 62
250
 10
20.568755
 20
-235.101949
 30
0.0
 40
1.5
  0
CIRCLE
  8
0
 62
250
 10
44.106637
 20
-250.141169
 30
0.0
 40
1.5
  0
CIRCLE
  8
0
 62
250
 10
53.027655
 20
-239.192533
 30
0.0
 40
2.5
  0
CIRCLE
  8
0
 62
250
 10
40.98097
 20
-232.41463
 30
0.0
 40
1.5
  0
CIRCLE
  8
0
 62
250
 10
65.740037
 20
-245.34516
 30
0.0
 40
1.5
  0
CIRCLE
  8
0
 62
250
 10
73.672871
 20
-233.660669
 30
0.0
 40
2.5
  0
CIRCLE
  8
0
 62
250
 10
61.081295
 20
-227.958495
 30
0.0
 40
1.5
  0
CIRCLE
  8
0
 62
250
 10
86.873116
 20
-238.681926
 30
0.0
 40
1.5
  0
CIRCLE
  8
0
 62
250
 10
93.757393
 20
-226.350506
 30
0.0
 40
2.5
  0
CIRCLE
  8
0
 62
250
 10
80.716754
 20
-221.767459
 30
0.0
 40
1.5
  0
CIRCLE
  8
0
 62
250
 10
107.345038
 20
-230.202178
 30
0.0
 40
1.5
  0
CIRCLE
  8
0
 62
250
 10
113.128364
 20
-217.317679
 30
0.0
 40
2.5
  0
CIRCLE
  8
0
 62
250
 10
99.73791
 20
-213.888638
 30
0.0
 40
1.5
  0
CIRCLE
  8
0
 62
250
 10
127.0
 20
-219.970453
 30
0.0
 40
1.5
  0
CIRCLE
  8
0
 62
250
 10
131.63836
 20
-206.630933
 30
0.0
 40
2.5
  0
CIRCLE
  8
0
 62
250
 10
118.0
 20
-204.381995
 30
0.0
 40
1.5
  0
CIRCLE
  8
0
 62
250
 10
145.688415
 20
-208.064619
 30
0.0
 40
1.5
  0
CIRCLE
  8
0
 62
250
 10
149.146509
 20
-194.3716
 30
0.0
 40
2.5
  0
CIRCLE
  8
0
 62
250
 10
135.364039
 20
-193.319882
 30
0.0
 40
1.5
  0
CIRCLE
  8
0
 62
250
 10
163.268053
 20
-194.575289
 30
0.0
 40
1.5
  0
CIRCLE
  8
0
 62
250
 10
165.519563
 20
-180.632983
 30
0.0
 40
2.5
  0
CIRCLE
  8
0
 62
250
 10
151.697876
 20
-180.786489
 30
0.0
 40
1.5
  0
CIRCLE
  8
0
 62
250
 10
179.605122
 20
-179.605122
 30
0.0
 40
1.5
  0
CIRCLE
  8
0
 62
250
 10
180.632913
 20
-165.519639
 30
0.0
 40
2.5
  0
CIRCLE
  8
0
 62
250
 10
166.8772
 20
-166.8772
 30
0.0
 40
1.5
  0
CIRCLE
  8
0
 62
250
 10
194.575289
 20
-163.268053
 30
0.0
 40
1.5
  0
CIRCLE
  8
0
 62
250
 10
194.371537
 20
-149.146592
 30
0.0
 40
2.5
  0
CIRCLE
  8
0
 62
250
 10
180.786489
 20
-151.697876
 30
0.0
 40
1.5
  0
CIRCLE
  8
0
 62
250
 10
208.064619
 20
-145.688415
 30
0.0
 40
1.5
  0
CIRCLE
  8
0
 62
250
 10
206.630877
 20
-131.638448
 30
0.0
 40
2.5
  0
CIRCLE
  8
0
 62
250
 10
193.319882
 20
-135.364039
 30
0.0
 40
1.5
  0
CIRCLE
  8
0
 62
250
 10
219.970453
 20
-127.0
 30
0.0
 40
1.5
  0
CIRCLE
  8
0
 62
250
 10
217.317631
 20
-113.128457
 30
0.0
 40
2.5
  0
CIRCLE
  8
0
 62
250
 10
204.381995
 20
-118.0
 30
0.0
 40
1.5
  0
CIRCLE
  8
0
 62
250
 10
230.202178
 20
-107.345038
 30
0.0
 40
1.5
  0
CIRCLE
  8
0
 62
250
 10
226.350466
 20
-93.757489
 30
0.0
 40
2.5
  0
CIRCLE
  8
0
 62
250
 10
213.888638
 20
-99.73791
 30
0.0
 40
1.5
  0
CIRCLE
  8
0
 62
250
 10
238.681926
 20
-86.873116
 30
0.0
 40
1.5
  0
CIRCLE
  8
0
 62
250
 10
233.660638
 20
-73.672971
 30
0.0
 40
2.5
  0
CIRCLE
  8
0
 62
250
 10
221.767459
 20
-80.716754
 30
0.0
 40
1.5
  0
CIRCLE
  8
0
 62
250
 10
245.34516
 20
-65.740037
 30
0.0
 40
1.5
  0
CIRCLE
  8
0
 62
250
 10
239.192511
 20
-53.027756
 30
0.0
 40
2.5
  0
CIRCLE
  8
0
 62
250
 10
227.958495
 20
-61.081295
 30
0.0
 40
1.5
  0
CIRCLE
  8
0
 62
250
 10
250.141169
 20
-44.106637
 30
0.0
 40
1.5
  0
CIRCLE
  8
0
 62
250
 10
242.903985
 20
-31.978969
 30
0.0
 40
2.5
  0
CIRCLE
  8
0
 62
250
 10
232.41463
 20
-40.98097
 30
0.0
 40
1.5
  0
CIRCLE
  8
0
 62
250
 10
253.033453
 20
-22.137559
 30
0.0
 40
1.5
  0
CIRCLE
  8
0
 62
250
 10
244.766812
 20
-10.686802
 30
0.0
 40
2.5
  0
CIRCLE
  8
0
 62
250
 10
235.101949
 20
-20.568755
 30
0.0
 40
1.5
  0
CIRCLE
  8
0
 62
250
 10
254.0
 20
0.0
 30
0.0
 40
1.5
  0
CIRCLE
  8
0
 62
250
 10
244.766817
 20
10.686698
 30
0.0
 40
2.5
  0
CIRCLE
  8
0
 62
250
 10
236.0
 20
0.0
 30
0.0
 40
1.5
  0
CIRCLE
  8
0
 62
250
 10
235.101949
 20
20.568755
 30
0.0
 40
1.5
  0
CIRCLE
  8
0
 62
250
 10
242.903998
 20
31.978866
 30
0.0
 40
2.5
  0
CIRCLE
  8
0
 62
250
 10
253.033453
 20
22.137559
 30
0.0
 40
1.5
  0
CIRCLE
  8
0
 62
250
 10
232.41463
 20
40.98097
 30
0.0
 40
1.5
  0
CIRCLE
  8
0
 62
250
 10
239.192533
 20
53.027655
 30
0.0
 40
2.5
  0
CIRCLE
  8
0
 62
250
 10
250.141169
 20
44.106637
 30
0.0
 40
1.5
  0
CIRCLE
  8
0
 62
250
 10
227.958495
 20
61.081295
 30
0.0
 40
1.5
  0
CIRCLE
  8
0
 62
250
 10
233.660669
 20
73.672871
 30
0.0
 40
2.5
  0
CIRCLE
  8
0
 62
250
 10
245.34516
 20
65.740037
 30
0.0
 40
1.5
  0
CIRCLE
  8
0
 62
250
 10
221.767459
 20
80.716754
 30
0.0
 40
1.5
  0
CIRCLE
  8
0
 62
250
 10
226.350506
 20
93.757393
 30
0.0
 40
2.5
  0
CIRCLE
  8
0
 62
250
 10
238.681926
 20
86.873116
 30
0.0
 40
1.5
  0
CIRCLE
  8
0
 62
250
 10
213.888638
 20
99.73791
 30
0.0
 40
1.5
  0
CIRCLE
  8
0
 62
250
 10
217.317679
 20
113.128364
 30
0.0
 40
2.5
  0
CIRCLE
  8
0
 62
250
 10
230.202178
 20
107.345038
 30
0.0
 40
1.5
  0
CIRCLE
  8
0
 62
250
 10
204.381995
 20
118.0
 30
0.0
 40
1.5
  0
CIRCLE
  8
0
 62
250
 10
206.630933
 20
131.63836
 30
0.0
 40
2.5
  0
CIRCLE
  8
0
 62
250
 10
219.970453
 20
127.0
 30
0.0
 40
1.5
  0
CIRCLE
  8
0
 62
250
 10
193.319882
 20
135.364039
 30
0.0
 40
1.5
  0
CIRCLE
  8
0
 62
250
 10
194.3716
 20
149.146509
 30
0.0
 40
2.5
  0
CIRCLE
  8
0
 62
250
 10
208.064619
 20
145.688415
 30
0.0
 40
1.5
  0
CIRCLE
  8
0
 62
250
 10
180.786489
 20
151.697876
 30
0.0
 40
1.5
  0
CIRCLE
  8
0
 62
250
 10
180.632983
 20
165.519563
 30
0.0
 40
2.5
  0
CIRCLE
  8
0
 62
250
 10
194.575289
 20
163.268053
 30
0.0
 40
1.5
  0
CIRCLE
  8
0
 62
250
 10
166.8772
 20
166.8772
 30
0.0
 40
1.5
  0
CIRCLE
  8
0
 62
250
 10
165.519639
 20
180.632913
 30
0.0
 40
2.5
  0
CIRCLE
  8
0
 62
250
 10
179.605122
 20
179.605122
 30
0.0
 40
1.5
  0
CIRCLE
  8
0
 62
250
 10
151.697876
 20
180.786489
 30
0.0
 40
1.5
  0
CIRCLE
  8
0
 62
250
 10
149.146592
 20
194.371537
 30
0.0
 40
2.5
  0
CIRCLE
  8
0
 62
250
 10
163.268053
 20
194.575289
 30
0.0
 40
1.5
  0
CIRCLE
  8
0
 62
250
 10
135.364039
 20
193.319882
 30
0.0
 40
1.5
  0
CIRCLE
  8
0
 62
250
 10
131.638448
 20
206.630877
 30
0.0
 40
2.5
  0
CIRCLE
  8
0
 62
250
 10
145.688415
 20
208.064619
 30
0.0
 40
1.5
  0
CIRCLE
  8
0
 62
250
 10
118.0
 20
204.381995
 30
0.0
 40
1.5
  0
CIRCLE
  8
0
 62
250
 10
113.128457
 20
217.317631
 30
0.0
 40
2.5
  0
CIRCLE
  8
0
 62
250
 10
127.0
 20
219.970453
 30
0.0
 40
1.5
  0
CIRCLE
  8
0
 62
250
 10
99.73791
 20
213.888638
 30
0.0
 40
1.5
  0
CIRCLE
  8
0
 62
250
 10
93.757489
 20
226.350466
 30
0.0
 40
2.5
  0
CIRCLE
  8
0
 62
250
 10
107.345038
 20
230.202178
 30
0.0
 40
1.5
  0
CIRCLE
  8
0
 62
250
 10
80.716754
 20
221.767459
 30
0.0
 40
1.5
  0
CIRCLE
  8
0
 62
250
 10
73.672971
 20
233.660638
 30
0.0
 40
2.5
  0
CIRCLE
  8
0
 62
250
 10
86.873116
 20
238.681926
 30
0.0
 40
1.5
  0
CIRCLE
  8
0
 62
250
 10
61.081295
 20
227.958495
 30
0.0
 40
1.5
  0
CIRCLE
  8
0
 62
250
 10
53.027756
 20
239.192511
 30
0.0
 40
2.5
  0
CIRCLE
  8
0
 62
250
 10
65.740037
 20
245.34516
 30
0.0
 40
1.5
  0
CIRCLE
  8
0
 62
250
 10
40.98097
 20
232.41463
 30
0.0
 40
1.5
  0
CIRCLE
  8
0
 62
250
 10
31.978969
 20
242.903985
 30
0.0
 40
2.5
  0
CIRCLE
  8
0
 62
250
 10
44.106637
 20
250.141169
 30
0.0
 40
1.5
  0
CIRCLE
  8
0
 62
250
 10
20.568755
 20
235.101949
 30
0.0
 40
1.5
  0
CIRCLE
  8
0
 62
250
 10
10.686802
 20
244.766812
 30
0.0
 40
2.5
  0
CIRCLE
  8
0
 62
250
 10
22.137559
 20
253.033453
 30
0.0
 40
1.5
  0
CIRCLE
  8
0
 62
250
 10
0.0
 20
236.0
 30
0.0
 40
1.5
  0
CIRCLE
  8
0
 62
250
 10
-10.686698
 20
244.766817
 30
0.0
 40
2.5
  0
CIRCLE
  8
0
 62
250
 10
0.0
 20
254.0
 30
0.0
 40
1.5
  0
CIRCLE
  8
0
 62
250
 10
-20.568755
 20
235.101949
 30
0.0
 40
1.5
  0
CIRCLE
  8
0
 62
250
 10
-31.978866
 20
242.903998
 30
0.0
 40
2.5
  0
CIRCLE
  8
0
 62
250
 10
-22.137559
 20
253.033453
 30
0.0
 40
1.5
  0
CIRCLE
  8
0
 62
250
 10
-40.98097
 20
232.41463
 30
0.0
 40
1.5
  0
CIRCLE
  8
0
 62
250
 10
-53.027655
 20
239.192533
 30
0.0
 40
2.5
  0
CIRCLE
  8
0
 62
250
 10
-44.106637
 20
250.141169
 30
0.0
 40
1.5
  0
CIRCLE
  8
0
 62
250
 10
-61.081295
 20
227.958495
 30
0.0
 40
1.5
  0
CIRCLE
  8
0
 62
250
 10
-73.672871
 20
233.660669
 30
0.0
 40
2.5
  0
CIRCLE
  8
0
 62
250
 10
-65.740037
 20
245.34516
 30
0.0
 40
1.5
  0
CIRCLE
  8
0
 62
250
 10
-80.716754
 20
221.767459
 30
0.0
 40
1.5
  0
CIRCLE
  8
0
 62
250
 10
-93.757393
 20
226.350506
 30
0.0
 40
2.5
  0
CIRCLE
  8
0
 62
250
 10
-86.873116
 20
238.681926
 30
0.0
 40
1.5
  0
CIRCLE
  8
0
 62
250
 10
-99.73791
 20
213.888638
 30
0.0
 40
1.5
  0
CIRCLE
  8
0
 62
250
 10
-113.128364
 20
217.317679
 30
0.0
 40
2.5
  0
CIRCLE
  8
0
 62
250
 10
-107.345038
 20
230.202178
 30
0.0
 40
1.5
  0
CIRCLE
  8
0
 62
250
 10
-118.0
 20
204.381995
 30
0.0
 40
1.5
  0
CIRCLE
  8
0
 62
250
 10
-131.63836
 20
206.630933
 30
0.0
 40
2.5
  0
CIRCLE
  8
0
 62
250
 10
-127.0
 20
219.970453
 30
0.0
 40
1.5
  0
CIRCLE
  8
0
 62
250
 10
-135.364039
 20
193.319882
 30
0.0
 40
1.5
  0
CIRCLE
  8
0
 62
250
 10
-149.146509
 20
194.3716
 30
0.0
 40
2.5
  0
CIRCLE
  8
0
 62
250
 10
-145.688415
 20
208.064619
 30
0.0
 40
1.5
  0
CIRCLE
  8
0
 62
250
 10
-151.697876
 20
180.786489
 30
0.0
 40
1.5
  0
CIRCLE
  8
0
 62
250
 10
-165.519563
 20
180.632983
 30
0.0
 40
2.5
  0
CIRCLE
  8
0
 62
250
 10
-163.268053
 20
194.575289
 30
0.0
 40
1.5
  0
CIRCLE
  8
0
 62
250
 10
-166.8772
 20
166.8772
 30
0.0
 40
1.5
  0
CIRCLE
  8
0
 62
250
 10
-180.632913
 20
165.519639
 30
0.0
 40
2.5
  0
CIRCLE
  8
0
 62
250
 10
-179.605122
 20
179.605122
 30
0.0
 40
1.5
  0
CIRCLE
  8
0
 62
250
 10
-180.786489
 20
151.697876
 30
0.0
 40
1.5
  0
CIRCLE
  8
0
 62
250
 10
-194.371537
 20
149.146592
 30
0.0
 40
2.5
  0
CIRCLE
  8
0
 62
250
 10
-194.575289
 20
163.268053
 30
0.0
 40
1.5
  0
CIRCLE
  8
0
 62
250
 10
-193.319882
 20
135.364039
 30
0.0
 40
1.5
  0
CIRCLE
  8
0
 62
250
 10
-206.630877
 20
131.638448
 30
0.0
 40
2.5
  0
CIRCLE
  8
0
 62
250
 10
-208.064619
 20
145.688415
 30
0.0
 40
1.5
  0
CIRCLE
  8
0
 62
250
 10
-204.381995
 20
118.0
 30
0.0
 40
1.5
  0
CIRCLE
  8
0
 62
250
 10
-217.317631
 20
113.128457
 30
0.0
 40
2.5
  0
CIRCLE
  8
0
 62
250
 10
-219.970453
 20
127.0
 30
0.0
 40
1.5
  0
CIRCLE
  8
0
 62
250
 10
-213.888638
 20
99.73791
 30
0.0
 40
1.5
  0
CIRCLE
  8
0
 62
250
 10
-226.350466
 20
93.757489
 30
0.0
 40
2.5
  0
CIRCLE
  8
0
 62
250
 10
-230.202178
 20
107.345038
 30
0.0
 40
1.5
  0
CIRCLE
  8
0
 62
250
 10
-221.767459
 20
80.716754
 30
0.0
 40
1.5
  0
CIRCLE
  8
0
 62
250
 10
-233.660638
 20
73.672971
 30
0.0
 40
2.5
  0
CIRCLE
  8
0
 62
250
 10
-238.681926
 20
86.873116
 30
0.0
 40
1.5
  0
CIRCLE
  8
0
 62
250
 10
-227.958495
 20
61.081295
 30
0.0
 40
1.5
  0
CIRCLE
  8
0
 62
250
 10
-239.192511
 20
53.027756
 30
0.0
 40
2.5
  0
CIRCLE
  8
0
 62
250
 10
-245.34516
 20
65.740037
 30
0.0
 40
1.5
  0
CIRCLE
  8
0
 62
250
 10
-232.41463
 20
40.98097
 30
0.0
 40
1.5
  0
CIRCLE
  8
0
 62
250
 10
-242.903985
 20
31.978969
 30
0.0
 40
2.5
  0
CIRCLE
  8
0
 62
250
 10
-250.141169
 20
44.106637
 30
0.0
 40
1.5
  0
CIRCLE
  8
0
 62
250
 10
-235.101949
 20
20.568755
 30
0.0
 40
1.5
  0
CIRCLE
  8
0
 62
250
 10
-244.766812
 20
10.686802
 30
0.0
 40
2.5
  0
CIRCLE
  8
0
 62
250
 10
-253.033453
 20
22.137559
 30
0.0
 40
1.5
  0
CIRCLE
  8
0
 62
250
 10
-236.0
 20
0.0
 30
0.0
 40
1.5
  0
CIRCLE
  8
0
 62
250
 10
-244.766817
 20
-10.686698
 30
0.0
 40
2.5
  0
CIRCLE
  8
0
 62
250
 10
-254.0
 20
0.0
 30
0.0
 40
1.5
  0
CIRCLE
  8
0
 62
250
 10
-253.033453
 20
-22.137559
 30
0.0
 40
1.5
  0
CIRCLE
  8
0
 62
250
 10
-235.101949
 20
-20.568755
 30
0.0
 40
1.5
  0
CIRCLE
  8
0
 62
250
 10
-242.903998
 20
-31.978866
 30
0.0
 40
2.5
  0
CIRCLE
  8
0
 62
250
 10
-250.141169
 20
-44.106637
 30
0.0
 40
1.5
  0
CIRCLE
  8
0
 62
250
 10
-232.41463
 20
-40.98097
 30
0.0
 40
1.5
  0
CIRCLE
  8
0
 62
250
 10
-239.192533
 20
-53.027655
 30
0.0
 40
2.5
  0
CIRCLE
  8
0
 62
250
 10
-245.34516
 20
-65.740037
 30
0.0
 40
1.5
  0
CIRCLE
  8
0
 62
250
 10
-227.958495
 20
-61.081295
 30
0.0
 40
1.5
  0
CIRCLE
  8
0
 62
250
 10
-233.660669
 20
-73.672871
 30
0.0
 40
2.5
  0
CIRCLE
  8
0
 62
250
 10
-238.681926
 20
-86.873116
 30
0.0
 40
1.5
  0
CIRCLE
  8
0
 62
250
 10
-221.767459
 20
-80.716754
 30
0.0
 40
1.5
  0
CIRCLE
  8
0
 62
250
 10
-226.350506
 20
-93.757393
 30
0.0
 40
2.5
  0
CIRCLE
  8
0
 62
250
 10
-230.202178
 20
-107.345038
 30
0.0
 40
1.5
  0
CIRCLE
  8
0
 62
250
 10
-213.888638
 20
-99.73791
 30
0.0
 40
1.5
  0
CIRCLE
  8
0
 62
250
 10
-217.317679
 20
-113.128364
 30
0.0
 40
2.5
  0
CIRCLE
  8
0
 62
250
 10
-219.970453
 20
-127.0
 30
0.0
 40
1.5
  0
CIRCLE
  8
0
 62
250
 10
-204.381995
 20
-118.0
 30
0.0
 40
1.5
  0
CIRCLE
  8
0
 62
250
 10
-206.630933
 20
-131.63836
 30
0.0
 40
2.5
  0
CIRCLE
  8
0
 62
250
 10
-208.064619
 20
-145.688415
 30
0.0
 40
1.5
  0
CIRCLE
  8
0
 62
250
 10
-193.319882
 20
-135.364039
 30
0.0
 40
1.5
  0
CIRCLE
  8
0
 62
250
 10
-194.3716
 20
-149.146509
 30
0.0
 40
2.5
  0
CIRCLE
  8
0
 62
250
 10
-194.575289
 20
-163.268053
 30
0.0
 40
1.5
  0
CIRCLE
  8
0
 62
250
 10
-180.786489
 20
-151.697876
 30
0.0
 40
1.5
  0
CIRCLE
  8
0
 62
250
 10
-180.632983
 20
-165.519563
 30
0.0
 40
2.5
  0
CIRCLE
  8
0
 62
250
 10
-179.605122
 20
-179.605122
 30
0.0
 40
1.5
  0
CIRCLE
  8
0
 62
250
 10
-166.8772
 20
-166.8772
 30
0.0
 40
1.5
  0
CIRCLE
  8
0
 62
250
 10
-165.519639
 20
-180.632913
 30
0.0
 40
2.5
  0
CIRCLE
  8
0
 62
250
 10
-163.268053
 20
-194.575289
 30
0.0
 40
1.5
  0
CIRCLE
  8
0
 62
250
 10
-151.697876
 20
-180.786489
 30
0.0
 40
1.5
  0
CIRCLE
  8
0
 62
250
 10
-149.146592
 20
-194.371537
 30
0.0
 40
2.5
  0
CIRCLE
  8
0
 62
250
 10
-145.688415
 20
-208.064619
 30
0.0
 40
1.5
  0
CIRCLE
  8
0
 62
250
 10
-135.364039
 20
-193.319882
 30
0.0
 40
1.5
  0
CIRCLE
  8
0
 62
250
 10
-131.638448
 20
-206.630877
 30
0.0
 40
2.5
  0
CIRCLE
  8
0
 62
250
 10
-127.0
 20
-219.970453
 30
0.0
 40
1.5
  0
CIRCLE
  8
0
 62
250
 10
-118.0
 20
-204.381995
 30
0.0
 40
1.5
  0
CIRCLE
  8
0
 62
250
 10
-113.128457
 20
-217.317631
 30
0.0
 40
2.5
  0
CIRCLE
  8
0
 62
250
 10
-107.345038
 20
-230.202178
 30
0.0
 40
1.5
  0
CIRCLE
  8
0
 62
250
 10
-99.73791
 20
-213.888638
 30
0.0
 40
1.5
  0
CIRCLE
  8
0
 62
250
 10
-93.757489
 20
-226.350466
 30
0.0
 40
2.5
  0
CIRCLE
  8
0
 62
250
 10
-86.873116
 20
-238.681926
 30
0.0
 40
1.5
  0
CIRCLE
  8
0
 62
250
 10
-80.716754
 20
-221.767459
 30
0.0
 40
1.5
  0
CIRCLE
  8
0
 62
250
 10
-73.672971
 20
-233.660638
 30
0.0
 40
2.5
  0
CIRCLE
  8
0
 62
250
 10
-65.740037
 20
-245.34516
 30
0.0
 40
1.5
  0
CIRCLE
  8
0
 62
250
 10
-61.081295
 20
-227.958495
 30
0.0
 40
1.5
  0
CIRCLE
  8
0
 62
250
 10
-53.027756
 20
-239.192511
 30
0.0
 40
2.5
  0
CIRCLE
  8
0
 62
250
 10
-44.106637
 20
-250.141169
 30
0.0
 40
1.5
  0
CIRCLE
  8
0
 62
250
 10
-40.98097
 20
-232.41463
 30
0.0
 40
1.5
  0
CIRCLE
  8
0
 62
250
 10
-31.978969
 20
-242.903985
 30
0.0
 40
2.5
  0
CIRCLE
  8
0
 62
250
 10
-22.137559
 20
-253.033453
 30
0.0
 40
1.5
  0
CIRCLE
  8
0
 62
250
 10
-20.568755
 20
-235.101949
 30
0.0
 40
1.5
  0
CIRCLE
  8
0
 62
250
 10
-10.686802
 20
-244.766812
 30
0.0
 40
2.5
  0
CIRCLE
  8
0
 62
250
 10
10.686698
 20
-244.766817
 30
0.0
 40
2.5
  0
CIRCLE
  8
0
 62
250
 10
22.627428515228598
 20
-79.195948
 30
0.0
 40
1.5
  0
CIRCLE
  8
0
 62
250
 10
107.480242
 20
-164.048762
 30
0.0
 40
1.5
  0
CIRCLE
  8
0
 62
250
 10
164.048784
 20
-107.48022
 30
0.0
 40
1.5
  0
CIRCLE
  8
0
 62
250
 10
79.19601185181418
 20
-22.627406
 30
0.0
 40
1.5
  0
ENDBLK
  0
ENDSEC
  0
SECTION
  2
ENTITIES
  0
INSERT
  2
SKETCH
  8
0
 62
250
 10
0.0
 20
0.0
 30
0.0
  0
ENDSEC
  0
EOF
