ISO-10303-21;
HEADER;
FILE_DESCRIPTION(('STEP AP242'),
    '1');
FILE_NAME('ЗахватноеУстройство',
    '',
    ('UNSPECIFIED'),
    ('UNSPECIFIED'),
    'C3D Converter',
    'C3D Toolkit',
    '');
FILE_SCHEMA(('AP242_MANAGED_MODEL_BASED_3D_ENGINEERING_MIM_LF { 1 0 10303 442 1 1 4 }'));
ENDSEC;

DATA;
#1=PRODUCT_DEFINITION('','UNSPECIFIED',#15,#18);
#2=SHAPE_DEFINITION_REPRESENTATION(#13,#3);
#3=SHAPE_REPRESENTATION('NONE',(#4,#40),#8);
#4=AXIS2_PLACEMENT_3D('',#5,#6,#7);
#5=CARTESIAN_POINT('',(0.,0.,0.));
#6=DIRECTION('',(0.,0.,1.));
#7=DIRECTION('',(1.,0.,0.));
#8=(GEOMETRIC_REPRESENTATION_CONTEXT(3)GLOBAL_UNCERTAINTY_ASSIGNED_CONTEXT((#10))
GLOBAL_UNIT_ASSIGNED_CONTEXT((#9,#11,#12))REPRESENTATION_CONTEXT('NONE','NONE'));
#9=(LENGTH_UNIT()NAMED_UNIT(*)SI_UNIT(.MILLI.,.METRE.));
#10=UNCERTAINTY_MEASURE_WITH_UNIT(LENGTH_MEASURE(1.E-5),#9,'NONE','NONE');
#11=(NAMED_UNIT(*)PLANE_ANGLE_UNIT()SI_UNIT($,.RADIAN.));
#12=(NAMED_UNIT(*)SI_UNIT($,.STERADIAN.)SOLID_ANGLE_UNIT());
#13=PRODUCT_DEFINITION_SHAPE('NONE','NONE',#1);
#14=MECHANICAL_CONTEXT('NONE',#19,'mechanical');
#15=PRODUCT_DEFINITION_FORMATION_WITH_SPECIFIED_SOURCE('ANY','UNSPECIFIED',#16,.NOT_KNOWN.);
#16=PRODUCT('','\X2\041704300445043204300442043D043E04350423044104420440043E0439044104420432043E\X0\',
'NONE',(#14));
#17=PRODUCT_RELATED_PRODUCT_CATEGORY('assembly','',(#16));
#18=DESIGN_CONTEXT('detailed design',#19,'design');
#19=APPLICATION_CONTEXT('configuration controlled 3d designs of mechanical parts and assemblies');
#20=APPLICATION_PROTOCOL_DEFINITION('international standard','config_control_design',
1994,#19);
#21=CC_DESIGN_DATE_AND_TIME_ASSIGNMENT(#22,#26,(#1));
#22=DATE_AND_TIME(#23,#24);
#23=CALENDAR_DATE(0,1,1);
#24=LOCAL_TIME(0,0,0.,#25);
#25=COORDINATED_UNIVERSAL_TIME_OFFSET(0,0,.AHEAD.);
#26=DATE_TIME_ROLE('creation_date');
#27=CC_DESIGN_APPROVAL(#28,(#1));
#28=APPROVAL(#29,'UNSPECIFIED');
#29=APPROVAL_STATUS('not_yet_approved');
#30=APPROVAL_DATE_TIME(#31,#28);
#31=DATE_AND_TIME(#32,#33);
#32=CALENDAR_DATE(0,1,1);
#33=LOCAL_TIME(0,0,0.,#34);
#34=COORDINATED_UNIVERSAL_TIME_OFFSET(0,0,.AHEAD.);
#35=PERSON('UNSPECIFIED','Andrey','UNSPECIFIED',('UNSPECIFIED'),('UNSPECIFIED'),
('UNSPECIFIED'));
#36=ORGANIZATION('UNSPECIFIED','UNSPECIFIED','UNSPECIFIED');
#37=PERSON_AND_ORGANIZATION(#35,#36);
#38=PERSON_AND_ORGANIZATION_ROLE('creator');
#39=CC_DESIGN_PERSON_AND_ORGANIZATION_ASSIGNMENT(#37,#38,(#15,#1));
#40=AXIS2_PLACEMENT_3D('',#41,#42,#43);
#41=CARTESIAN_POINT('',(0.,0.,0.));
#42=DIRECTION('',(0.,0.,1.));
#43=DIRECTION('',(1.,0.,0.));
#44=PRODUCT_DEFINITION('','UNSPECIFIED',#62,#65);
#45=SHAPE_DEFINITION_REPRESENTATION(#60,#46);
#46=SHAPE_REPRESENTATION('NONE',(#4),#8);
#47=MANIFOLD_SOLID_BREP('',#48);
#48=CLOSED_SHELL('',(#109,#110,#111,#112,#113,#114,#115,#116,#117,#118,#119,#120,
#121,#122,#123));
#49=COLOUR_RGB('',0.501960784313725,0.501960784313725,0.501960784313725);
#50=FILL_AREA_STYLE_COLOUR('',#49);
#51=FILL_AREA_STYLE($,(#50));
#52=SURFACE_STYLE_FILL_AREA(#51);
#53=SURFACE_SIDE_STYLE('',(#52));
#54=SURFACE_STYLE_USAGE(.BOTH.,#53);
#55=PRESENTATION_STYLE_ASSIGNMENT((#54));
#56=MECHANICAL_DESIGN_GEOMETRIC_PRESENTATION_REPRESENTATION('NONE',(#57),#8);
#57=STYLED_ITEM('',(#55),#47);
#58=ADVANCED_BREP_SHAPE_REPRESENTATION('NONE',(#47),#8);
#59=SHAPE_REPRESENTATION_RELATIONSHIP('','',#46,#58);
#60=PRODUCT_DEFINITION_SHAPE('NONE','NONE',#44);
#61=MECHANICAL_CONTEXT('NONE',#66,'mechanical');
#62=PRODUCT_DEFINITION_FORMATION_WITH_SPECIFIED_SOURCE('ANY','UNSPECIFIED',#63,.NOT_KNOWN.);
#63=PRODUCT('','\X2\0418043C0438044204300442043E0440041A043B04350448043D0438\X0\',
'NONE',(#61));
#64=PRODUCT_RELATED_PRODUCT_CATEGORY('detail','',(#63));
#65=DESIGN_CONTEXT('detailed design',#66,'design');
#66=APPLICATION_CONTEXT('configuration controlled 3d designs of mechanical parts and assemblies');
#67=APPLICATION_PROTOCOL_DEFINITION('international standard','config_control_design',
1994,#66);
#68=CC_DESIGN_DATE_AND_TIME_ASSIGNMENT(#69,#73,(#44));
#69=DATE_AND_TIME(#70,#71);
#70=CALENDAR_DATE(0,1,1);
#71=LOCAL_TIME(0,0,0.,#72);
#72=COORDINATED_UNIVERSAL_TIME_OFFSET(0,0,.AHEAD.);
#73=DATE_TIME_ROLE('creation_date');
#74=CC_DESIGN_APPROVAL(#75,(#44));
#75=APPROVAL(#76,'UNSPECIFIED');
#76=APPROVAL_STATUS('not_yet_approved');
#77=APPROVAL_DATE_TIME(#78,#75);
#78=DATE_AND_TIME(#79,#80);
#79=CALENDAR_DATE(0,1,1);
#80=LOCAL_TIME(0,0,0.,#81);
#81=COORDINATED_UNIVERSAL_TIME_OFFSET(0,0,.AHEAD.);
#82=PERSON('UNSPECIFIED','Andrey','UNSPECIFIED',('UNSPECIFIED'),('UNSPECIFIED'),
('UNSPECIFIED'));
#83=ORGANIZATION('UNSPECIFIED','UNSPECIFIED','UNSPECIFIED');
#84=PERSON_AND_ORGANIZATION(#82,#83);
#85=PERSON_AND_ORGANIZATION_ROLE('creator');
#86=CC_DESIGN_PERSON_AND_ORGANIZATION_ASSIGNMENT(#84,#85,(#62,#44));
#87=ITEM_DEFINED_TRANSFORMATION('','',#4,#40);
#88=(REPRESENTATION_RELATIONSHIP('','',#46,#3)REPRESENTATION_RELATIONSHIP_WITH_TRANSFORMATION(
#87)SHAPE_REPRESENTATION_RELATIONSHIP());
#89=NEXT_ASSEMBLY_USAGE_OCCURRENCE('ANY','\X2\041704300445043204300442043D043E04350423044104420440043E0439044104420432043E\X0\',
'',#1,#44,'');
#90=CC_DESIGN_SECURITY_CLASSIFICATION(#91,(#89));
#91=SECURITY_CLASSIFICATION('','',#92);
#92=SECURITY_CLASSIFICATION_LEVEL('unclassified');
#93=CC_DESIGN_DATE_AND_TIME_ASSIGNMENT(#94,#98,(#91));
#94=DATE_AND_TIME(#95,#96);
#95=CALENDAR_DATE(0,1,1);
#96=LOCAL_TIME(0,0,0.,#97);
#97=COORDINATED_UNIVERSAL_TIME_OFFSET(0,0,.AHEAD.);
#98=DATE_TIME_ROLE('classification_date');
#99=CC_DESIGN_APPROVAL(#100,(#91));
#100=APPROVAL(#101,'UNSPECIFIED');
#101=APPROVAL_STATUS('not_yet_approved');
#102=APPROVAL_DATE_TIME(#103,#100);
#103=DATE_AND_TIME(#104,#105);
#104=CALENDAR_DATE(0,1,1);
#105=LOCAL_TIME(0,0,0.,#106);
#106=COORDINATED_UNIVERSAL_TIME_OFFSET(0,0,.AHEAD.);
#107=PRODUCT_DEFINITION_SHAPE('NONE','NONE',#89);
#108=CONTEXT_DEPENDENT_SHAPE_REPRESENTATION(#88,#107);
#109=ADVANCED_FACE('',(#124,#126),#128,.T.);
#110=ADVANCED_FACE('',(#133),#135,.F.);
#111=ADVANCED_FACE('',(#140,#142),#144,.F.);
#112=ADVANCED_FACE('',(#149),#151,.F.);
#113=ADVANCED_FACE('',(#156,#158),#160,.F.);
#114=ADVANCED_FACE('',(#165),#167,.F.);
#115=ADVANCED_FACE('',(#172),#174,.F.);
#116=ADVANCED_FACE('',(#179),#181,.F.);
#117=ADVANCED_FACE('',(#186),#188,.T.);
#118=ADVANCED_FACE('',(#193),#195,.T.);
#119=ADVANCED_FACE('',(#200),#202,.T.);
#120=ADVANCED_FACE('',(#207),#209,.T.);
#121=ADVANCED_FACE('',(#214),#216,.T.);
#122=ADVANCED_FACE('',(#221),#223,.T.);
#123=ADVANCED_FACE('',(#228),#230,.T.);
#124=FACE_BOUND('',#125,.T.);
#125=EDGE_LOOP('',(#235,#236,#237,#238));
#126=FACE_OUTER_BOUND('',#127,.T.);
#127=EDGE_LOOP('',(#239));
#128=CYLINDRICAL_SURFACE('',#129,5.);
#129=AXIS2_PLACEMENT_3D('',#130,#131,#132);
#130=CARTESIAN_POINT('',(0.,0.,0.));
#131=DIRECTION('',(0.,0.,1.));
#132=DIRECTION('',(-1.,1.22464679914735E-16,0.));
#133=FACE_BOUND('',#134,.T.);
#134=EDGE_LOOP('',(#240));
#135=PLANE('',#136);
#136=AXIS2_PLACEMENT_3D('',#137,#138,#139);
#137=CARTESIAN_POINT('',(0.,0.,-30.));
#138=DIRECTION('',(0.,0.,1.));
#139=DIRECTION('',(-1.,1.22464679914735E-16,0.));
#140=FACE_OUTER_BOUND('',#141,.T.);
#141=EDGE_LOOP('',(#241));
#142=FACE_OUTER_BOUND('',#143,.T.);
#143=EDGE_LOOP('',(#242));
#144=CYLINDRICAL_SURFACE('',#145,3.);
#145=AXIS2_PLACEMENT_3D('',#146,#147,#148);
#146=CARTESIAN_POINT('',(0.,0.,-36.));
#147=DIRECTION('',(0.,0.,1.));
#148=DIRECTION('',(-1.,1.22464679914735E-16,0.));
#149=FACE_BOUND('',#150,.T.);
#150=EDGE_LOOP('',(#243,#244,#245));
#151=PLANE('',#152);
#152=AXIS2_PLACEMENT_3D('',#153,#154,#155);
#153=CARTESIAN_POINT('',(0.,0.,6.));
#154=DIRECTION('',(0.,0.,1.));
#155=DIRECTION('',(-1.,1.22464679914735E-16,0.));
#156=FACE_BOUND('',#157,.T.);
#157=EDGE_LOOP('',(#246));
#158=FACE_BOUND('',#159,.T.);
#159=EDGE_LOOP('',(#247));
#160=PLANE('',#161);
#161=AXIS2_PLACEMENT_3D('',#162,#163,#164);
#162=CARTESIAN_POINT('',(-5.,6.12323399573677E-16,-36.));
#163=DIRECTION('',(0.,0.,1.));
#164=DIRECTION('',(-1.22464679914735E-16,-1.,0.));
#165=FACE_BOUND('',#166,.T.);
#166=EDGE_LOOP('',(#248,#249,#250));
#167=PLANE('',#168);
#168=AXIS2_PLACEMENT_3D('',#169,#170,#171);
#169=CARTESIAN_POINT('',(0.,0.,6.));
#170=DIRECTION('',(0.,0.,1.));
#171=DIRECTION('',(-1.,1.22464679914735E-16,0.));
#172=FACE_BOUND('',#173,.T.);
#173=EDGE_LOOP('',(#251,#252,#253));
#174=PLANE('',#175);
#175=AXIS2_PLACEMENT_3D('',#176,#177,#178);
#176=CARTESIAN_POINT('',(0.,0.,6.));
#177=DIRECTION('',(0.,0.,1.));
#178=DIRECTION('',(-1.,1.22464679914735E-16,0.));
#179=FACE_BOUND('',#180,.T.);
#180=EDGE_LOOP('',(#254,#255,#256));
#181=PLANE('',#182);
#182=AXIS2_PLACEMENT_3D('',#183,#184,#185);
#183=CARTESIAN_POINT('',(0.,0.,6.));
#184=DIRECTION('',(0.,0.,1.));
#185=DIRECTION('',(-1.,1.22464679914735E-16,0.));
#186=FACE_BOUND('',#187,.T.);
#187=EDGE_LOOP('',(#257,#258,#259,#260,#261,#262,#263));
#188=PLANE('',#189);
#189=AXIS2_PLACEMENT_3D('',#190,#191,#192);
#190=CARTESIAN_POINT('',(-5.,-5.,6.));
#191=DIRECTION('',(-1.77635683940025E-16,-1.,0.));
#192=DIRECTION('',(1.,-1.77635683940025E-16,0.));
#193=FACE_BOUND('',#194,.T.);
#194=EDGE_LOOP('',(#264,#265,#266,#267,#268));
#195=PLANE('',#196);
#196=AXIS2_PLACEMENT_3D('',#197,#198,#199);
#197=CARTESIAN_POINT('',(-5.,5.,6.));
#198=DIRECTION('',(-1.,1.77635683940025E-16,0.));
#199=DIRECTION('',(-1.77635683940025E-16,-1.,0.));
#200=FACE_BOUND('',#201,.T.);
#201=EDGE_LOOP('',(#269,#270,#271,#272,#273,#274,#275));
#202=PLANE('',#203);
#203=AXIS2_PLACEMENT_3D('',#204,#205,#206);
#204=CARTESIAN_POINT('',(5.,5.,6.));
#205=DIRECTION('',(1.77635683940025E-16,1.,0.));
#206=DIRECTION('',(-1.,1.77635683940025E-16,0.));
#207=FACE_BOUND('',#208,.T.);
#208=EDGE_LOOP('',(#276,#277,#278,#279,#280));
#209=PLANE('',#210);
#210=AXIS2_PLACEMENT_3D('',#211,#212,#213);
#211=CARTESIAN_POINT('',(5.,-5.,6.));
#212=DIRECTION('',(1.,-1.77635683940025E-16,0.));
#213=DIRECTION('',(1.77635683940025E-16,1.,0.));
#214=FACE_BOUND('',#215,.T.);
#215=EDGE_LOOP('',(#281,#282,#283,#284));
#216=PLANE('',#217);
#217=AXIS2_PLACEMENT_3D('',#218,#219,#220);
#218=CARTESIAN_POINT('',(0.,0.,26.));
#219=DIRECTION('',(0.,0.,1.));
#220=DIRECTION('',(-1.,1.22464679914735E-16,0.));
#221=FACE_BOUND('',#222,.T.);
#222=EDGE_LOOP('',(#285,#286,#287,#288));
#223=PLANE('',#224);
#224=AXIS2_PLACEMENT_3D('',#225,#226,#227);
#225=CARTESIAN_POINT('',(-205.,-4.99999999999996,26.));
#226=DIRECTION('',(-1.,1.77635683940025E-16,0.));
#227=DIRECTION('',(1.77635683940025E-16,1.,0.));
#228=FACE_BOUND('',#229,.T.);
#229=EDGE_LOOP('',(#289,#290,#291,#292));
#230=PLANE('',#231);
#231=AXIS2_PLACEMENT_3D('',#232,#233,#234);
#232=CARTESIAN_POINT('',(-5.,5.,16.));
#233=DIRECTION('',(0.,0.,-1.));
#234=DIRECTION('',(-1.77635683940025E-16,-1.,0.));
#235=ORIENTED_EDGE('',*,*,#293,.F.);
#236=ORIENTED_EDGE('',*,*,#294,.F.);
#237=ORIENTED_EDGE('',*,*,#295,.F.);
#238=ORIENTED_EDGE('',*,*,#296,.F.);
#239=ORIENTED_EDGE('',*,*,#297,.T.);
#240=ORIENTED_EDGE('',*,*,#298,.F.);
#241=ORIENTED_EDGE('',*,*,#298,.T.);
#242=ORIENTED_EDGE('',*,*,#299,.F.);
#243=ORIENTED_EDGE('',*,*,#294,.T.);
#244=ORIENTED_EDGE('',*,*,#300,.F.);
#245=ORIENTED_EDGE('',*,*,#301,.F.);
#246=ORIENTED_EDGE('',*,*,#297,.F.);
#247=ORIENTED_EDGE('',*,*,#299,.T.);
#248=ORIENTED_EDGE('',*,*,#295,.T.);
#249=ORIENTED_EDGE('',*,*,#302,.F.);
#250=ORIENTED_EDGE('',*,*,#303,.F.);
#251=ORIENTED_EDGE('',*,*,#296,.T.);
#252=ORIENTED_EDGE('',*,*,#304,.F.);
#253=ORIENTED_EDGE('',*,*,#305,.F.);
#254=ORIENTED_EDGE('',*,*,#293,.T.);
#255=ORIENTED_EDGE('',*,*,#306,.F.);
#256=ORIENTED_EDGE('',*,*,#307,.F.);
#257=ORIENTED_EDGE('',*,*,#300,.T.);
#258=ORIENTED_EDGE('',*,*,#307,.T.);
#259=ORIENTED_EDGE('',*,*,#308,.T.);
#260=ORIENTED_EDGE('',*,*,#309,.T.);
#261=ORIENTED_EDGE('',*,*,#310,.F.);
#262=ORIENTED_EDGE('',*,*,#311,.F.);
#263=ORIENTED_EDGE('',*,*,#312,.F.);
#264=ORIENTED_EDGE('',*,*,#313,.F.);
#265=ORIENTED_EDGE('',*,*,#314,.F.);
#266=ORIENTED_EDGE('',*,*,#302,.T.);
#267=ORIENTED_EDGE('',*,*,#301,.T.);
#268=ORIENTED_EDGE('',*,*,#312,.T.);
#269=ORIENTED_EDGE('',*,*,#304,.T.);
#270=ORIENTED_EDGE('',*,*,#303,.T.);
#271=ORIENTED_EDGE('',*,*,#314,.T.);
#272=ORIENTED_EDGE('',*,*,#315,.T.);
#273=ORIENTED_EDGE('',*,*,#316,.F.);
#274=ORIENTED_EDGE('',*,*,#317,.F.);
#275=ORIENTED_EDGE('',*,*,#318,.F.);
#276=ORIENTED_EDGE('',*,*,#306,.T.);
#277=ORIENTED_EDGE('',*,*,#305,.T.);
#278=ORIENTED_EDGE('',*,*,#318,.T.);
#279=ORIENTED_EDGE('',*,*,#319,.F.);
#280=ORIENTED_EDGE('',*,*,#308,.F.);
#281=ORIENTED_EDGE('',*,*,#319,.T.);
#282=ORIENTED_EDGE('',*,*,#317,.T.);
#283=ORIENTED_EDGE('',*,*,#320,.F.);
#284=ORIENTED_EDGE('',*,*,#309,.F.);
#285=ORIENTED_EDGE('',*,*,#320,.T.);
#286=ORIENTED_EDGE('',*,*,#316,.T.);
#287=ORIENTED_EDGE('',*,*,#321,.T.);
#288=ORIENTED_EDGE('',*,*,#310,.T.);
#289=ORIENTED_EDGE('',*,*,#313,.T.);
#290=ORIENTED_EDGE('',*,*,#311,.T.);
#291=ORIENTED_EDGE('',*,*,#321,.F.);
#292=ORIENTED_EDGE('',*,*,#315,.F.);
#293=EDGE_CURVE('',#322,#323,#324,.T.);
#294=EDGE_CURVE('',#325,#322,#326,.T.);
#295=EDGE_CURVE('',#327,#325,#328,.T.);
#296=EDGE_CURVE('',#323,#327,#329,.T.);
#297=EDGE_CURVE('',#330,#330,#331,.T.);
#298=EDGE_CURVE('',#332,#332,#333,.T.);
#299=EDGE_CURVE('',#334,#334,#335,.T.);
#300=EDGE_CURVE('',#336,#322,#337,.T.);
#301=EDGE_CURVE('',#325,#336,#338,.T.);
#302=EDGE_CURVE('',#339,#325,#340,.T.);
#303=EDGE_CURVE('',#327,#339,#341,.T.);
#304=EDGE_CURVE('',#342,#327,#343,.T.);
#305=EDGE_CURVE('',#323,#342,#344,.T.);
#306=EDGE_CURVE('',#345,#323,#346,.T.);
#307=EDGE_CURVE('',#322,#345,#347,.T.);
#308=EDGE_CURVE('',#345,#348,#349,.T.);
#309=EDGE_CURVE('',#348,#350,#351,.T.);
#310=EDGE_CURVE('',#352,#350,#353,.T.);
#311=EDGE_CURVE('',#354,#352,#355,.T.);
#312=EDGE_CURVE('',#336,#354,#356,.T.);
#313=EDGE_CURVE('',#357,#354,#358,.T.);
#314=EDGE_CURVE('',#339,#357,#359,.T.);
#315=EDGE_CURVE('',#357,#360,#361,.T.);
#316=EDGE_CURVE('',#362,#360,#363,.T.);
#317=EDGE_CURVE('',#364,#362,#365,.T.);
#318=EDGE_CURVE('',#342,#364,#366,.T.);
#319=EDGE_CURVE('',#348,#364,#367,.T.);
#320=EDGE_CURVE('',#350,#362,#368,.T.);
#321=EDGE_CURVE('',#360,#352,#369,.T.);
#322=VERTEX_POINT('',#370);
#323=VERTEX_POINT('',#371);
#324=CIRCLE('',#372,5.);
#325=VERTEX_POINT('',#376);
#326=CIRCLE('',#377,5.);
#327=VERTEX_POINT('',#381);
#328=CIRCLE('',#382,5.);
#329=CIRCLE('',#386,5.);
#330=VERTEX_POINT('',#390);
#331=CIRCLE('',#391,5.);
#332=VERTEX_POINT('',#395);
#333=CIRCLE('',#396,3.);
#334=VERTEX_POINT('',#400);
#335=CIRCLE('',#401,3.);
#336=VERTEX_POINT('',#405);
#337=LINE('',#406,#407);
#338=LINE('',#409,#410);
#339=VERTEX_POINT('',#412);
#340=LINE('',#413,#414);
#341=LINE('',#416,#417);
#342=VERTEX_POINT('',#419);
#343=LINE('',#420,#421);
#344=LINE('',#423,#424);
#345=VERTEX_POINT('',#426);
#346=LINE('',#427,#428);
#347=LINE('',#430,#431);
#348=VERTEX_POINT('',#433);
#349=LINE('',#434,#435);
#350=VERTEX_POINT('',#437);
#351=LINE('',#438,#439);
#352=VERTEX_POINT('',#441);
#353=LINE('',#442,#443);
#354=VERTEX_POINT('',#445);
#355=LINE('',#446,#447);
#356=LINE('',#449,#450);
#357=VERTEX_POINT('',#452);
#358=LINE('',#453,#454);
#359=LINE('',#456,#457);
#360=VERTEX_POINT('',#459);
#361=LINE('',#460,#461);
#362=VERTEX_POINT('',#463);
#363=LINE('',#464,#465);
#364=VERTEX_POINT('',#467);
#365=LINE('',#468,#469);
#366=LINE('',#471,#472);
#367=LINE('',#474,#475);
#368=LINE('',#477,#478);
#369=LINE('',#480,#481);
#370=CARTESIAN_POINT('',(-8.34368004498708E-16,-5.,6.));
#371=CARTESIAN_POINT('',(5.,-9.87448854392127E-16,6.));
#372=AXIS2_PLACEMENT_3D('',#373,#374,#375);
#373=CARTESIAN_POINT('',(0.,0.,6.));
#374=DIRECTION('',(0.,0.,1.));
#375=DIRECTION('',(-1.83697019872103E-16,-1.,0.));
#376=CARTESIAN_POINT('',(-5.,1.03488844334317E-15,6.));
#377=AXIS2_PLACEMENT_3D('',#378,#379,#380);
#378=CARTESIAN_POINT('',(0.,0.,6.));
#379=DIRECTION('',(0.,0.,1.));
#380=DIRECTION('',(-1.,1.22464679914735E-16,0.));
#381=CARTESIAN_POINT('',(1.14052970428555E-15,5.,6.));
#382=AXIS2_PLACEMENT_3D('',#383,#384,#385);
#383=CARTESIAN_POINT('',(0.,0.,6.));
#384=DIRECTION('',(0.,0.,1.));
#385=DIRECTION('',(3.06161699786838E-16,1.,0.));
#386=AXIS2_PLACEMENT_3D('',#387,#388,#389);
#387=CARTESIAN_POINT('',(0.,0.,6.));
#388=DIRECTION('',(0.,0.,1.));
#389=DIRECTION('',(1.,-2.44929359829471E-16,0.));
#390=CARTESIAN_POINT('',(-5.,1.22464679914735E-15,-36.));
#391=AXIS2_PLACEMENT_3D('',#392,#393,#394);
#392=CARTESIAN_POINT('',(0.,0.,-36.));
#393=DIRECTION('',(0.,0.,1.));
#394=DIRECTION('',(-1.,1.22464679914735E-16,0.));
#395=CARTESIAN_POINT('',(-3.,7.34788079488412E-16,-30.));
#396=AXIS2_PLACEMENT_3D('',#397,#398,#399);
#397=CARTESIAN_POINT('',(0.,0.,-30.));
#398=DIRECTION('',(0.,0.,1.));
#399=DIRECTION('',(-1.,1.22464679914735E-16,0.));
#400=CARTESIAN_POINT('',(-3.,7.34788079488412E-16,-36.));
#401=AXIS2_PLACEMENT_3D('',#402,#403,#404);
#402=CARTESIAN_POINT('',(0.,0.,-36.));
#403=DIRECTION('',(0.,0.,1.));
#404=DIRECTION('',(-1.,1.22464679914735E-16,0.));
#405=CARTESIAN_POINT('',(-5.,-5.,6.));
#406=CARTESIAN_POINT('',(-5.,-5.,6.));
#407=VECTOR('',#408,1.);
#408=DIRECTION('',(1.,-1.77635683940025E-16,0.));
#409=CARTESIAN_POINT('',(-5.,7.50250909636901E-16,6.));
#410=VECTOR('',#411,1.);
#411=DIRECTION('',(-1.77635683940025E-16,-1.,0.));
#412=CARTESIAN_POINT('',(-5.,5.,6.));
#413=CARTESIAN_POINT('',(-5.,5.,6.));
#414=VECTOR('',#415,1.);
#415=DIRECTION('',(-1.77635683940025E-16,-1.,0.));
#416=CARTESIAN_POINT('',(7.50250909636901E-16,5.,6.));
#417=VECTOR('',#418,1.);
#418=DIRECTION('',(-1.,1.77635683940025E-16,0.));
#419=CARTESIAN_POINT('',(5.,5.,6.));
#420=CARTESIAN_POINT('',(5.,5.,6.));
#421=VECTOR('',#422,1.);
#422=DIRECTION('',(-1.,1.77635683940025E-16,0.));
#423=CARTESIAN_POINT('',(5.,-7.50250909636901E-16,6.));
#424=VECTOR('',#425,1.);
#425=DIRECTION('',(1.77635683940025E-16,1.,0.));
#426=CARTESIAN_POINT('',(5.,-5.,6.));
#427=CARTESIAN_POINT('',(5.,-5.,6.));
#428=VECTOR('',#429,1.);
#429=DIRECTION('',(1.77635683940025E-16,1.,0.));
#430=CARTESIAN_POINT('',(-7.50250909636901E-16,-5.,6.));
#431=VECTOR('',#432,1.);
#432=DIRECTION('',(1.,-1.77635683940025E-16,0.));
#433=CARTESIAN_POINT('',(5.,-5.,26.));
#434=CARTESIAN_POINT('',(5.,-5.,6.));
#435=VECTOR('',#436,1.);
#436=DIRECTION('',(0.,0.,1.));
#437=CARTESIAN_POINT('',(-205.,-4.99999999999996,26.));
#438=CARTESIAN_POINT('',(5.,-5.,26.));
#439=VECTOR('',#440,1.);
#440=DIRECTION('',(-1.,1.73406262893834E-16,0.));
#441=CARTESIAN_POINT('',(-205.,-4.99999999999996,16.));
#442=CARTESIAN_POINT('',(-205.,-4.99999999999996,16.));
#443=VECTOR('',#444,1.);
#444=DIRECTION('',(0.,-8.88178419700125E-17,1.));
#445=CARTESIAN_POINT('',(-5.,-5.,16.));
#446=CARTESIAN_POINT('',(-5.,-5.,16.));
#447=VECTOR('',#448,1.);
#448=DIRECTION('',(-1.,1.77635683940025E-16,0.));
#449=CARTESIAN_POINT('',(-5.,-5.,6.));
#450=VECTOR('',#451,1.);
#451=DIRECTION('',(0.,0.,1.));
#452=CARTESIAN_POINT('',(-5.,5.,16.));
#453=CARTESIAN_POINT('',(-5.,5.,16.));
#454=VECTOR('',#455,1.);
#455=DIRECTION('',(-1.77635683940025E-16,-1.,0.));
#456=CARTESIAN_POINT('',(-5.,5.,6.));
#457=VECTOR('',#458,1.);
#458=DIRECTION('',(0.,0.,1.));
#459=CARTESIAN_POINT('',(-205.,5.00000000000004,16.));
#460=CARTESIAN_POINT('',(-5.,5.,16.));
#461=VECTOR('',#462,1.);
#462=DIRECTION('',(-1.,1.77635683940025E-16,0.));
#463=CARTESIAN_POINT('',(-205.,5.00000000000004,26.));
#464=CARTESIAN_POINT('',(-205.,5.00000000000004,26.));
#465=VECTOR('',#466,1.);
#466=DIRECTION('',(0.,1.77635683940025E-16,-1.));
#467=CARTESIAN_POINT('',(5.,5.,26.));
#468=CARTESIAN_POINT('',(5.,5.,26.));
#469=VECTOR('',#470,1.);
#470=DIRECTION('',(-1.,1.73406262893834E-16,0.));
#471=CARTESIAN_POINT('',(5.,5.,6.));
#472=VECTOR('',#473,1.);
#473=DIRECTION('',(0.,0.,1.));
#474=CARTESIAN_POINT('',(5.,-5.,26.));
#475=VECTOR('',#476,1.);
#476=DIRECTION('',(1.77635683940025E-16,1.,0.));
#477=CARTESIAN_POINT('',(-205.,-4.99999999999996,26.));
#478=VECTOR('',#479,1.);
#479=DIRECTION('',(0.,1.,0.));
#480=CARTESIAN_POINT('',(-205.,5.00000000000004,16.));
#481=VECTOR('',#482,1.);
#482=DIRECTION('',(0.,-1.,0.));
ENDSEC;
END-ISO-10303-21;
