ISO-10303-21;
HEADER;
FILE_DESCRIPTION(('STEP AP214'),
    '1');
FILE_NAME('Front_Panel',
    '',
    ('UNSPECIFIED'),
    ('UNSPECIFIED'),
    'C3D Converter',
    'C3D Toolkit',
    '');
FILE_SCHEMA(('AUTOMOTIVE_DESIGN { 1 0 10303 214 3 1 1}'));
ENDSEC;

DATA;
#1=PRODUCT_DEFINITION('','UNSPECIFIED',#30,#33);
#2=SHAPE_DEFINITION_REPRESENTATION(#28,#3);
#3=SHAPE_REPRESENTATION('NONE',(#4),#8);
#4=AXIS2_PLACEMENT_3D('',#5,#6,#7);
#5=CARTESIAN_POINT('',(0.,0.,0.));
#6=DIRECTION('',(0.,0.,1.));
#7=DIRECTION('',(1.,0.,0.));
#8=(GEOMETRIC_REPRESENTATION_CONTEXT(3)GLOBAL_UNCERTAINTY_ASSIGNED_CONTEXT((#10))
GLOBAL_UNIT_ASSIGNED_CONTEXT((#9,#11,#12))REPRESENTATION_CONTEXT('NONE','NONE'));
#9=(LENGTH_UNIT()NAMED_UNIT(*)SI_UNIT(.MILLI.,.METRE.));
#10=UNCERTAINTY_MEASURE_WITH_UNIT(LENGTH_MEASURE(1.E-5),#9,'NONE','NONE');
#11=(NAMED_UNIT(*)PLANE_ANGLE_UNIT()SI_UNIT($,.RADIAN.));
#12=(NAMED_UNIT(*)SI_UNIT($,.STERADIAN.)SOLID_ANGLE_UNIT());
#13=MANIFOLD_SOLID_BREP('',#14);
#14=CLOSED_SHELL('',(#55,#56,#57,#58,#59,#60,#61,#62,#63,#64,#65,#66,#67,#68,#69,
#70,#71,#72,#73,#74,#75,#76,#77,#78,#79,#80,#81,#82,#83,#84));
#15=COLOUR_RGB('',0.847058823529412,0.847058823529412,0.847058823529412);
#16=FILL_AREA_STYLE_COLOUR('',#15);
#17=FILL_AREA_STYLE($,(#16));
#18=SURFACE_STYLE_FILL_AREA(#17);
#19=SURFACE_SIDE_STYLE('',(#18,#23));
#20=SURFACE_STYLE_USAGE(.BOTH.,#19);
#21=PRESENTATION_STYLE_ASSIGNMENT((#20));
#22=SURFACE_STYLE_TRANSPARENT(0.498000025749207);
#23=SURFACE_STYLE_RENDERING_WITH_PROPERTIES(.UNSPECIFIED.,$,(#22));
#24=MECHANICAL_DESIGN_GEOMETRIC_PRESENTATION_REPRESENTATION('NONE',(#25),#8);
#25=STYLED_ITEM('',(#21),#13);
#26=ADVANCED_BREP_SHAPE_REPRESENTATION('NONE',(#13),#8);
#27=SHAPE_REPRESENTATION_RELATIONSHIP('','',#3,#26);
#28=PRODUCT_DEFINITION_SHAPE('NONE','NONE',#1);
#29=MECHANICAL_CONTEXT('NONE',#34,'mechanical');
#30=PRODUCT_DEFINITION_FORMATION_WITH_SPECIFIED_SOURCE('ANY','UNSPECIFIED',#31,.NOT_KNOWN.);
#31=PRODUCT('','Front_Panel','NONE',(#29));
#32=PRODUCT_RELATED_PRODUCT_CATEGORY('detail','',(#31));
#33=DESIGN_CONTEXT('detailed design',#34,'design');
#34=APPLICATION_CONTEXT('configuration controlled 3d designs of mechanical parts and assemblies');
#35=APPLICATION_PROTOCOL_DEFINITION('international standard','config_control_design',
1994,#34);
#36=CC_DESIGN_DATE_AND_TIME_ASSIGNMENT(#37,#41,(#1));
#37=DATE_AND_TIME(#38,#39);
#38=CALENDAR_DATE(0,1,1);
#39=LOCAL_TIME(0,0,0.,#40);
#40=COORDINATED_UNIVERSAL_TIME_OFFSET(0,0,.AHEAD.);
#41=DATE_TIME_ROLE('creation_date');
#42=CC_DESIGN_APPROVAL(#43,(#1));
#43=APPROVAL(#44,'UNSPECIFIED');
#44=APPROVAL_STATUS('not_yet_approved');
#45=APPROVAL_DATE_TIME(#46,#43);
#46=DATE_AND_TIME(#47,#48);
#47=CALENDAR_DATE(0,1,1);
#48=LOCAL_TIME(0,0,0.,#49);
#49=COORDINATED_UNIVERSAL_TIME_OFFSET(0,0,.AHEAD.);
#50=PERSON('UNSPECIFIED','User','UNSPECIFIED',('UNSPECIFIED'),('UNSPECIFIED'),('UNSPECIFIED'));
#51=ORGANIZATION('UNSPECIFIED','UNSPECIFIED','UNSPECIFIED');
#52=PERSON_AND_ORGANIZATION(#50,#51);
#53=PERSON_AND_ORGANIZATION_ROLE('creator');
#54=CC_DESIGN_PERSON_AND_ORGANIZATION_ASSIGNMENT(#52,#53,(#30,#1));
#55=ADVANCED_FACE('',(#85,#87,#89,#91,#93,#95,#97,#99,#101),#103,.T.);
#56=ADVANCED_FACE('',(#108,#110),#112,.F.);
#57=ADVANCED_FACE('',(#117,#119),#121,.F.);
#58=ADVANCED_FACE('',(#126,#128),#130,.F.);
#59=ADVANCED_FACE('',(#135,#137),#139,.F.);
#60=ADVANCED_FACE('',(#144,#146),#148,.F.);
#61=ADVANCED_FACE('',(#153,#155),#157,.F.);
#62=ADVANCED_FACE('',(#162,#164),#166,.F.);
#63=ADVANCED_FACE('',(#171,#173),#175,.F.);
#64=ADVANCED_FACE('',(#180),#182,.T.);
#65=ADVANCED_FACE('',(#187),#189,.T.);
#66=ADVANCED_FACE('',(#194),#196,.T.);
#67=ADVANCED_FACE('',(#201),#203,.T.);
#68=ADVANCED_FACE('',(#208,#210,#212,#214,#216,#218,#220,#222,#224),#226,.F.);
#69=ADVANCED_FACE('',(#231,#233,#235,#237,#239,#241,#243,#245,#247),#249,.T.);
#70=ADVANCED_FACE('',(#254),#256,.F.);
#71=ADVANCED_FACE('',(#261),#263,.T.);
#72=ADVANCED_FACE('',(#268),#270,.T.);
#73=ADVANCED_FACE('',(#275,#277),#279,.F.);
#74=ADVANCED_FACE('',(#284,#286),#288,.F.);
#75=ADVANCED_FACE('',(#293,#295),#297,.F.);
#76=ADVANCED_FACE('',(#302,#304),#306,.F.);
#77=ADVANCED_FACE('',(#311,#313),#315,.F.);
#78=ADVANCED_FACE('',(#320,#322),#324,.F.);
#79=ADVANCED_FACE('',(#329,#331),#333,.F.);
#80=ADVANCED_FACE('',(#338,#340),#342,.F.);
#81=ADVANCED_FACE('',(#347),#349,.T.);
#82=ADVANCED_FACE('',(#354,#356,#358,#360,#362,#364,#366,#368,#370),#372,.F.);
#83=ADVANCED_FACE('',(#377),#379,.T.);
#84=ADVANCED_FACE('',(#384),#386,.T.);
#85=FACE_BOUND('',#86,.T.);
#86=EDGE_LOOP('',(#391,#392,#393,#394));
#87=FACE_BOUND('',#88,.T.);
#88=EDGE_LOOP('',(#395));
#89=FACE_BOUND('',#90,.T.);
#90=EDGE_LOOP('',(#396));
#91=FACE_BOUND('',#92,.T.);
#92=EDGE_LOOP('',(#397));
#93=FACE_BOUND('',#94,.T.);
#94=EDGE_LOOP('',(#398));
#95=FACE_BOUND('',#96,.T.);
#96=EDGE_LOOP('',(#399));
#97=FACE_BOUND('',#98,.T.);
#98=EDGE_LOOP('',(#400));
#99=FACE_BOUND('',#100,.T.);
#100=EDGE_LOOP('',(#401));
#101=FACE_BOUND('',#102,.T.);
#102=EDGE_LOOP('',(#402));
#103=PLANE('',#104);
#104=AXIS2_PLACEMENT_3D('',#105,#106,#107);
#105=CARTESIAN_POINT('',(247.470012201135,-89.0370310783805,574.279998891228));
#106=DIRECTION('',(0.940950620135955,-0.338543838321956,-6.9507150489834E-17));
#107=DIRECTION('',(0.338543838321956,0.940950620135955,2.87659673476724E-9));
#108=FACE_OUTER_BOUND('',#109,.T.);
#109=EDGE_LOOP('',(#403));
#110=FACE_OUTER_BOUND('',#111,.T.);
#111=EDGE_LOOP('',(#404));
#112=CYLINDRICAL_SURFACE('',#113,1.7);
#113=AXIS2_PLACEMENT_3D('',#114,#115,#116);
#114=CARTESIAN_POINT('',(242.954441603937,-92.7261513999671,421.41999991276));
#115=DIRECTION('',(0.940950620135955,-0.338543838321954,-6.9507150489834E-17));
#116=DIRECTION('',(-0.338543838321954,-0.940950620135956,-2.87659673476724E-9));
#117=FACE_OUTER_BOUND('',#118,.T.);
#118=EDGE_LOOP('',(#405));
#119=FACE_OUTER_BOUND('',#120,.T.);
#120=EDGE_LOOP('',(#406));
#121=CYLINDRICAL_SURFACE('',#122,1.7);
#122=AXIS2_PLACEMENT_3D('',#123,#124,#125);
#123=CARTESIAN_POINT('',(242.954441507389,-92.7261516683128,520.55999991276));
#124=DIRECTION('',(0.940950620135955,-0.338543838321954,-6.9507150489834E-17));
#125=DIRECTION('',(-0.338543838321954,-0.940950620135956,-2.87659673476724E-9));
#126=FACE_OUTER_BOUND('',#127,.T.);
#127=EDGE_LOOP('',(#407));
#128=FACE_OUTER_BOUND('',#129,.T.);
#129=EDGE_LOOP('',(#408));
#130=CYLINDRICAL_SURFACE('',#131,1.7);
#131=AXIS2_PLACEMENT_3D('',#132,#133,#134);
#132=CARTESIAN_POINT('',(242.954441410841,-92.7261519366586,619.69999991276));
#133=DIRECTION('',(0.940950620135955,-0.338543838321954,-6.9507150489834E-17));
#134=DIRECTION('',(-0.338543838321954,-0.940950620135956,-2.87659673476724E-9));
#135=FACE_OUTER_BOUND('',#136,.T.);
#136=EDGE_LOOP('',(#409));
#137=FACE_OUTER_BOUND('',#138,.T.);
#138=EDGE_LOOP('',(#410));
#139=CYLINDRICAL_SURFACE('',#140,1.7);
#140=AXIS2_PLACEMENT_3D('',#141,#142,#143);
#141=CARTESIAN_POINT('',(242.954441314293,-92.7261522050043,718.83999991276));
#142=DIRECTION('',(0.940950620135955,-0.338543838321954,-6.9507150489834E-17));
#143=DIRECTION('',(-0.338543838321954,-0.940950620135956,-2.87659673476724E-9));
#144=FACE_OUTER_BOUND('',#145,.T.);
#145=EDGE_LOOP('',(#411));
#146=FACE_OUTER_BOUND('',#147,.T.);
#147=EDGE_LOOP('',(#412));
#148=CYLINDRICAL_SURFACE('',#149,1.7);
#149=AXIS2_PLACEMENT_3D('',#150,#151,#152);
#150=CARTESIAN_POINT('',(242.954441217745,-92.7261524733501,817.97999991276));
#151=DIRECTION('',(0.940950620135955,-0.338543838321954,-6.9507150489834E-17));
#152=DIRECTION('',(-0.338543838321954,-0.940950620135956,-2.87659673476724E-9));
#153=FACE_OUTER_BOUND('',#154,.T.);
#154=EDGE_LOOP('',(#413));
#155=FACE_OUTER_BOUND('',#156,.T.);
#156=EDGE_LOOP('',(#414));
#157=CYLINDRICAL_SURFACE('',#158,1.7);
#158=AXIS2_PLACEMENT_3D('',#159,#160,#161);
#159=CARTESIAN_POINT('',(242.954441121197,-92.7261527416958,917.11999991276));
#160=DIRECTION('',(0.940950620135955,-0.338543838321954,-6.9507150489834E-17));
#161=DIRECTION('',(-0.338543838321954,-0.940950620135956,-2.87659673476724E-9));
#162=FACE_OUTER_BOUND('',#163,.T.);
#163=EDGE_LOOP('',(#415));
#164=FACE_OUTER_BOUND('',#165,.T.);
#165=EDGE_LOOP('',(#416));
#166=CYLINDRICAL_SURFACE('',#167,1.7);
#167=AXIS2_PLACEMENT_3D('',#168,#169,#170);
#168=CARTESIAN_POINT('',(242.954440386777,-92.7261547829479,996.259998822202));
#169=DIRECTION('',(0.940950620135955,-0.338543838321954,-6.9507150489834E-17));
#170=DIRECTION('',(-0.338543838321954,-0.940950620135956,-5.75320810217625E-9));
#171=FACE_OUTER_BOUND('',#172,.T.);
#172=EDGE_LOOP('',(#417));
#173=FACE_OUTER_BOUND('',#174,.T.);
#174=EDGE_LOOP('',(#418));
#175=CYLINDRICAL_SURFACE('',#176,1.7);
#176=AXIS2_PLACEMENT_3D('',#177,#178,#179);
#177=CARTESIAN_POINT('',(242.954441517205,-92.7261516410286,322.279999906335));
#178=DIRECTION('',(0.940950620135955,-0.338543838321954,-6.9507150489834E-17));
#179=DIRECTION('',(-0.338543838321954,-0.940950620135956,-4.1612580010215E-9));
#180=FACE_BOUND('',#181,.T.);
#181=EDGE_LOOP('',(#419,#420,#421,#422));
#182=PLANE('',#183);
#183=AXIS2_PLACEMENT_3D('',#184,#185,#186);
#184=CARTESIAN_POINT('',(240.624154354441,-99.2029646935598,314.579999191453));
#185=DIRECTION('',(9.73854208776501E-10,2.70673578409309E-9,-1.));
#186=DIRECTION('',(0.338543838321958,0.940950620135954,2.87659705639176E-9));
#187=FACE_BOUND('',#188,.T.);
#188=EDGE_LOOP('',(#423,#424,#425,#426));
#189=PLANE('',#190);
#190=AXIS2_PLACEMENT_3D('',#191,#192,#193);
#191=CARTESIAN_POINT('',(240.624153683086,-99.2029665595291,1003.95999919145));
#192=DIRECTION('',(-0.338543838321954,-0.940950620135955,-2.87659672420232E-9));
#193=DIRECTION('',(9.73854054476583E-10,2.70673548657253E-9,-1.));
#194=FACE_BOUND('',#195,.T.);
#195=EDGE_LOOP('',(#427,#428,#429,#430));
#196=PLANE('',#197);
#197=AXIS2_PLACEMENT_3D('',#198,#199,#200);
#198=CARTESIAN_POINT('',(244.630648495086,-88.0672926786823,1003.9599992255));
#199=DIRECTION('',(-9.73854208776501E-10,-2.70673578409309E-9,1.));
#200=DIRECTION('',(-0.338543838321958,-0.940950620135954,-2.87659705639176E-9));
#201=FACE_BOUND('',#202,.T.);
#202=EDGE_LOOP('',(#431,#432,#433,#434));
#203=PLANE('',#204);
#204=AXIS2_PLACEMENT_3D('',#205,#206,#207);
#205=CARTESIAN_POINT('',(247.453500355494,-89.0829241936481,1003.95999922549));
#206=DIRECTION('',(0.940950620135955,-0.338543838321956,-1.39378429680005E-14));
#207=DIRECTION('',(-0.338543838321956,-0.940950620135955,-2.87659812113739E-9));
#208=FACE_BOUND('',#209,.T.);
#209=EDGE_LOOP('',(#435,#436,#437,#438));
#210=FACE_BOUND('',#211,.T.);
#211=EDGE_LOOP('',(#439));
#212=FACE_BOUND('',#213,.T.);
#213=EDGE_LOOP('',(#440));
#214=FACE_BOUND('',#215,.T.);
#215=EDGE_LOOP('',(#441));
#216=FACE_BOUND('',#217,.T.);
#217=EDGE_LOOP('',(#442));
#218=FACE_BOUND('',#219,.T.);
#219=EDGE_LOOP('',(#443));
#220=FACE_BOUND('',#221,.T.);
#221=EDGE_LOOP('',(#444));
#222=FACE_BOUND('',#223,.T.);
#223=EDGE_LOOP('',(#445));
#224=FACE_BOUND('',#225,.T.);
#225=EDGE_LOOP('',(#446));
#226=PLANE('',#227);
#227=AXIS2_PLACEMENT_3D('',#228,#229,#230);
#228=CARTESIAN_POINT('',(244.647160340727,-88.0213995634146,574.279998891228));
#229=DIRECTION('',(0.940950620135955,-0.338543838321956,-6.9507150489834E-17));
#230=DIRECTION('',(0.338543838321956,0.940950620135955,2.87659673476724E-9));
#231=FACE_BOUND('',#232,.T.);
#232=EDGE_LOOP('',(#447,#448,#449,#450));
#233=FACE_BOUND('',#234,.T.);
#234=EDGE_LOOP('',(#451));
#235=FACE_BOUND('',#236,.T.);
#236=EDGE_LOOP('',(#452));
#237=FACE_BOUND('',#238,.T.);
#238=EDGE_LOOP('',(#453));
#239=FACE_BOUND('',#240,.T.);
#240=EDGE_LOOP('',(#454));
#241=FACE_BOUND('',#242,.T.);
#242=EDGE_LOOP('',(#455));
#243=FACE_BOUND('',#244,.T.);
#244=EDGE_LOOP('',(#456));
#245=FACE_BOUND('',#246,.T.);
#246=EDGE_LOOP('',(#457));
#247=FACE_BOUND('',#248,.T.);
#248=EDGE_LOOP('',(#458));
#249=PLANE('',#250);
#250=AXIS2_PLACEMENT_3D('',#251,#252,#253);
#251=CARTESIAN_POINT('',(247.47001220113,-89.0370310783779,574.279998891224));
#252=DIRECTION('',(0.940950620135955,-0.338543838321956,-1.39378429683107E-14));
#253=DIRECTION('',(0.338543838321956,0.940950620135955,2.87659813144438E-9));
#254=FACE_BOUND('',#255,.T.);
#255=EDGE_LOOP('',(#459,#460,#461,#462));
#256=PLANE('',#257);
#257=AXIS2_PLACEMENT_3D('',#258,#259,#260);
#258=CARTESIAN_POINT('',(244.630649166442,-88.0672908127129,314.579999225492));
#259=DIRECTION('',(0.940950620135955,-0.338543838321956,-1.39378429680005E-14));
#260=DIRECTION('',(0.338543838321956,0.940950620135955,2.87659812113739E-9));
#261=FACE_BOUND('',#262,.T.);
#262=EDGE_LOOP('',(#463,#464,#465,#466));
#263=PLANE('',#264);
#264=AXIS2_PLACEMENT_3D('',#265,#266,#267);
#265=CARTESIAN_POINT('',(260.885845566379,-42.8875078670955,314.579999363612));
#266=DIRECTION('',(9.73841043503504E-10,2.70674015712802E-9,-1.));
#267=DIRECTION('',(0.338543838321959,0.940950620135954,2.87659671417963E-9));
#268=FACE_BOUND('',#269,.T.);
#269=EDGE_LOOP('',(#467,#468,#469,#470));
#270=PLANE('',#271);
#271=AXIS2_PLACEMENT_3D('',#272,#273,#274);
#272=CARTESIAN_POINT('',(264.271283278252,-33.4780035317094,1003.95999939238));
#273=DIRECTION('',(-9.73841043503522E-10,-2.70674015712801E-9,1.));
#274=DIRECTION('',(-0.338543838321959,-0.940950620135954,-2.87659671417963E-9));
#275=FACE_OUTER_BOUND('',#276,.T.);
#276=EDGE_LOOP('',(#471));
#277=FACE_OUTER_BOUND('',#278,.T.);
#278=EDGE_LOOP('',(#472));
#279=CYLINDRICAL_SURFACE('',#280,1.7);
#280=AXIS2_PLACEMENT_3D('',#281,#282,#283);
#281=CARTESIAN_POINT('',(262.594797671928,-38.1376369154692,421.419999959063));
#282=DIRECTION('',(0.940950620135954,-0.338543838321957,-1.39378429646918E-14));
#283=DIRECTION('',(-0.338543838321957,-0.940950620135954,-6.10309746059426E-9));
#284=FACE_OUTER_BOUND('',#285,.T.);
#285=EDGE_LOOP('',(#473));
#286=FACE_OUTER_BOUND('',#287,.T.);
#287=EDGE_LOOP('',(#474));
#288=CYLINDRICAL_SURFACE('',#289,1.7);
#289=AXIS2_PLACEMENT_3D('',#290,#291,#292);
#290=CARTESIAN_POINT('',(262.59479746709,-38.137637484802,520.559999959063));
#291=DIRECTION('',(0.940950620135954,-0.338543838321957,-1.39378429646918E-14));
#292=DIRECTION('',(-0.338543838321957,-0.940950620135954,-6.10309746059426E-9));
#293=FACE_OUTER_BOUND('',#294,.T.);
#294=EDGE_LOOP('',(#475));
#295=FACE_OUTER_BOUND('',#296,.T.);
#296=EDGE_LOOP('',(#476));
#297=CYLINDRICAL_SURFACE('',#298,1.7);
#298=AXIS2_PLACEMENT_3D('',#299,#300,#301);
#299=CARTESIAN_POINT('',(262.594797262252,-38.1376380541348,619.699999959064));
#300=DIRECTION('',(0.940950620135954,-0.338543838321957,-1.39378429646918E-14));
#301=DIRECTION('',(-0.338543838321957,-0.940950620135954,-6.10309746059426E-9));
#302=FACE_OUTER_BOUND('',#303,.T.);
#303=EDGE_LOOP('',(#477));
#304=FACE_OUTER_BOUND('',#305,.T.);
#305=EDGE_LOOP('',(#478));
#306=CYLINDRICAL_SURFACE('',#307,1.7);
#307=AXIS2_PLACEMENT_3D('',#308,#309,#310);
#308=CARTESIAN_POINT('',(262.594797057413,-38.1376386234675,718.839999959063));
#309=DIRECTION('',(0.940950620135954,-0.338543838321957,-1.39378429646918E-14));
#310=DIRECTION('',(-0.338543838321957,-0.940950620135954,-6.10309746059426E-9));
#311=FACE_OUTER_BOUND('',#312,.T.);
#312=EDGE_LOOP('',(#479));
#313=FACE_OUTER_BOUND('',#314,.T.);
#314=EDGE_LOOP('',(#480));
#315=CYLINDRICAL_SURFACE('',#316,1.7);
#316=AXIS2_PLACEMENT_3D('',#317,#318,#319);
#317=CARTESIAN_POINT('',(262.594796852575,-38.1376391928003,817.979999959064));
#318=DIRECTION('',(0.940950620135954,-0.338543838321957,-1.39378429646918E-14));
#319=DIRECTION('',(-0.338543838321957,-0.940950620135954,-6.10309746059426E-9));
#320=FACE_OUTER_BOUND('',#321,.T.);
#321=EDGE_LOOP('',(#481));
#322=FACE_OUTER_BOUND('',#323,.T.);
#323=EDGE_LOOP('',(#482));
#324=CYLINDRICAL_SURFACE('',#325,1.7);
#325=AXIS2_PLACEMENT_3D('',#326,#327,#328);
#326=CARTESIAN_POINT('',(262.594796647737,-38.1376397621332,917.119999959064));
#327=DIRECTION('',(0.940950620135954,-0.338543838321957,-1.39378429646918E-14));
#328=DIRECTION('',(-0.338543838321957,-0.940950620135954,-6.10309746059426E-9));
#329=FACE_OUTER_BOUND('',#330,.T.);
#330=EDGE_LOOP('',(#483));
#331=FACE_OUTER_BOUND('',#332,.T.);
#332=EDGE_LOOP('',(#484));
#333=CYLINDRICAL_SURFACE('',#334,1.7);
#334=AXIS2_PLACEMENT_3D('',#335,#336,#337);
#335=CARTESIAN_POINT('',(262.596968592177,-38.1316030477253,996.259998778601));
#336=DIRECTION('',(0.940950620135954,-0.338543838321957,-1.39378429646918E-14));
#337=DIRECTION('',(-0.338543838321957,-0.940950620135954,-8.56976746610121E-9));
#338=FACE_OUTER_BOUND('',#339,.T.);
#339=EDGE_LOOP('',(#485));
#340=FACE_OUTER_BOUND('',#341,.T.);
#341=EDGE_LOOP('',(#486));
#342=CYLINDRICAL_SURFACE('',#343,1.7);
#343=AXIS2_PLACEMENT_3D('',#344,#345,#346);
#344=CARTESIAN_POINT('',(262.594797740646,-38.137636724471,322.279999351322));
#345=DIRECTION('',(0.940950620135954,-0.338543838321957,-1.39378429646918E-14));
#346=DIRECTION('',(-0.338543838321957,-0.940950620135954,-9.47565093891122E-9));
#347=FACE_BOUND('',#348,.T.);
#348=EDGE_LOOP('',(#487,#488,#489,#490));
#349=PLANE('',#350);
#350=AXIS2_PLACEMENT_3D('',#351,#352,#353);
#351=CARTESIAN_POINT('',(264.271283949599,-33.4780016657359,314.579999392378));
#352=DIRECTION('',(0.33854383832196,0.940950620135953,2.87659814027618E-9));
#353=DIRECTION('',(-9.73841477893832E-10,-2.70674151643035E-9,1.));
#354=FACE_BOUND('',#355,.T.);
#355=EDGE_LOOP('',(#491,#492,#493,#494));
#356=FACE_BOUND('',#357,.T.);
#357=EDGE_LOOP('',(#495));
#358=FACE_BOUND('',#359,.T.);
#359=EDGE_LOOP('',(#496));
#360=FACE_BOUND('',#361,.T.);
#361=EDGE_LOOP('',(#497));
#362=FACE_BOUND('',#363,.T.);
#363=EDGE_LOOP('',(#498));
#364=FACE_BOUND('',#365,.T.);
#365=EDGE_LOOP('',(#499));
#366=FACE_BOUND('',#367,.T.);
#367=EDGE_LOOP('',(#500));
#368=FACE_BOUND('',#369,.T.);
#369=EDGE_LOOP('',(#501));
#370=FACE_BOUND('',#371,.T.);
#371=EDGE_LOOP('',(#502));
#372=PLANE('',#373);
#373=AXIS2_PLACEMENT_3D('',#374,#375,#376);
#374=CARTESIAN_POINT('',(244.647160340722,-88.0213995634121,574.279998891224));
#375=DIRECTION('',(0.940950620135955,-0.338543838321956,-1.39378429683107E-14));
#376=DIRECTION('',(0.338543838321956,0.940950620135955,2.87659813144438E-9));
#377=FACE_BOUND('',#378,.T.);
#378=EDGE_LOOP('',(#503,#504,#505,#506));
#379=PLANE('',#380);
#380=AXIS2_PLACEMENT_3D('',#381,#382,#383);
#381=CARTESIAN_POINT('',(244.630649166442,-88.0672908127129,314.579999225496));
#382=DIRECTION('',(9.7385443082249E-10,2.70673640124894E-9,-1.));
#383=DIRECTION('',(0.338543838321955,0.940950620135955,2.87659771227725E-9));
#384=FACE_BOUND('',#385,.T.);
#385=EDGE_LOOP('',(#507,#508,#509,#510));
#386=PLANE('',#387);
#387=AXIS2_PLACEMENT_3D('',#388,#389,#390);
#388=CARTESIAN_POINT('',(260.885844895032,-42.8875097330689,1003.95999936362));
#389=DIRECTION('',(-9.7385443082249E-10,-2.70673640124895E-9,1.));
#390=DIRECTION('',(-0.338543838321955,-0.940950620135955,-2.87659771227725E-9));
#391=ORIENTED_EDGE('',*,*,#511,.T.);
#392=ORIENTED_EDGE('',*,*,#512,.T.);
#393=ORIENTED_EDGE('',*,*,#513,.T.);
#394=ORIENTED_EDGE('',*,*,#514,.T.);
#395=ORIENTED_EDGE('',*,*,#515,.T.);
#396=ORIENTED_EDGE('',*,*,#516,.T.);
#397=ORIENTED_EDGE('',*,*,#517,.T.);
#398=ORIENTED_EDGE('',*,*,#518,.T.);
#399=ORIENTED_EDGE('',*,*,#519,.T.);
#400=ORIENTED_EDGE('',*,*,#520,.T.);
#401=ORIENTED_EDGE('',*,*,#521,.T.);
#402=ORIENTED_EDGE('',*,*,#522,.T.);
#403=ORIENTED_EDGE('',*,*,#522,.F.);
#404=ORIENTED_EDGE('',*,*,#523,.F.);
#405=ORIENTED_EDGE('',*,*,#521,.F.);
#406=ORIENTED_EDGE('',*,*,#524,.F.);
#407=ORIENTED_EDGE('',*,*,#520,.F.);
#408=ORIENTED_EDGE('',*,*,#525,.F.);
#409=ORIENTED_EDGE('',*,*,#519,.F.);
#410=ORIENTED_EDGE('',*,*,#526,.F.);
#411=ORIENTED_EDGE('',*,*,#518,.F.);
#412=ORIENTED_EDGE('',*,*,#527,.F.);
#413=ORIENTED_EDGE('',*,*,#517,.F.);
#414=ORIENTED_EDGE('',*,*,#528,.F.);
#415=ORIENTED_EDGE('',*,*,#516,.F.);
#416=ORIENTED_EDGE('',*,*,#529,.F.);
#417=ORIENTED_EDGE('',*,*,#515,.F.);
#418=ORIENTED_EDGE('',*,*,#530,.F.);
#419=ORIENTED_EDGE('',*,*,#531,.T.);
#420=ORIENTED_EDGE('',*,*,#532,.T.);
#421=ORIENTED_EDGE('',*,*,#514,.F.);
#422=ORIENTED_EDGE('',*,*,#533,.F.);
#423=ORIENTED_EDGE('',*,*,#534,.T.);
#424=ORIENTED_EDGE('',*,*,#533,.T.);
#425=ORIENTED_EDGE('',*,*,#513,.F.);
#426=ORIENTED_EDGE('',*,*,#535,.F.);
#427=ORIENTED_EDGE('',*,*,#536,.T.);
#428=ORIENTED_EDGE('',*,*,#535,.T.);
#429=ORIENTED_EDGE('',*,*,#512,.F.);
#430=ORIENTED_EDGE('',*,*,#537,.T.);
#431=ORIENTED_EDGE('',*,*,#538,.F.);
#432=ORIENTED_EDGE('',*,*,#539,.T.);
#433=ORIENTED_EDGE('',*,*,#511,.F.);
#434=ORIENTED_EDGE('',*,*,#540,.T.);
#435=ORIENTED_EDGE('',*,*,#531,.F.);
#436=ORIENTED_EDGE('',*,*,#534,.F.);
#437=ORIENTED_EDGE('',*,*,#536,.F.);
#438=ORIENTED_EDGE('',*,*,#541,.T.);
#439=ORIENTED_EDGE('',*,*,#530,.T.);
#440=ORIENTED_EDGE('',*,*,#529,.T.);
#441=ORIENTED_EDGE('',*,*,#528,.T.);
#442=ORIENTED_EDGE('',*,*,#527,.T.);
#443=ORIENTED_EDGE('',*,*,#526,.T.);
#444=ORIENTED_EDGE('',*,*,#525,.T.);
#445=ORIENTED_EDGE('',*,*,#524,.T.);
#446=ORIENTED_EDGE('',*,*,#523,.T.);
#447=ORIENTED_EDGE('',*,*,#538,.T.);
#448=ORIENTED_EDGE('',*,*,#542,.T.);
#449=ORIENTED_EDGE('',*,*,#543,.T.);
#450=ORIENTED_EDGE('',*,*,#544,.T.);
#451=ORIENTED_EDGE('',*,*,#545,.T.);
#452=ORIENTED_EDGE('',*,*,#546,.T.);
#453=ORIENTED_EDGE('',*,*,#547,.T.);
#454=ORIENTED_EDGE('',*,*,#548,.T.);
#455=ORIENTED_EDGE('',*,*,#549,.T.);
#456=ORIENTED_EDGE('',*,*,#550,.T.);
#457=ORIENTED_EDGE('',*,*,#551,.T.);
#458=ORIENTED_EDGE('',*,*,#552,.T.);
#459=ORIENTED_EDGE('',*,*,#553,.T.);
#460=ORIENTED_EDGE('',*,*,#554,.F.);
#461=ORIENTED_EDGE('',*,*,#541,.F.);
#462=ORIENTED_EDGE('',*,*,#555,.F.);
#463=ORIENTED_EDGE('',*,*,#556,.T.);
#464=ORIENTED_EDGE('',*,*,#557,.T.);
#465=ORIENTED_EDGE('',*,*,#542,.F.);
#466=ORIENTED_EDGE('',*,*,#558,.F.);
#467=ORIENTED_EDGE('',*,*,#559,.T.);
#468=ORIENTED_EDGE('',*,*,#560,.T.);
#469=ORIENTED_EDGE('',*,*,#544,.F.);
#470=ORIENTED_EDGE('',*,*,#561,.F.);
#471=ORIENTED_EDGE('',*,*,#552,.F.);
#472=ORIENTED_EDGE('',*,*,#562,.F.);
#473=ORIENTED_EDGE('',*,*,#551,.F.);
#474=ORIENTED_EDGE('',*,*,#563,.F.);
#475=ORIENTED_EDGE('',*,*,#550,.F.);
#476=ORIENTED_EDGE('',*,*,#564,.F.);
#477=ORIENTED_EDGE('',*,*,#549,.F.);
#478=ORIENTED_EDGE('',*,*,#565,.F.);
#479=ORIENTED_EDGE('',*,*,#548,.F.);
#480=ORIENTED_EDGE('',*,*,#566,.F.);
#481=ORIENTED_EDGE('',*,*,#547,.F.);
#482=ORIENTED_EDGE('',*,*,#567,.F.);
#483=ORIENTED_EDGE('',*,*,#546,.F.);
#484=ORIENTED_EDGE('',*,*,#568,.F.);
#485=ORIENTED_EDGE('',*,*,#545,.F.);
#486=ORIENTED_EDGE('',*,*,#569,.F.);
#487=ORIENTED_EDGE('',*,*,#570,.T.);
#488=ORIENTED_EDGE('',*,*,#561,.T.);
#489=ORIENTED_EDGE('',*,*,#543,.F.);
#490=ORIENTED_EDGE('',*,*,#557,.F.);
#491=ORIENTED_EDGE('',*,*,#553,.F.);
#492=ORIENTED_EDGE('',*,*,#559,.F.);
#493=ORIENTED_EDGE('',*,*,#570,.F.);
#494=ORIENTED_EDGE('',*,*,#556,.F.);
#495=ORIENTED_EDGE('',*,*,#569,.T.);
#496=ORIENTED_EDGE('',*,*,#568,.T.);
#497=ORIENTED_EDGE('',*,*,#567,.T.);
#498=ORIENTED_EDGE('',*,*,#566,.T.);
#499=ORIENTED_EDGE('',*,*,#565,.T.);
#500=ORIENTED_EDGE('',*,*,#564,.T.);
#501=ORIENTED_EDGE('',*,*,#563,.T.);
#502=ORIENTED_EDGE('',*,*,#562,.T.);
#503=ORIENTED_EDGE('',*,*,#554,.T.);
#504=ORIENTED_EDGE('',*,*,#558,.T.);
#505=ORIENTED_EDGE('',*,*,#540,.F.);
#506=ORIENTED_EDGE('',*,*,#532,.F.);
#507=ORIENTED_EDGE('',*,*,#555,.T.);
#508=ORIENTED_EDGE('',*,*,#537,.F.);
#509=ORIENTED_EDGE('',*,*,#539,.F.);
#510=ORIENTED_EDGE('',*,*,#560,.F.);
#511=EDGE_CURVE('',#571,#572,#573,.T.);
#512=EDGE_CURVE('',#572,#574,#575,.T.);
#513=EDGE_CURVE('',#574,#576,#577,.T.);
#514=EDGE_CURVE('',#576,#571,#578,.T.);
#515=EDGE_CURVE('',#579,#579,#580,.F.);
#516=EDGE_CURVE('',#581,#581,#582,.F.);
#517=EDGE_CURVE('',#583,#583,#584,.F.);
#518=EDGE_CURVE('',#585,#585,#586,.F.);
#519=EDGE_CURVE('',#587,#587,#588,.F.);
#520=EDGE_CURVE('',#589,#589,#590,.F.);
#521=EDGE_CURVE('',#591,#591,#592,.F.);
#522=EDGE_CURVE('',#593,#593,#594,.F.);
#523=EDGE_CURVE('',#595,#595,#596,.T.);
#524=EDGE_CURVE('',#597,#597,#598,.T.);
#525=EDGE_CURVE('',#599,#599,#600,.T.);
#526=EDGE_CURVE('',#601,#601,#602,.T.);
#527=EDGE_CURVE('',#603,#603,#604,.T.);
#528=EDGE_CURVE('',#605,#605,#606,.T.);
#529=EDGE_CURVE('',#607,#607,#608,.T.);
#530=EDGE_CURVE('',#609,#609,#610,.T.);
#531=EDGE_CURVE('',#611,#612,#613,.T.);
#532=EDGE_CURVE('',#612,#571,#614,.T.);
#533=EDGE_CURVE('',#611,#576,#615,.T.);
#534=EDGE_CURVE('',#616,#611,#617,.T.);
#535=EDGE_CURVE('',#616,#574,#618,.T.);
#536=EDGE_CURVE('',#619,#616,#620,.T.);
#537=EDGE_CURVE('',#572,#619,#621,.T.);
#538=EDGE_CURVE('',#622,#623,#624,.T.);
#539=EDGE_CURVE('',#622,#572,#625,.T.);
#540=EDGE_CURVE('',#571,#623,#626,.T.);
#541=EDGE_CURVE('',#619,#612,#627,.T.);
#542=EDGE_CURVE('',#623,#628,#629,.T.);
#543=EDGE_CURVE('',#628,#630,#631,.T.);
#544=EDGE_CURVE('',#630,#622,#632,.T.);
#545=EDGE_CURVE('',#633,#633,#634,.F.);
#546=EDGE_CURVE('',#635,#635,#636,.F.);
#547=EDGE_CURVE('',#637,#637,#638,.F.);
#548=EDGE_CURVE('',#639,#639,#640,.F.);
#549=EDGE_CURVE('',#641,#641,#642,.F.);
#550=EDGE_CURVE('',#643,#643,#644,.F.);
#551=EDGE_CURVE('',#645,#645,#646,.F.);
#552=EDGE_CURVE('',#647,#647,#648,.F.);
#553=EDGE_CURVE('',#649,#650,#651,.T.);
#554=EDGE_CURVE('',#612,#650,#652,.T.);
#555=EDGE_CURVE('',#649,#619,#653,.T.);
#556=EDGE_CURVE('',#650,#654,#655,.T.);
#557=EDGE_CURVE('',#654,#628,#656,.T.);
#558=EDGE_CURVE('',#650,#623,#657,.T.);
#559=EDGE_CURVE('',#658,#649,#659,.T.);
#560=EDGE_CURVE('',#649,#622,#660,.T.);
#561=EDGE_CURVE('',#658,#630,#661,.T.);
#562=EDGE_CURVE('',#662,#662,#663,.T.);
#563=EDGE_CURVE('',#664,#664,#665,.T.);
#564=EDGE_CURVE('',#666,#666,#667,.T.);
#565=EDGE_CURVE('',#668,#668,#669,.T.);
#566=EDGE_CURVE('',#670,#670,#671,.T.);
#567=EDGE_CURVE('',#672,#672,#673,.T.);
#568=EDGE_CURVE('',#674,#674,#675,.T.);
#569=EDGE_CURVE('',#676,#676,#677,.T.);
#570=EDGE_CURVE('',#654,#658,#678,.T.);
#571=VERTEX_POINT('',#679);
#572=VERTEX_POINT('',#680);
#573=LINE('',#681,#682);
#574=VERTEX_POINT('',#684);
#575=LINE('',#685,#686);
#576=VERTEX_POINT('',#688);
#577=LINE('',#689,#690);
#578=LINE('',#692,#693);
#579=VERTEX_POINT('',#695);
#580=CIRCLE('',#696,1.7);
#581=VERTEX_POINT('',#700);
#582=CIRCLE('',#701,1.7);
#583=VERTEX_POINT('',#705);
#584=CIRCLE('',#706,1.7);
#585=VERTEX_POINT('',#710);
#586=CIRCLE('',#711,1.7);
#587=VERTEX_POINT('',#715);
#588=CIRCLE('',#716,1.7);
#589=VERTEX_POINT('',#720);
#590=CIRCLE('',#721,1.7);
#591=VERTEX_POINT('',#725);
#592=CIRCLE('',#726,1.7);
#593=VERTEX_POINT('',#730);
#594=CIRCLE('',#731,1.7);
#595=VERTEX_POINT('',#735);
#596=CIRCLE('',#736,1.7);
#597=VERTEX_POINT('',#740);
#598=CIRCLE('',#741,1.7);
#599=VERTEX_POINT('',#745);
#600=CIRCLE('',#746,1.7);
#601=VERTEX_POINT('',#750);
#602=CIRCLE('',#751,1.7);
#603=VERTEX_POINT('',#755);
#604=CIRCLE('',#756,1.7);
#605=VERTEX_POINT('',#760);
#606=CIRCLE('',#761,1.7);
#607=VERTEX_POINT('',#765);
#608=CIRCLE('',#766,1.7);
#609=VERTEX_POINT('',#770);
#610=CIRCLE('',#771,1.7);
#611=VERTEX_POINT('',#775);
#612=VERTEX_POINT('',#776);
#613=LINE('',#777,#778);
#614=LINE('',#780,#781);
#615=LINE('',#783,#784);
#616=VERTEX_POINT('',#786);
#617=LINE('',#787,#788);
#618=LINE('',#790,#791);
#619=VERTEX_POINT('',#793);
#620=LINE('',#794,#795);
#621=LINE('',#797,#798);
#622=VERTEX_POINT('',#800);
#623=VERTEX_POINT('',#801);
#624=LINE('',#802,#803);
#625=LINE('',#805,#806);
#626=LINE('',#808,#809);
#627=LINE('',#811,#812);
#628=VERTEX_POINT('',#814);
#629=LINE('',#815,#816);
#630=VERTEX_POINT('',#818);
#631=LINE('',#819,#820);
#632=LINE('',#822,#823);
#633=VERTEX_POINT('',#825);
#634=CIRCLE('',#826,1.7);
#635=VERTEX_POINT('',#830);
#636=CIRCLE('',#831,1.7);
#637=VERTEX_POINT('',#835);
#638=CIRCLE('',#836,1.7);
#639=VERTEX_POINT('',#840);
#640=CIRCLE('',#841,1.7);
#641=VERTEX_POINT('',#845);
#642=CIRCLE('',#846,1.7);
#643=VERTEX_POINT('',#850);
#644=CIRCLE('',#851,1.7);
#645=VERTEX_POINT('',#855);
#646=CIRCLE('',#856,1.7);
#647=VERTEX_POINT('',#860);
#648=CIRCLE('',#861,1.7);
#649=VERTEX_POINT('',#865);
#650=VERTEX_POINT('',#866);
#651=LINE('',#867,#868);
#652=LINE('',#870,#871);
#653=LINE('',#873,#874);
#654=VERTEX_POINT('',#876);
#655=LINE('',#877,#878);
#656=LINE('',#880,#881);
#657=LINE('',#883,#884);
#658=VERTEX_POINT('',#886);
#659=LINE('',#887,#888);
#660=LINE('',#890,#891);
#661=LINE('',#893,#894);
#662=VERTEX_POINT('',#896);
#663=CIRCLE('',#897,1.7);
#664=VERTEX_POINT('',#901);
#665=CIRCLE('',#902,1.7);
#666=VERTEX_POINT('',#906);
#667=CIRCLE('',#907,1.7);
#668=VERTEX_POINT('',#911);
#669=CIRCLE('',#912,1.7);
#670=VERTEX_POINT('',#916);
#671=CIRCLE('',#917,1.7);
#672=VERTEX_POINT('',#921);
#673=CIRCLE('',#922,1.7);
#674=VERTEX_POINT('',#926);
#675=CIRCLE('',#927,1.7);
#676=VERTEX_POINT('',#931);
#677=CIRCLE('',#932,1.7);
#678=LINE('',#936,#937);
#679=CARTESIAN_POINT('',(247.45350102685,-89.0829223276788,314.579999225496));
#680=CARTESIAN_POINT('',(247.453500355494,-89.0829241936481,1003.9599992255));
#681=CARTESIAN_POINT('',(247.453501026845,-89.0829223276767,314.579999225494));
#682=VECTOR('',#683,1.);
#683=DIRECTION('',(-9.73847746603504E-10,-2.70673849621132E-9,1.));
#684=CARTESIAN_POINT('',(243.447005543494,-100.218598074495,1003.95999919145));
#685=CARTESIAN_POINT('',(247.453500355494,-89.0829241936481,1003.9599992255));
#686=VECTOR('',#687,1.);
#687=DIRECTION('',(-0.338543838321958,-0.940950620135954,-2.87659705639176E-9));
#688=CARTESIAN_POINT('',(243.447006214849,-100.218596208526,314.579999191453));
#689=CARTESIAN_POINT('',(243.447005543494,-100.218598074495,1003.95999919145));
#690=VECTOR('',#691,1.);
#691=DIRECTION('',(9.73854054476583E-10,2.70673548657253E-9,-1.));
#692=CARTESIAN_POINT('',(243.447006214849,-100.218596208526,314.579999191453));
#693=VECTOR('',#694,1.);
#694=DIRECTION('',(0.338543838321958,0.940950620135954,2.87659705639176E-9));
#695=CARTESIAN_POINT('',(245.201768852466,-95.3413992102256,322.279999899261));
#696=AXIS2_PLACEMENT_3D('',#697,#698,#699);
#697=CARTESIAN_POINT('',(245.777293377613,-93.7417831559945,322.279999906335));
#698=DIRECTION('',(0.940950620135955,-0.338543838321956,-6.9507150489834E-17));
#699=DIRECTION('',(-0.338543838321956,-0.940950620135955,-4.1612580010215E-9));
#700=CARTESIAN_POINT('',(245.201767722037,-95.3414023521449,996.259998812421));
#701=AXIS2_PLACEMENT_3D('',#702,#703,#704);
#702=CARTESIAN_POINT('',(245.777292247185,-93.7417862979138,996.259998822202));
#703=DIRECTION('',(0.940950620135955,-0.338543838321956,-6.9507150489834E-17));
#704=DIRECTION('',(-0.338543838321956,-0.940950620135955,-5.75320810217625E-9));
#705=CARTESIAN_POINT('',(245.201768456458,-95.3414003108928,917.11999990787));
#706=AXIS2_PLACEMENT_3D('',#707,#708,#709);
#707=CARTESIAN_POINT('',(245.777292981605,-93.7417842566617,917.11999991276));
#708=DIRECTION('',(0.940950620135955,-0.338543838321956,-6.9507150489834E-17));
#709=DIRECTION('',(-0.338543838321956,-0.940950620135955,-2.87659673476724E-9));
#710=CARTESIAN_POINT('',(245.201768553006,-95.341400042547,817.97999990787));
#711=AXIS2_PLACEMENT_3D('',#712,#713,#714);
#712=CARTESIAN_POINT('',(245.777293078153,-93.7417839883159,817.97999991276));
#713=DIRECTION('',(0.940950620135955,-0.338543838321956,-6.9507150489834E-17));
#714=DIRECTION('',(-0.338543838321956,-0.940950620135955,-2.87659673476724E-9));
#715=CARTESIAN_POINT('',(245.201768649554,-95.3413997742013,718.83999990787));
#716=AXIS2_PLACEMENT_3D('',#717,#718,#719);
#717=CARTESIAN_POINT('',(245.777293174701,-93.7417837199702,718.83999991276));
#718=DIRECTION('',(0.940950620135955,-0.338543838321956,-6.9507150489834E-17));
#719=DIRECTION('',(-0.338543838321956,-0.940950620135955,-2.87659673476724E-9));
#720=CARTESIAN_POINT('',(245.201768746101,-95.3413995058555,619.69999990787));
#721=AXIS2_PLACEMENT_3D('',#722,#723,#724);
#722=CARTESIAN_POINT('',(245.777293271249,-93.7417834516244,619.69999991276));
#723=DIRECTION('',(0.940950620135955,-0.338543838321956,-6.9507150489834E-17));
#724=DIRECTION('',(-0.338543838321956,-0.940950620135955,-2.87659673476724E-9));
#725=CARTESIAN_POINT('',(245.201768842649,-95.3413992375098,520.55999990787));
#726=AXIS2_PLACEMENT_3D('',#727,#728,#729);
#727=CARTESIAN_POINT('',(245.777293367797,-93.7417831832787,520.55999991276));
#728=DIRECTION('',(0.940950620135955,-0.338543838321956,-6.9507150489834E-17));
#729=DIRECTION('',(-0.338543838321956,-0.940950620135955,-2.87659673476724E-9));
#730=CARTESIAN_POINT('',(245.201768939197,-95.3413989691641,421.41999990787));
#731=AXIS2_PLACEMENT_3D('',#732,#733,#734);
#732=CARTESIAN_POINT('',(245.777293464344,-93.7417829149329,421.41999991276));
#733=DIRECTION('',(0.940950620135955,-0.338543838321956,-6.9507150489834E-17));
#734=DIRECTION('',(-0.338543838321956,-0.940950620135955,-2.87659673476724E-9));
#735=CARTESIAN_POINT('',(242.378917078789,-94.3257674541982,421.41999990787));
#736=AXIS2_PLACEMENT_3D('',#737,#738,#739);
#737=CARTESIAN_POINT('',(242.954441603937,-92.7261513999671,421.41999991276));
#738=DIRECTION('',(0.940950620135955,-0.338543838321956,-6.9507150489834E-17));
#739=DIRECTION('',(-0.338543838321956,-0.940950620135955,-2.87659673476724E-9));
#740=CARTESIAN_POINT('',(242.378916982241,-94.325767722544,520.55999990787));
#741=AXIS2_PLACEMENT_3D('',#742,#743,#744);
#742=CARTESIAN_POINT('',(242.954441507389,-92.7261516683128,520.55999991276));
#743=DIRECTION('',(0.940950620135955,-0.338543838321956,-6.9507150489834E-17));
#744=DIRECTION('',(-0.338543838321956,-0.940950620135955,-2.87659673476724E-9));
#745=CARTESIAN_POINT('',(242.378916885694,-94.3257679908897,619.69999990787));
#746=AXIS2_PLACEMENT_3D('',#747,#748,#749);
#747=CARTESIAN_POINT('',(242.954441410841,-92.7261519366586,619.69999991276));
#748=DIRECTION('',(0.940950620135955,-0.338543838321956,-6.9507150489834E-17));
#749=DIRECTION('',(-0.338543838321956,-0.940950620135955,-2.87659673476724E-9));
#750=CARTESIAN_POINT('',(242.378916789146,-94.3257682592354,718.83999990787));
#751=AXIS2_PLACEMENT_3D('',#752,#753,#754);
#752=CARTESIAN_POINT('',(242.954441314293,-92.7261522050043,718.83999991276));
#753=DIRECTION('',(0.940950620135955,-0.338543838321956,-6.9507150489834E-17));
#754=DIRECTION('',(-0.338543838321956,-0.940950620135955,-2.87659673476724E-9));
#755=CARTESIAN_POINT('',(242.378916692598,-94.3257685275812,817.97999990787));
#756=AXIS2_PLACEMENT_3D('',#757,#758,#759);
#757=CARTESIAN_POINT('',(242.954441217745,-92.7261524733501,817.97999991276));
#758=DIRECTION('',(0.940950620135955,-0.338543838321956,-6.9507150489834E-17));
#759=DIRECTION('',(-0.338543838321956,-0.940950620135955,-2.87659673476724E-9));
#760=CARTESIAN_POINT('',(242.37891659605,-94.325768795927,917.11999990787));
#761=AXIS2_PLACEMENT_3D('',#762,#763,#764);
#762=CARTESIAN_POINT('',(242.954441121197,-92.7261527416958,917.11999991276));
#763=DIRECTION('',(0.940950620135955,-0.338543838321956,-6.9507150489834E-17));
#764=DIRECTION('',(-0.338543838321956,-0.940950620135955,-2.87659673476724E-9));
#765=CARTESIAN_POINT('',(242.37891586163,-94.325770837179,996.259998812421));
#766=AXIS2_PLACEMENT_3D('',#767,#768,#769);
#767=CARTESIAN_POINT('',(242.954440386777,-92.7261547829479,996.259998822202));
#768=DIRECTION('',(0.940950620135955,-0.338543838321956,-6.9507150489834E-17));
#769=DIRECTION('',(-0.338543838321956,-0.940950620135955,-5.75320810217625E-9));
#770=CARTESIAN_POINT('',(242.378916992058,-94.3257676952598,322.279999899261));
#771=AXIS2_PLACEMENT_3D('',#772,#773,#774);
#772=CARTESIAN_POINT('',(242.954441517205,-92.7261516410287,322.279999906335));
#773=DIRECTION('',(0.940950620135955,-0.338543838321956,-6.9507150489834E-17));
#774=DIRECTION('',(-0.338543838321956,-0.940950620135955,-4.1612580010215E-9));
#775=CARTESIAN_POINT('',(240.624154354441,-99.2029646935598,314.579999191453));
#776=CARTESIAN_POINT('',(244.630649166442,-88.0672908127129,314.579999225496));
#777=CARTESIAN_POINT('',(240.624154354441,-99.2029646935598,314.579999191453));
#778=VECTOR('',#779,1.);
#779=DIRECTION('',(0.338543838321958,0.940950620135954,2.87659705639176E-9));
#780=CARTESIAN_POINT('',(244.630649166442,-88.0672908127129,314.579999225496));
#781=VECTOR('',#782,1.);
#782=DIRECTION('',(0.94095062013601,-0.338543838321803,0.));
#783=CARTESIAN_POINT('',(240.624154354441,-99.2029646935598,314.579999191453));
#784=VECTOR('',#785,1.);
#785=DIRECTION('',(0.940950620135955,-0.338543838321954,0.));
#786=CARTESIAN_POINT('',(240.624153683086,-99.2029665595291,1003.95999919145));
#787=CARTESIAN_POINT('',(240.624153683086,-99.2029665595291,1003.95999919145));
#788=VECTOR('',#789,1.);
#789=DIRECTION('',(9.73854054476583E-10,2.70673548657253E-9,-1.));
#790=CARTESIAN_POINT('',(240.624153683086,-99.2029665595291,1003.95999919145));
#791=VECTOR('',#792,1.);
#792=DIRECTION('',(0.940950620135955,-0.338543838321954,0.));
#793=CARTESIAN_POINT('',(244.630648495086,-88.0672926786823,1003.9599992255));
#794=CARTESIAN_POINT('',(244.630648495086,-88.0672926786823,1003.9599992255));
#795=VECTOR('',#796,1.);
#796=DIRECTION('',(-0.338543838321958,-0.940950620135954,-2.87659705639176E-9));
#797=CARTESIAN_POINT('',(247.453500355494,-89.0829241936481,1003.9599992255));
#798=VECTOR('',#799,1.);
#799=DIRECTION('',(-0.940950620136012,0.338543838321795,0.));
#800=CARTESIAN_POINT('',(263.70869675544,-43.9031412480348,1003.95999936361));
#801=CARTESIAN_POINT('',(263.708697426787,-43.9031393820613,314.579999363612));
#802=CARTESIAN_POINT('',(263.70869675544,-43.9031412480348,1003.95999936361));
#803=VECTOR('',#804,1.);
#804=DIRECTION('',(9.73841438730425E-10,2.70674149554313E-9,-1.));
#805=CARTESIAN_POINT('',(263.70869675544,-43.9031412480348,1003.95999936361));
#806=VECTOR('',#807,1.);
#807=DIRECTION('',(-0.338543838321956,-0.940950620135955,-2.87659771227725E-9));
#808=CARTESIAN_POINT('',(247.453501026841,-89.0829223276747,314.579999225494));
#809=VECTOR('',#810,1.);
#810=DIRECTION('',(0.338543838321955,0.940950620135955,2.87659771227725E-9));
#811=CARTESIAN_POINT('',(244.630648495091,-88.0672926786843,1003.95999922549));
#812=VECTOR('',#813,1.);
#813=DIRECTION('',(9.73847746603504E-10,2.70673851682529E-9,-1.));
#814=CARTESIAN_POINT('',(267.094135810006,-34.4936331807018,314.579999392378));
#815=CARTESIAN_POINT('',(263.708697426787,-43.9031393820613,314.579999363612));
#816=VECTOR('',#817,1.);
#817=DIRECTION('',(0.338543838321954,0.940950620135955,2.87659531750251E-9));
#818=CARTESIAN_POINT('',(267.09413513866,-34.4936350466753,1003.95999939238));
#819=CARTESIAN_POINT('',(267.094135810006,-34.4936331807018,314.579999392378));
#820=VECTOR('',#821,1.);
#821=DIRECTION('',(-9.73841438730426E-10,-2.70674150585011E-9,1.));
#822=CARTESIAN_POINT('',(267.09413513866,-34.4936350466752,1003.95999939238));
#823=VECTOR('',#824,1.);
#824=DIRECTION('',(-0.338543838321959,-0.940950620135953,-2.8765953175025E-9));
#825=CARTESIAN_POINT('',(264.842125075906,-40.752884293668,322.279999335213));
#826=AXIS2_PLACEMENT_3D('',#827,#828,#829);
#827=CARTESIAN_POINT('',(265.417649601054,-39.1532682394368,322.279999351321));
#828=DIRECTION('',(0.940950620135955,-0.338543838321956,-1.39378429683107E-14));
#829=DIRECTION('',(-0.338543838321956,-0.940950620135955,-9.47565093891122E-9));
#830=CARTESIAN_POINT('',(264.844295927437,-40.7468506169222,996.259998764032));
#831=AXIS2_PLACEMENT_3D('',#832,#833,#834);
#832=CARTESIAN_POINT('',(265.419820452584,-39.1472345626911,996.2599987786));
#833=DIRECTION('',(0.940950620135955,-0.338543838321956,-1.39378429683107E-14));
#834=DIRECTION('',(-0.338543838321956,-0.940950620135955,-8.56976746610121E-9));
#835=CARTESIAN_POINT('',(264.842123982997,-40.7528873313302,917.119999948688));
#836=AXIS2_PLACEMENT_3D('',#837,#838,#839);
#837=CARTESIAN_POINT('',(265.417648508145,-39.153271277099,917.119999959063));
#838=DIRECTION('',(0.940950620135955,-0.338543838321956,-1.39378429683107E-14));
#839=DIRECTION('',(-0.338543838321956,-0.940950620135955,-6.10309746059426E-9));
#840=CARTESIAN_POINT('',(264.842124187835,-40.7528867619973,817.979999948688));
#841=AXIS2_PLACEMENT_3D('',#842,#843,#844);
#842=CARTESIAN_POINT('',(265.417648712983,-39.1532707077662,817.979999959064));
#843=DIRECTION('',(0.940950620135955,-0.338543838321956,-1.39378429683107E-14));
#844=DIRECTION('',(-0.338543838321956,-0.940950620135955,-6.10309746059426E-9));
#845=CARTESIAN_POINT('',(264.842124392674,-40.7528861926645,718.839999948688));
#846=AXIS2_PLACEMENT_3D('',#847,#848,#849);
#847=CARTESIAN_POINT('',(265.417648917821,-39.1532701384334,718.839999959063));
#848=DIRECTION('',(0.940950620135955,-0.338543838321956,-1.39378429683107E-14));
#849=DIRECTION('',(-0.338543838321956,-0.940950620135955,-6.10309746059426E-9));
#850=CARTESIAN_POINT('',(264.842124597512,-40.7528856233318,619.699999948688));
#851=AXIS2_PLACEMENT_3D('',#852,#853,#854);
#852=CARTESIAN_POINT('',(265.417649122659,-39.1532695691006,619.699999959063));
#853=DIRECTION('',(0.940950620135955,-0.338543838321956,-1.39378429683107E-14));
#854=DIRECTION('',(-0.338543838321956,-0.940950620135955,-6.10309746059426E-9));
#855=CARTESIAN_POINT('',(264.84212480235,-40.7528850539989,520.559999948688));
#856=AXIS2_PLACEMENT_3D('',#857,#858,#859);
#857=CARTESIAN_POINT('',(265.417649327498,-39.1532689997678,520.559999959063));
#858=DIRECTION('',(0.940950620135955,-0.338543838321956,-1.39378429683107E-14));
#859=DIRECTION('',(-0.338543838321956,-0.940950620135955,-6.10309746059426E-9));
#860=CARTESIAN_POINT('',(264.842125007189,-40.7528844846661,421.419999948688));
#861=AXIS2_PLACEMENT_3D('',#862,#863,#864);
#862=CARTESIAN_POINT('',(265.417649532336,-39.153268430435,421.419999959063));
#863=DIRECTION('',(0.940950620135955,-0.338543838321956,-1.39378429683107E-14));
#864=DIRECTION('',(-0.338543838321956,-0.940950620135955,-6.10309746059426E-9));
#865=CARTESIAN_POINT('',(260.885844895032,-42.8875097330689,1003.95999936361));
#866=CARTESIAN_POINT('',(260.885845566379,-42.8875078670955,314.579999363612));
#867=CARTESIAN_POINT('',(260.885844895037,-42.887509733071,1003.95999936361));
#868=VECTOR('',#869,1.);
#869=DIRECTION('',(9.73841438730426E-10,2.70674149554313E-9,-1.));
#870=CARTESIAN_POINT('',(244.630649166442,-88.0672908127129,314.579999225494));
#871=VECTOR('',#872,1.);
#872=DIRECTION('',(0.338543838321955,0.940950620135955,2.87659771227725E-9));
#873=CARTESIAN_POINT('',(260.885844895041,-42.8875097330731,1003.95999936361));
#874=VECTOR('',#875,1.);
#875=DIRECTION('',(-0.338543838321955,-0.940950620135955,-2.87659771227725E-9));
#876=CARTESIAN_POINT('',(264.271283949599,-33.4780016657359,314.579999392378));
#877=CARTESIAN_POINT('',(260.885845566379,-42.8875078670955,314.579999363612));
#878=VECTOR('',#879,1.);
#879=DIRECTION('',(0.338543838321959,0.940950620135953,2.8765953175025E-9));
#880=CARTESIAN_POINT('',(264.271283949599,-33.4780016657359,314.579999392378));
#881=VECTOR('',#882,1.);
#882=DIRECTION('',(0.940950620135953,-0.33854383832196,-1.89478062869363E-14));
#883=CARTESIAN_POINT('',(260.885845566383,-42.8875078670976,314.579999363614));
#884=VECTOR('',#885,1.);
#885=DIRECTION('',(0.940950620136008,-0.338543838321806,0.));
#886=CARTESIAN_POINT('',(264.271283278252,-33.4780035317094,1003.95999939238));
#887=CARTESIAN_POINT('',(264.271283278252,-33.4780035317094,1003.95999939238));
#888=VECTOR('',#889,1.);
#889=DIRECTION('',(-0.338543838321954,-0.940950620135955,-2.87659531750251E-9));
#890=CARTESIAN_POINT('',(260.885844895037,-42.887509733071,1003.95999936361));
#891=VECTOR('',#892,1.);
#892=DIRECTION('',(0.940950620136008,-0.338543838321806,0.));
#893=CARTESIAN_POINT('',(264.271283278252,-33.4780035317094,1003.95999939238));
#894=VECTOR('',#895,1.);
#895=DIRECTION('',(0.940950620135953,-0.33854383832196,0.));
#896=CARTESIAN_POINT('',(262.019273146781,-39.7372529697003,421.419999948688));
#897=AXIS2_PLACEMENT_3D('',#898,#899,#900);
#898=CARTESIAN_POINT('',(262.594797671928,-38.1376369154691,421.419999959063));
#899=DIRECTION('',(0.940950620135955,-0.338543838321956,-1.39378429683107E-14));
#900=DIRECTION('',(-0.338543838321956,-0.940950620135955,-6.10309746059426E-9));
#901=CARTESIAN_POINT('',(262.019272941943,-39.7372535390331,520.559999948688));
#902=AXIS2_PLACEMENT_3D('',#903,#904,#905);
#903=CARTESIAN_POINT('',(262.59479746709,-38.1376374848019,520.559999959063));
#904=DIRECTION('',(0.940950620135955,-0.338543838321956,-1.39378429683107E-14));
#905=DIRECTION('',(-0.338543838321956,-0.940950620135955,-6.10309746059426E-9));
#906=CARTESIAN_POINT('',(262.019272737104,-39.7372541083659,619.699999948688));
#907=AXIS2_PLACEMENT_3D('',#908,#909,#910);
#908=CARTESIAN_POINT('',(262.594797262252,-38.1376380541347,619.699999959064));
#909=DIRECTION('',(0.940950620135955,-0.338543838321956,-1.39378429683107E-14));
#910=DIRECTION('',(-0.338543838321956,-0.940950620135955,-6.10309746059426E-9));
#911=CARTESIAN_POINT('',(262.019272532266,-39.7372546776987,718.839999948688));
#912=AXIS2_PLACEMENT_3D('',#913,#914,#915);
#913=CARTESIAN_POINT('',(262.594797057413,-38.1376386234675,718.839999959064));
#914=DIRECTION('',(0.940950620135955,-0.338543838321956,-1.39378429683107E-14));
#915=DIRECTION('',(-0.338543838321956,-0.940950620135955,-6.10309746059426E-9));
#916=CARTESIAN_POINT('',(262.019272327428,-39.7372552470315,817.979999948688));
#917=AXIS2_PLACEMENT_3D('',#918,#919,#920);
#918=CARTESIAN_POINT('',(262.594796852575,-38.1376391928003,817.979999959064));
#919=DIRECTION('',(0.940950620135955,-0.338543838321956,-1.39378429683107E-14));
#920=DIRECTION('',(-0.338543838321956,-0.940950620135955,-6.10309746059426E-9));
#921=CARTESIAN_POINT('',(262.019272122589,-39.7372558163643,917.119999948688));
#922=AXIS2_PLACEMENT_3D('',#923,#924,#925);
#923=CARTESIAN_POINT('',(262.594796647737,-38.1376397621331,917.119999959064));
#924=DIRECTION('',(0.940950620135955,-0.338543838321956,-1.39378429683107E-14));
#925=DIRECTION('',(-0.338543838321956,-0.940950620135955,-6.10309746059426E-9));
#926=CARTESIAN_POINT('',(262.021444067029,-39.7312191019564,996.259998764032));
#927=AXIS2_PLACEMENT_3D('',#928,#929,#930);
#928=CARTESIAN_POINT('',(262.596968592176,-38.1316030477252,996.259998778601));
#929=DIRECTION('',(0.940950620135955,-0.338543838321956,-1.39378429683107E-14));
#930=DIRECTION('',(-0.338543838321956,-0.940950620135955,-8.56976746610121E-9));
#931=CARTESIAN_POINT('',(262.019273215499,-39.7372527787021,322.279999335213));
#932=AXIS2_PLACEMENT_3D('',#933,#934,#935);
#933=CARTESIAN_POINT('',(262.594797740646,-38.137636724471,322.279999351322));
#934=DIRECTION('',(0.940950620135955,-0.338543838321956,-1.39378429683107E-14));
#935=DIRECTION('',(-0.338543838321956,-0.940950620135955,-9.47565093891122E-9));
#936=CARTESIAN_POINT('',(264.271283949599,-33.4780016657359,314.579999392378));
#937=VECTOR('',#938,1.);
#938=DIRECTION('',(-9.73841438730426E-10,-2.70674150585011E-9,1.));
ENDSEC;
END-ISO-10303-21;
