ISO-10303-21;
HEADER;
FILE_DESCRIPTION(('STEP AP214'),
    '1');
FILE_NAME('In_Panel',
    '',
    ('UNSPECIFIED'),
    ('UNSPECIFIED'),
    'C3D Converter',
    'C3D Toolkit',
    '');
FILE_SCHEMA(('AUTOMOTIVE_DESIGN { 1 0 10303 214 3 1 1}'));
ENDSEC;

DATA;
#1=PRODUCT_DEFINITION('','UNSPECIFIED',#30,#33);
#2=SHAPE_DEFINITION_REPRESENTATION(#28,#3);
#3=SHAPE_REPRESENTATION('NONE',(#4),#8);
#4=AXIS2_PLACEMENT_3D('',#5,#6,#7);
#5=CARTESIAN_POINT('',(0.,0.,0.));
#6=DIRECTION('',(0.,0.,1.));
#7=DIRECTION('',(1.,0.,0.));
#8=(GEOMETRIC_REPRESENTATION_CONTEXT(3)GLOBAL_UNCERTAINTY_ASSIGNED_CONTEXT((#10))
GLOBAL_UNIT_ASSIGNED_CONTEXT((#9,#11,#12))REPRESENTATION_CONTEXT('NONE','NONE'));
#9=(LENGTH_UNIT()NAMED_UNIT(*)SI_UNIT(.MILLI.,.METRE.));
#10=UNCERTAINTY_MEASURE_WITH_UNIT(LENGTH_MEASURE(1.E-5),#9,'NONE','NONE');
#11=(NAMED_UNIT(*)PLANE_ANGLE_UNIT()SI_UNIT($,.RADIAN.));
#12=(NAMED_UNIT(*)SI_UNIT($,.STERADIAN.)SOLID_ANGLE_UNIT());
#13=MANIFOLD_SOLID_BREP('',#14);
#14=CLOSED_SHELL('',(#55,#56,#57,#58,#59,#60,#61,#62,#63,#64,#65,#66,#67,#68,#69,
#70,#71,#72,#73,#74,#75,#76,#77,#78,#79,#80,#81,#82,#83,#84));
#15=COLOUR_RGB('',0.847058823529412,0.847058823529412,0.847058823529412);
#16=FILL_AREA_STYLE_COLOUR('',#15);
#17=FILL_AREA_STYLE($,(#16));
#18=SURFACE_STYLE_FILL_AREA(#17);
#19=SURFACE_SIDE_STYLE('',(#18,#23));
#20=SURFACE_STYLE_USAGE(.BOTH.,#19);
#21=PRESENTATION_STYLE_ASSIGNMENT((#20));
#22=SURFACE_STYLE_TRANSPARENT(0.498000025749207);
#23=SURFACE_STYLE_RENDERING_WITH_PROPERTIES(.UNSPECIFIED.,$,(#22));
#24=MECHANICAL_DESIGN_GEOMETRIC_PRESENTATION_REPRESENTATION('NONE',(#25),#8);
#25=STYLED_ITEM('',(#21),#13);
#26=ADVANCED_BREP_SHAPE_REPRESENTATION('NONE',(#13),#8);
#27=SHAPE_REPRESENTATION_RELATIONSHIP('','',#3,#26);
#28=PRODUCT_DEFINITION_SHAPE('NONE','NONE',#1);
#29=MECHANICAL_CONTEXT('NONE',#34,'mechanical');
#30=PRODUCT_DEFINITION_FORMATION_WITH_SPECIFIED_SOURCE('ANY','UNSPECIFIED',#31,.NOT_KNOWN.);
#31=PRODUCT('','In_Panel','NONE',(#29));
#32=PRODUCT_RELATED_PRODUCT_CATEGORY('detail','',(#31));
#33=DESIGN_CONTEXT('detailed design',#34,'design');
#34=APPLICATION_CONTEXT('configuration controlled 3d designs of mechanical parts and assemblies');
#35=APPLICATION_PROTOCOL_DEFINITION('international standard','config_control_design',
1994,#34);
#36=CC_DESIGN_DATE_AND_TIME_ASSIGNMENT(#37,#41,(#1));
#37=DATE_AND_TIME(#38,#39);
#38=CALENDAR_DATE(0,1,1);
#39=LOCAL_TIME(0,0,0.,#40);
#40=COORDINATED_UNIVERSAL_TIME_OFFSET(0,0,.AHEAD.);
#41=DATE_TIME_ROLE('creation_date');
#42=CC_DESIGN_APPROVAL(#43,(#1));
#43=APPROVAL(#44,'UNSPECIFIED');
#44=APPROVAL_STATUS('not_yet_approved');
#45=APPROVAL_DATE_TIME(#46,#43);
#46=DATE_AND_TIME(#47,#48);
#47=CALENDAR_DATE(0,1,1);
#48=LOCAL_TIME(0,0,0.,#49);
#49=COORDINATED_UNIVERSAL_TIME_OFFSET(0,0,.AHEAD.);
#50=PERSON('UNSPECIFIED','User','UNSPECIFIED',('UNSPECIFIED'),('UNSPECIFIED'),('UNSPECIFIED'));
#51=ORGANIZATION('UNSPECIFIED','UNSPECIFIED','UNSPECIFIED');
#52=PERSON_AND_ORGANIZATION(#50,#51);
#53=PERSON_AND_ORGANIZATION_ROLE('creator');
#54=CC_DESIGN_PERSON_AND_ORGANIZATION_ASSIGNMENT(#52,#53,(#30,#1));
#55=ADVANCED_FACE('',(#85,#87,#89,#91,#93,#95,#97,#99,#101,#103,#105,#107,#109,#111,
#113,#115,#117,#119,#121,#123,#125,#127,#129,#131,#133),#135,.F.);
#56=ADVANCED_FACE('',(#140,#142,#144,#146,#148,#150,#152,#154,#156,#158,#160,#162,
#164,#166,#168,#170,#172,#174,#176,#178,#180,#182,#184,#186,#188),#190,.T.);
#57=ADVANCED_FACE('',(#195,#197),#199,.F.);
#58=ADVANCED_FACE('',(#204,#206),#208,.F.);
#59=ADVANCED_FACE('',(#213,#215),#217,.F.);
#60=ADVANCED_FACE('',(#222,#224),#226,.F.);
#61=ADVANCED_FACE('',(#231,#233),#235,.F.);
#62=ADVANCED_FACE('',(#240,#242),#244,.F.);
#63=ADVANCED_FACE('',(#249,#251),#253,.F.);
#64=ADVANCED_FACE('',(#258,#260),#262,.F.);
#65=ADVANCED_FACE('',(#267,#269),#271,.F.);
#66=ADVANCED_FACE('',(#276,#278),#280,.F.);
#67=ADVANCED_FACE('',(#285,#287),#289,.F.);
#68=ADVANCED_FACE('',(#294,#296),#298,.F.);
#69=ADVANCED_FACE('',(#303,#305),#307,.F.);
#70=ADVANCED_FACE('',(#312,#314),#316,.F.);
#71=ADVANCED_FACE('',(#321,#323),#325,.F.);
#72=ADVANCED_FACE('',(#330,#332),#334,.F.);
#73=ADVANCED_FACE('',(#339,#341),#343,.F.);
#74=ADVANCED_FACE('',(#348,#350),#352,.F.);
#75=ADVANCED_FACE('',(#357,#359),#361,.F.);
#76=ADVANCED_FACE('',(#366,#368),#370,.F.);
#77=ADVANCED_FACE('',(#375,#377),#379,.F.);
#78=ADVANCED_FACE('',(#384,#386),#388,.F.);
#79=ADVANCED_FACE('',(#393,#395),#397,.F.);
#80=ADVANCED_FACE('',(#402,#404),#406,.F.);
#81=ADVANCED_FACE('',(#411),#413,.T.);
#82=ADVANCED_FACE('',(#418),#420,.T.);
#83=ADVANCED_FACE('',(#425),#427,.T.);
#84=ADVANCED_FACE('',(#432),#434,.T.);
#85=FACE_BOUND('',#86,.T.);
#86=EDGE_LOOP('',(#439,#440,#441,#442));
#87=FACE_BOUND('',#88,.T.);
#88=EDGE_LOOP('',(#443));
#89=FACE_BOUND('',#90,.T.);
#90=EDGE_LOOP('',(#444));
#91=FACE_BOUND('',#92,.T.);
#92=EDGE_LOOP('',(#445));
#93=FACE_BOUND('',#94,.T.);
#94=EDGE_LOOP('',(#446));
#95=FACE_BOUND('',#96,.T.);
#96=EDGE_LOOP('',(#447));
#97=FACE_BOUND('',#98,.T.);
#98=EDGE_LOOP('',(#448));
#99=FACE_BOUND('',#100,.T.);
#100=EDGE_LOOP('',(#449));
#101=FACE_BOUND('',#102,.T.);
#102=EDGE_LOOP('',(#450));
#103=FACE_BOUND('',#104,.T.);
#104=EDGE_LOOP('',(#451));
#105=FACE_BOUND('',#106,.T.);
#106=EDGE_LOOP('',(#452));
#107=FACE_BOUND('',#108,.T.);
#108=EDGE_LOOP('',(#453));
#109=FACE_BOUND('',#110,.T.);
#110=EDGE_LOOP('',(#454));
#111=FACE_BOUND('',#112,.T.);
#112=EDGE_LOOP('',(#455));
#113=FACE_BOUND('',#114,.T.);
#114=EDGE_LOOP('',(#456));
#115=FACE_BOUND('',#116,.T.);
#116=EDGE_LOOP('',(#457));
#117=FACE_BOUND('',#118,.T.);
#118=EDGE_LOOP('',(#458));
#119=FACE_BOUND('',#120,.T.);
#120=EDGE_LOOP('',(#459));
#121=FACE_BOUND('',#122,.T.);
#122=EDGE_LOOP('',(#460));
#123=FACE_BOUND('',#124,.T.);
#124=EDGE_LOOP('',(#461));
#125=FACE_BOUND('',#126,.T.);
#126=EDGE_LOOP('',(#462));
#127=FACE_BOUND('',#128,.T.);
#128=EDGE_LOOP('',(#463));
#129=FACE_BOUND('',#130,.T.);
#130=EDGE_LOOP('',(#464));
#131=FACE_BOUND('',#132,.T.);
#132=EDGE_LOOP('',(#465));
#133=FACE_BOUND('',#134,.T.);
#134=EDGE_LOOP('',(#466));
#135=PLANE('',#136);
#136=AXIS2_PLACEMENT_3D('',#137,#138,#139);
#137=CARTESIAN_POINT('',(70.7107128230183,70.7106434136184,6.42848473105939E-40));
#138=DIRECTION('',(-0.707107128233462,-0.707106434139463,0.));
#139=DIRECTION('',(4.32977815612696E-17,-4.32978240622693E-17,1.));
#140=FACE_BOUND('',#141,.T.);
#141=EDGE_LOOP('',(#467,#468,#469,#470));
#142=FACE_BOUND('',#143,.T.);
#143=EDGE_LOOP('',(#471));
#144=FACE_BOUND('',#145,.T.);
#145=EDGE_LOOP('',(#472));
#146=FACE_BOUND('',#147,.T.);
#147=EDGE_LOOP('',(#473));
#148=FACE_BOUND('',#149,.T.);
#149=EDGE_LOOP('',(#474));
#150=FACE_BOUND('',#151,.T.);
#151=EDGE_LOOP('',(#475));
#152=FACE_BOUND('',#153,.T.);
#153=EDGE_LOOP('',(#476));
#154=FACE_BOUND('',#155,.T.);
#155=EDGE_LOOP('',(#477));
#156=FACE_BOUND('',#157,.T.);
#157=EDGE_LOOP('',(#478));
#158=FACE_BOUND('',#159,.T.);
#159=EDGE_LOOP('',(#479));
#160=FACE_BOUND('',#161,.T.);
#161=EDGE_LOOP('',(#480));
#162=FACE_BOUND('',#163,.T.);
#163=EDGE_LOOP('',(#481));
#164=FACE_BOUND('',#165,.T.);
#165=EDGE_LOOP('',(#482));
#166=FACE_BOUND('',#167,.T.);
#167=EDGE_LOOP('',(#483));
#168=FACE_BOUND('',#169,.T.);
#169=EDGE_LOOP('',(#484));
#170=FACE_BOUND('',#171,.T.);
#171=EDGE_LOOP('',(#485));
#172=FACE_BOUND('',#173,.T.);
#173=EDGE_LOOP('',(#486));
#174=FACE_BOUND('',#175,.T.);
#175=EDGE_LOOP('',(#487));
#176=FACE_BOUND('',#177,.T.);
#177=EDGE_LOOP('',(#488));
#178=FACE_BOUND('',#179,.T.);
#179=EDGE_LOOP('',(#489));
#180=FACE_BOUND('',#181,.T.);
#181=EDGE_LOOP('',(#490));
#182=FACE_BOUND('',#183,.T.);
#183=EDGE_LOOP('',(#491));
#184=FACE_BOUND('',#185,.T.);
#185=EDGE_LOOP('',(#492));
#186=FACE_BOUND('',#187,.T.);
#187=EDGE_LOOP('',(#493));
#188=FACE_BOUND('',#189,.T.);
#189=EDGE_LOOP('',(#494));
#190=PLANE('',#191);
#191=AXIS2_PLACEMENT_3D('',#192,#193,#194);
#192=CARTESIAN_POINT('',(68.5893914383179,68.5893241112,6.42848473105939E-40));
#193=DIRECTION('',(-0.707107128233462,-0.707106434139463,0.));
#194=DIRECTION('',(4.32977815612696E-17,-4.32978240622693E-17,1.));
#195=FACE_OUTER_BOUND('',#196,.T.);
#196=EDGE_LOOP('',(#495));
#197=FACE_OUTER_BOUND('',#198,.T.);
#198=EDGE_LOOP('',(#496));
#199=CYLINDRICAL_SURFACE('',#200,1.7);
#200=AXIS2_PLACEMENT_3D('',#201,#202,#203);
#201=CARTESIAN_POINT('',(-76.3674719840198,227.688472387527,996.259998931036));
#202=DIRECTION('',(-0.707107128233462,-0.707106434139463,0.));
#203=DIRECTION('',(-0.707106434139463,0.707107128233462,-3.91992216464135E-9));
#204=FACE_OUTER_BOUND('',#205,.T.);
#205=EDGE_LOOP('',(#497));
#206=FACE_OUTER_BOUND('',#207,.T.);
#207=EDGE_LOOP('',(#498));
#208=CYLINDRICAL_SURFACE('',#209,1.7);
#209=AXIS2_PLACEMENT_3D('',#210,#211,#212);
#210=CARTESIAN_POINT('',(-76.3674706493419,227.688471052848,917.119999963572));
#211=DIRECTION('',(-0.707107128233462,-0.707106434139463,0.));
#212=DIRECTION('',(-0.707106434139463,0.707107128233462,0.));
#213=FACE_OUTER_BOUND('',#214,.T.);
#214=EDGE_LOOP('',(#499));
#215=FACE_OUTER_BOUND('',#216,.T.);
#216=EDGE_LOOP('',(#500));
#217=CYLINDRICAL_SURFACE('',#218,1.7);
#218=AXIS2_PLACEMENT_3D('',#219,#220,#221);
#219=CARTESIAN_POINT('',(-76.3674706493419,227.688471052848,817.979999963571));
#220=DIRECTION('',(-0.707107128233462,-0.707106434139463,0.));
#221=DIRECTION('',(-0.707106434139463,0.707107128233462,0.));
#222=FACE_OUTER_BOUND('',#223,.T.);
#223=EDGE_LOOP('',(#501));
#224=FACE_OUTER_BOUND('',#225,.T.);
#225=EDGE_LOOP('',(#502));
#226=CYLINDRICAL_SURFACE('',#227,1.7);
#227=AXIS2_PLACEMENT_3D('',#228,#229,#230);
#228=CARTESIAN_POINT('',(-76.3674706493419,227.688471052848,718.839999963572));
#229=DIRECTION('',(-0.707107128233462,-0.707106434139463,0.));
#230=DIRECTION('',(-0.707106434139463,0.707107128233462,0.));
#231=FACE_OUTER_BOUND('',#232,.T.);
#232=EDGE_LOOP('',(#503));
#233=FACE_OUTER_BOUND('',#234,.T.);
#234=EDGE_LOOP('',(#504));
#235=CYLINDRICAL_SURFACE('',#236,1.7);
#236=AXIS2_PLACEMENT_3D('',#237,#238,#239);
#237=CARTESIAN_POINT('',(-76.3674706493419,227.688471052848,619.699999963571));
#238=DIRECTION('',(-0.707107128233462,-0.707106434139463,0.));
#239=DIRECTION('',(-0.707106434139463,0.707107128233462,0.));
#240=FACE_OUTER_BOUND('',#241,.T.);
#241=EDGE_LOOP('',(#505));
#242=FACE_OUTER_BOUND('',#243,.T.);
#243=EDGE_LOOP('',(#506));
#244=CYLINDRICAL_SURFACE('',#245,1.7);
#245=AXIS2_PLACEMENT_3D('',#246,#247,#248);
#246=CARTESIAN_POINT('',(-76.3674706493419,227.688471052848,520.559999963571));
#247=DIRECTION('',(-0.707107128233462,-0.707106434139463,0.));
#248=DIRECTION('',(-0.707106434139463,0.707107128233462,0.));
#249=FACE_OUTER_BOUND('',#250,.T.);
#250=EDGE_LOOP('',(#507));
#251=FACE_OUTER_BOUND('',#252,.T.);
#252=EDGE_LOOP('',(#508));
#253=CYLINDRICAL_SURFACE('',#254,1.7);
#254=AXIS2_PLACEMENT_3D('',#255,#256,#257);
#255=CARTESIAN_POINT('',(-76.3674706493419,227.688471052848,421.419999963572));
#256=DIRECTION('',(-0.707107128233462,-0.707106434139463,0.));
#257=DIRECTION('',(-0.707106434139463,0.707107128233462,0.));
#258=FACE_OUTER_BOUND('',#259,.T.);
#259=EDGE_LOOP('',(#509));
#260=FACE_OUTER_BOUND('',#261,.T.);
#261=EDGE_LOOP('',(#510));
#262=CYLINDRICAL_SURFACE('',#263,1.7);
#263=AXIS2_PLACEMENT_3D('',#264,#265,#266);
#264=CARTESIAN_POINT('',(-76.3674693149171,227.688469718422,322.280001532448));
#265=DIRECTION('',(-0.707107128233462,-0.707106434139463,0.));
#266=DIRECTION('',(-0.707106434139463,0.707107128233462,4.47809110054927E-9));
#267=FACE_OUTER_BOUND('',#268,.T.);
#268=EDGE_LOOP('',(#511));
#269=FACE_OUTER_BOUND('',#270,.T.);
#270=EDGE_LOOP('',(#512));
#271=CYLINDRICAL_SURFACE('',#272,1.7);
#272=AXIS2_PLACEMENT_3D('',#273,#274,#275);
#273=CARTESIAN_POINT('',(75.6604376962486,75.6604134770232,996.259999552462));
#274=DIRECTION('',(-0.707107128233462,-0.707106434139463,0.));
#275=DIRECTION('',(-0.707106434139463,0.707107128233462,0.));
#276=FACE_OUTER_BOUND('',#277,.T.);
#277=EDGE_LOOP('',(#513));
#278=FACE_OUTER_BOUND('',#279,.T.);
#279=EDGE_LOOP('',(#514));
#280=CYLINDRICAL_SURFACE('',#281,1.7);
#281=AXIS2_PLACEMENT_3D('',#282,#283,#284);
#282=CARTESIAN_POINT('',(75.6604376962487,75.660413477023,917.12));
#283=DIRECTION('',(-0.707107128233462,-0.707106434139463,0.));
#284=DIRECTION('',(0.707106434139463,-0.707107128233462,0.));
#285=FACE_OUTER_BOUND('',#286,.T.);
#286=EDGE_LOOP('',(#515));
#287=FACE_OUTER_BOUND('',#288,.T.);
#288=EDGE_LOOP('',(#516));
#289=CYLINDRICAL_SURFACE('',#290,1.7);
#290=AXIS2_PLACEMENT_3D('',#291,#292,#293);
#291=CARTESIAN_POINT('',(75.6604376962487,75.660413477023,817.98));
#292=DIRECTION('',(-0.707107128233462,-0.707106434139463,0.));
#293=DIRECTION('',(0.707106434139463,-0.707107128233462,0.));
#294=FACE_OUTER_BOUND('',#295,.T.);
#295=EDGE_LOOP('',(#517));
#296=FACE_OUTER_BOUND('',#297,.T.);
#297=EDGE_LOOP('',(#518));
#298=CYLINDRICAL_SURFACE('',#299,1.7);
#299=AXIS2_PLACEMENT_3D('',#300,#301,#302);
#300=CARTESIAN_POINT('',(75.6604376962487,75.660413477023,718.84));
#301=DIRECTION('',(-0.707107128233462,-0.707106434139463,0.));
#302=DIRECTION('',(0.707106434139463,-0.707107128233462,0.));
#303=FACE_OUTER_BOUND('',#304,.T.);
#304=EDGE_LOOP('',(#519));
#305=FACE_OUTER_BOUND('',#306,.T.);
#306=EDGE_LOOP('',(#520));
#307=CYLINDRICAL_SURFACE('',#308,1.7);
#308=AXIS2_PLACEMENT_3D('',#309,#310,#311);
#309=CARTESIAN_POINT('',(75.6604376962487,75.660413477023,619.7));
#310=DIRECTION('',(-0.707107128233462,-0.707106434139463,0.));
#311=DIRECTION('',(0.707106434139463,-0.707107128233462,0.));
#312=FACE_OUTER_BOUND('',#313,.T.);
#313=EDGE_LOOP('',(#521));
#314=FACE_OUTER_BOUND('',#315,.T.);
#315=EDGE_LOOP('',(#522));
#316=CYLINDRICAL_SURFACE('',#317,1.7);
#317=AXIS2_PLACEMENT_3D('',#318,#319,#320);
#318=CARTESIAN_POINT('',(75.6604376962487,75.660413477023,520.56));
#319=DIRECTION('',(-0.707107128233462,-0.707106434139463,0.));
#320=DIRECTION('',(0.707106434139463,-0.707107128233462,0.));
#321=FACE_OUTER_BOUND('',#322,.T.);
#322=EDGE_LOOP('',(#523));
#323=FACE_OUTER_BOUND('',#324,.T.);
#324=EDGE_LOOP('',(#524));
#325=CYLINDRICAL_SURFACE('',#326,1.7);
#326=AXIS2_PLACEMENT_3D('',#327,#328,#329);
#327=CARTESIAN_POINT('',(75.6604376962487,75.660413477023,421.42));
#328=DIRECTION('',(-0.707107128233462,-0.707106434139463,0.));
#329=DIRECTION('',(0.707106434139463,-0.707107128233462,0.));
#330=FACE_OUTER_BOUND('',#331,.T.);
#331=EDGE_LOOP('',(#525));
#332=FACE_OUTER_BOUND('',#333,.T.);
#333=EDGE_LOOP('',(#526));
#334=CYLINDRICAL_SURFACE('',#335,1.7);
#335=AXIS2_PLACEMENT_3D('',#336,#337,#338);
#336=CARTESIAN_POINT('',(75.6604385871632,75.6604125861077,322.280000133389));
#337=DIRECTION('',(-0.707107128233462,-0.707106434139463,0.));
#338=DIRECTION('',(0.707106434139462,-0.707107128233462,-3.91992216464132E-9));
#339=FACE_OUTER_BOUND('',#340,.T.);
#340=EDGE_LOOP('',(#527));
#341=FACE_OUTER_BOUND('',#342,.T.);
#342=EDGE_LOOP('',(#528));
#343=CYLINDRICAL_SURFACE('',#344,1.7);
#344=AXIS2_PLACEMENT_3D('',#345,#346,#347);
#345=CARTESIAN_POINT('',(227.688347395142,-76.367645452106,996.259998931036));
#346=DIRECTION('',(-0.707107128233462,-0.707106434139463,0.));
#347=DIRECTION('',(0.707106434139463,-0.707107128233462,-3.91992216464135E-9));
#348=FACE_OUTER_BOUND('',#349,.T.);
#349=EDGE_LOOP('',(#529));
#350=FACE_OUTER_BOUND('',#351,.T.);
#351=EDGE_LOOP('',(#530));
#352=CYLINDRICAL_SURFACE('',#353,1.7);
#353=AXIS2_PLACEMENT_3D('',#354,#355,#356);
#354=CARTESIAN_POINT('',(227.688346060464,-76.3676441174271,917.119999963572));
#355=DIRECTION('',(-0.707107128233462,-0.707106434139463,0.));
#356=DIRECTION('',(0.707106434139463,-0.707107128233462,0.));
#357=FACE_OUTER_BOUND('',#358,.T.);
#358=EDGE_LOOP('',(#531));
#359=FACE_OUTER_BOUND('',#360,.T.);
#360=EDGE_LOOP('',(#532));
#361=CYLINDRICAL_SURFACE('',#362,1.7);
#362=AXIS2_PLACEMENT_3D('',#363,#364,#365);
#363=CARTESIAN_POINT('',(227.688346060464,-76.3676441174271,817.979999963571));
#364=DIRECTION('',(-0.707107128233462,-0.707106434139463,0.));
#365=DIRECTION('',(0.707106434139463,-0.707107128233462,0.));
#366=FACE_OUTER_BOUND('',#367,.T.);
#367=EDGE_LOOP('',(#533));
#368=FACE_OUTER_BOUND('',#369,.T.);
#369=EDGE_LOOP('',(#534));
#370=CYLINDRICAL_SURFACE('',#371,1.7);
#371=AXIS2_PLACEMENT_3D('',#372,#373,#374);
#372=CARTESIAN_POINT('',(227.688346060464,-76.3676441174271,718.839999963572));
#373=DIRECTION('',(-0.707107128233462,-0.707106434139463,0.));
#374=DIRECTION('',(0.707106434139463,-0.707107128233462,0.));
#375=FACE_OUTER_BOUND('',#376,.T.);
#376=EDGE_LOOP('',(#535));
#377=FACE_OUTER_BOUND('',#378,.T.);
#378=EDGE_LOOP('',(#536));
#379=CYLINDRICAL_SURFACE('',#380,1.7);
#380=AXIS2_PLACEMENT_3D('',#381,#382,#383);
#381=CARTESIAN_POINT('',(227.688346060464,-76.3676441174271,619.699999963571));
#382=DIRECTION('',(-0.707107128233462,-0.707106434139463,0.));
#383=DIRECTION('',(0.707106434139463,-0.707107128233462,0.));
#384=FACE_OUTER_BOUND('',#385,.T.);
#385=EDGE_LOOP('',(#537));
#386=FACE_OUTER_BOUND('',#387,.T.);
#387=EDGE_LOOP('',(#538));
#388=CYLINDRICAL_SURFACE('',#389,1.7);
#389=AXIS2_PLACEMENT_3D('',#390,#391,#392);
#390=CARTESIAN_POINT('',(227.688346060464,-76.3676441174271,520.559999963571));
#391=DIRECTION('',(-0.707107128233462,-0.707106434139463,0.));
#392=DIRECTION('',(0.707106434139463,-0.707107128233462,0.));
#393=FACE_OUTER_BOUND('',#394,.T.);
#394=EDGE_LOOP('',(#539));
#395=FACE_OUTER_BOUND('',#396,.T.);
#396=EDGE_LOOP('',(#540));
#397=CYLINDRICAL_SURFACE('',#398,1.7);
#398=AXIS2_PLACEMENT_3D('',#399,#400,#401);
#399=CARTESIAN_POINT('',(227.688346060464,-76.3676441174271,421.419999963572));
#400=DIRECTION('',(-0.707107128233462,-0.707106434139463,0.));
#401=DIRECTION('',(0.707106434139463,-0.707107128233462,0.));
#402=FACE_OUTER_BOUND('',#403,.T.);
#403=EDGE_LOOP('',(#541));
#404=FACE_OUTER_BOUND('',#405,.T.);
#405=EDGE_LOOP('',(#542));
#406=CYLINDRICAL_SURFACE('',#407,1.7);
#407=AXIS2_PLACEMENT_3D('',#408,#409,#410);
#408=CARTESIAN_POINT('',(227.688346223529,-76.3676442804914,322.279999962145));
#409=DIRECTION('',(-0.707107128233462,-0.707106434139463,0.));
#410=DIRECTION('',(0.707106434139463,-0.707107128233462,-5.47201499798311E-10));
#411=FACE_BOUND('',#412,.T.);
#412=EDGE_LOOP('',(#543,#544,#545,#546));
#413=PLANE('',#414);
#414=AXIS2_PLACEMENT_3D('',#415,#416,#417);
#415=CARTESIAN_POINT('',(-101.116150673044,242.537675574523,314.579999047455));
#416=DIRECTION('',(0.,0.,-1.));
#417=DIRECTION('',(0.707106434139463,-0.707107128233462,0.));
#418=FACE_BOUND('',#419,.T.);
#419=EDGE_LOOP('',(#547,#548,#549,#550));
#420=PLANE('',#421);
#421=AXIS2_PLACEMENT_3D('',#422,#423,#424);
#422=CARTESIAN_POINT('',(-101.116150673044,242.537675574523,1003.95999992714));
#423=DIRECTION('',(-0.707106434139463,0.707107128233462,8.74576578957661E-17));
#424=DIRECTION('',(-4.1227928564995E-17,8.24558571299901E-17,-1.));
#425=FACE_BOUND('',#426,.T.);
#426=EDGE_LOOP('',(#551,#552,#553,#554));
#427=PLANE('',#428);
#428=AXIS2_PLACEMENT_3D('',#429,#430,#431);
#429=CARTESIAN_POINT('',(242.537576318735,-101.11638874694,1003.95999992714));
#430=DIRECTION('',(0.,0.,1.));
#431=DIRECTION('',(-0.707106434139463,0.707107128233462,0.));
#432=FACE_BOUND('',#433,.T.);
#433=EDGE_LOOP('',(#555,#556,#557,#558));
#434=PLANE('',#435);
#435=AXIS2_PLACEMENT_3D('',#436,#437,#438);
#436=CARTESIAN_POINT('',(242.537576318735,-101.11638874694,314.579999047455));
#437=DIRECTION('',(0.707106434139461,-0.707107128233464,-2.9152562170608E-17));
#438=DIRECTION('',(0.,-4.1227928564995E-17,1.));
#439=ORIENTED_EDGE('',*,*,#559,.F.);
#440=ORIENTED_EDGE('',*,*,#560,.F.);
#441=ORIENTED_EDGE('',*,*,#561,.F.);
#442=ORIENTED_EDGE('',*,*,#562,.F.);
#443=ORIENTED_EDGE('',*,*,#563,.T.);
#444=ORIENTED_EDGE('',*,*,#564,.T.);
#445=ORIENTED_EDGE('',*,*,#565,.T.);
#446=ORIENTED_EDGE('',*,*,#566,.T.);
#447=ORIENTED_EDGE('',*,*,#567,.T.);
#448=ORIENTED_EDGE('',*,*,#568,.T.);
#449=ORIENTED_EDGE('',*,*,#569,.T.);
#450=ORIENTED_EDGE('',*,*,#570,.T.);
#451=ORIENTED_EDGE('',*,*,#571,.T.);
#452=ORIENTED_EDGE('',*,*,#572,.T.);
#453=ORIENTED_EDGE('',*,*,#573,.T.);
#454=ORIENTED_EDGE('',*,*,#574,.T.);
#455=ORIENTED_EDGE('',*,*,#575,.T.);
#456=ORIENTED_EDGE('',*,*,#576,.T.);
#457=ORIENTED_EDGE('',*,*,#577,.T.);
#458=ORIENTED_EDGE('',*,*,#578,.T.);
#459=ORIENTED_EDGE('',*,*,#579,.T.);
#460=ORIENTED_EDGE('',*,*,#580,.T.);
#461=ORIENTED_EDGE('',*,*,#581,.T.);
#462=ORIENTED_EDGE('',*,*,#582,.T.);
#463=ORIENTED_EDGE('',*,*,#583,.T.);
#464=ORIENTED_EDGE('',*,*,#584,.T.);
#465=ORIENTED_EDGE('',*,*,#585,.T.);
#466=ORIENTED_EDGE('',*,*,#586,.T.);
#467=ORIENTED_EDGE('',*,*,#587,.T.);
#468=ORIENTED_EDGE('',*,*,#588,.T.);
#469=ORIENTED_EDGE('',*,*,#589,.T.);
#470=ORIENTED_EDGE('',*,*,#590,.T.);
#471=ORIENTED_EDGE('',*,*,#591,.T.);
#472=ORIENTED_EDGE('',*,*,#592,.T.);
#473=ORIENTED_EDGE('',*,*,#593,.T.);
#474=ORIENTED_EDGE('',*,*,#594,.T.);
#475=ORIENTED_EDGE('',*,*,#595,.T.);
#476=ORIENTED_EDGE('',*,*,#596,.T.);
#477=ORIENTED_EDGE('',*,*,#597,.T.);
#478=ORIENTED_EDGE('',*,*,#598,.T.);
#479=ORIENTED_EDGE('',*,*,#599,.T.);
#480=ORIENTED_EDGE('',*,*,#600,.T.);
#481=ORIENTED_EDGE('',*,*,#601,.T.);
#482=ORIENTED_EDGE('',*,*,#602,.T.);
#483=ORIENTED_EDGE('',*,*,#603,.T.);
#484=ORIENTED_EDGE('',*,*,#604,.T.);
#485=ORIENTED_EDGE('',*,*,#605,.T.);
#486=ORIENTED_EDGE('',*,*,#606,.T.);
#487=ORIENTED_EDGE('',*,*,#607,.T.);
#488=ORIENTED_EDGE('',*,*,#608,.T.);
#489=ORIENTED_EDGE('',*,*,#609,.T.);
#490=ORIENTED_EDGE('',*,*,#610,.T.);
#491=ORIENTED_EDGE('',*,*,#611,.T.);
#492=ORIENTED_EDGE('',*,*,#612,.T.);
#493=ORIENTED_EDGE('',*,*,#613,.T.);
#494=ORIENTED_EDGE('',*,*,#614,.T.);
#495=ORIENTED_EDGE('',*,*,#586,.F.);
#496=ORIENTED_EDGE('',*,*,#614,.F.);
#497=ORIENTED_EDGE('',*,*,#585,.F.);
#498=ORIENTED_EDGE('',*,*,#613,.F.);
#499=ORIENTED_EDGE('',*,*,#584,.F.);
#500=ORIENTED_EDGE('',*,*,#612,.F.);
#501=ORIENTED_EDGE('',*,*,#583,.F.);
#502=ORIENTED_EDGE('',*,*,#611,.F.);
#503=ORIENTED_EDGE('',*,*,#582,.F.);
#504=ORIENTED_EDGE('',*,*,#610,.F.);
#505=ORIENTED_EDGE('',*,*,#581,.F.);
#506=ORIENTED_EDGE('',*,*,#609,.F.);
#507=ORIENTED_EDGE('',*,*,#580,.F.);
#508=ORIENTED_EDGE('',*,*,#608,.F.);
#509=ORIENTED_EDGE('',*,*,#579,.F.);
#510=ORIENTED_EDGE('',*,*,#607,.F.);
#511=ORIENTED_EDGE('',*,*,#578,.F.);
#512=ORIENTED_EDGE('',*,*,#606,.F.);
#513=ORIENTED_EDGE('',*,*,#577,.F.);
#514=ORIENTED_EDGE('',*,*,#605,.F.);
#515=ORIENTED_EDGE('',*,*,#576,.F.);
#516=ORIENTED_EDGE('',*,*,#604,.F.);
#517=ORIENTED_EDGE('',*,*,#575,.F.);
#518=ORIENTED_EDGE('',*,*,#603,.F.);
#519=ORIENTED_EDGE('',*,*,#574,.F.);
#520=ORIENTED_EDGE('',*,*,#602,.F.);
#521=ORIENTED_EDGE('',*,*,#573,.F.);
#522=ORIENTED_EDGE('',*,*,#601,.F.);
#523=ORIENTED_EDGE('',*,*,#572,.F.);
#524=ORIENTED_EDGE('',*,*,#600,.F.);
#525=ORIENTED_EDGE('',*,*,#571,.F.);
#526=ORIENTED_EDGE('',*,*,#599,.F.);
#527=ORIENTED_EDGE('',*,*,#570,.F.);
#528=ORIENTED_EDGE('',*,*,#598,.F.);
#529=ORIENTED_EDGE('',*,*,#569,.F.);
#530=ORIENTED_EDGE('',*,*,#597,.F.);
#531=ORIENTED_EDGE('',*,*,#568,.F.);
#532=ORIENTED_EDGE('',*,*,#596,.F.);
#533=ORIENTED_EDGE('',*,*,#567,.F.);
#534=ORIENTED_EDGE('',*,*,#595,.F.);
#535=ORIENTED_EDGE('',*,*,#566,.F.);
#536=ORIENTED_EDGE('',*,*,#594,.F.);
#537=ORIENTED_EDGE('',*,*,#565,.F.);
#538=ORIENTED_EDGE('',*,*,#593,.F.);
#539=ORIENTED_EDGE('',*,*,#564,.F.);
#540=ORIENTED_EDGE('',*,*,#592,.F.);
#541=ORIENTED_EDGE('',*,*,#563,.F.);
#542=ORIENTED_EDGE('',*,*,#591,.F.);
#543=ORIENTED_EDGE('',*,*,#559,.T.);
#544=ORIENTED_EDGE('',*,*,#615,.T.);
#545=ORIENTED_EDGE('',*,*,#590,.F.);
#546=ORIENTED_EDGE('',*,*,#616,.F.);
#547=ORIENTED_EDGE('',*,*,#560,.T.);
#548=ORIENTED_EDGE('',*,*,#616,.T.);
#549=ORIENTED_EDGE('',*,*,#589,.F.);
#550=ORIENTED_EDGE('',*,*,#617,.F.);
#551=ORIENTED_EDGE('',*,*,#561,.T.);
#552=ORIENTED_EDGE('',*,*,#617,.T.);
#553=ORIENTED_EDGE('',*,*,#588,.F.);
#554=ORIENTED_EDGE('',*,*,#618,.F.);
#555=ORIENTED_EDGE('',*,*,#562,.T.);
#556=ORIENTED_EDGE('',*,*,#618,.T.);
#557=ORIENTED_EDGE('',*,*,#587,.F.);
#558=ORIENTED_EDGE('',*,*,#615,.F.);
#559=EDGE_CURVE('',#619,#620,#621,.T.);
#560=EDGE_CURVE('',#622,#619,#623,.T.);
#561=EDGE_CURVE('',#624,#622,#625,.T.);
#562=EDGE_CURVE('',#620,#624,#626,.T.);
#563=EDGE_CURVE('',#627,#627,#628,.T.);
#564=EDGE_CURVE('',#629,#629,#630,.T.);
#565=EDGE_CURVE('',#631,#631,#632,.T.);
#566=EDGE_CURVE('',#633,#633,#634,.T.);
#567=EDGE_CURVE('',#635,#635,#636,.T.);
#568=EDGE_CURVE('',#637,#637,#638,.T.);
#569=EDGE_CURVE('',#639,#639,#640,.T.);
#570=EDGE_CURVE('',#641,#641,#642,.T.);
#571=EDGE_CURVE('',#643,#643,#644,.T.);
#572=EDGE_CURVE('',#645,#645,#646,.T.);
#573=EDGE_CURVE('',#647,#647,#648,.T.);
#574=EDGE_CURVE('',#649,#649,#650,.T.);
#575=EDGE_CURVE('',#651,#651,#652,.T.);
#576=EDGE_CURVE('',#653,#653,#654,.T.);
#577=EDGE_CURVE('',#655,#655,#656,.T.);
#578=EDGE_CURVE('',#657,#657,#658,.T.);
#579=EDGE_CURVE('',#659,#659,#660,.T.);
#580=EDGE_CURVE('',#661,#661,#662,.T.);
#581=EDGE_CURVE('',#663,#663,#664,.T.);
#582=EDGE_CURVE('',#665,#665,#666,.T.);
#583=EDGE_CURVE('',#667,#667,#668,.T.);
#584=EDGE_CURVE('',#669,#669,#670,.T.);
#585=EDGE_CURVE('',#671,#671,#672,.T.);
#586=EDGE_CURVE('',#673,#673,#674,.T.);
#587=EDGE_CURVE('',#675,#676,#677,.T.);
#588=EDGE_CURVE('',#676,#678,#679,.T.);
#589=EDGE_CURVE('',#678,#680,#681,.T.);
#590=EDGE_CURVE('',#680,#675,#682,.T.);
#591=EDGE_CURVE('',#683,#683,#684,.F.);
#592=EDGE_CURVE('',#685,#685,#686,.F.);
#593=EDGE_CURVE('',#687,#687,#688,.F.);
#594=EDGE_CURVE('',#689,#689,#690,.F.);
#595=EDGE_CURVE('',#691,#691,#692,.F.);
#596=EDGE_CURVE('',#693,#693,#694,.F.);
#597=EDGE_CURVE('',#695,#695,#696,.F.);
#598=EDGE_CURVE('',#697,#697,#698,.F.);
#599=EDGE_CURVE('',#699,#699,#700,.F.);
#600=EDGE_CURVE('',#701,#701,#702,.F.);
#601=EDGE_CURVE('',#703,#703,#704,.F.);
#602=EDGE_CURVE('',#705,#705,#706,.F.);
#603=EDGE_CURVE('',#707,#707,#708,.F.);
#604=EDGE_CURVE('',#709,#709,#710,.F.);
#605=EDGE_CURVE('',#711,#711,#712,.F.);
#606=EDGE_CURVE('',#713,#713,#714,.F.);
#607=EDGE_CURVE('',#715,#715,#716,.F.);
#608=EDGE_CURVE('',#717,#717,#718,.F.);
#609=EDGE_CURVE('',#719,#719,#720,.F.);
#610=EDGE_CURVE('',#721,#721,#722,.F.);
#611=EDGE_CURVE('',#723,#723,#724,.F.);
#612=EDGE_CURVE('',#725,#725,#726,.F.);
#613=EDGE_CURVE('',#727,#727,#728,.F.);
#614=EDGE_CURVE('',#729,#729,#730,.F.);
#615=EDGE_CURVE('',#620,#675,#731,.T.);
#616=EDGE_CURVE('',#619,#680,#732,.T.);
#617=EDGE_CURVE('',#622,#678,#733,.T.);
#618=EDGE_CURVE('',#624,#676,#734,.T.);
#619=VERTEX_POINT('',#735);
#620=VERTEX_POINT('',#736);
#621=LINE('',#737,#738);
#622=VERTEX_POINT('',#740);
#623=LINE('',#741,#742);
#624=VERTEX_POINT('',#744);
#625=LINE('',#745,#746);
#626=LINE('',#748,#749);
#627=VERTEX_POINT('',#751);
#628=CIRCLE('',#752,1.7);
#629=VERTEX_POINT('',#756);
#630=CIRCLE('',#757,1.7);
#631=VERTEX_POINT('',#761);
#632=CIRCLE('',#762,1.7);
#633=VERTEX_POINT('',#766);
#634=CIRCLE('',#767,1.7);
#635=VERTEX_POINT('',#771);
#636=CIRCLE('',#772,1.7);
#637=VERTEX_POINT('',#776);
#638=CIRCLE('',#777,1.7);
#639=VERTEX_POINT('',#781);
#640=CIRCLE('',#782,1.7);
#641=VERTEX_POINT('',#786);
#642=CIRCLE('',#787,1.7);
#643=VERTEX_POINT('',#791);
#644=CIRCLE('',#792,1.7);
#645=VERTEX_POINT('',#796);
#646=CIRCLE('',#797,1.7);
#647=VERTEX_POINT('',#801);
#648=CIRCLE('',#802,1.7);
#649=VERTEX_POINT('',#806);
#650=CIRCLE('',#807,1.7);
#651=VERTEX_POINT('',#811);
#652=CIRCLE('',#812,1.7);
#653=VERTEX_POINT('',#816);
#654=CIRCLE('',#817,1.7);
#655=VERTEX_POINT('',#821);
#656=CIRCLE('',#822,1.7);
#657=VERTEX_POINT('',#826);
#658=CIRCLE('',#827,1.7);
#659=VERTEX_POINT('',#831);
#660=CIRCLE('',#832,1.7);
#661=VERTEX_POINT('',#836);
#662=CIRCLE('',#837,1.7);
#663=VERTEX_POINT('',#841);
#664=CIRCLE('',#842,1.7);
#665=VERTEX_POINT('',#846);
#666=CIRCLE('',#847,1.7);
#667=VERTEX_POINT('',#851);
#668=CIRCLE('',#852,1.7);
#669=VERTEX_POINT('',#856);
#670=CIRCLE('',#857,1.7);
#671=VERTEX_POINT('',#861);
#672=CIRCLE('',#862,1.7);
#673=VERTEX_POINT('',#866);
#674=CIRCLE('',#867,1.7);
#675=VERTEX_POINT('',#871);
#676=VERTEX_POINT('',#872);
#677=LINE('',#873,#874);
#678=VERTEX_POINT('',#876);
#679=LINE('',#877,#878);
#680=VERTEX_POINT('',#880);
#681=LINE('',#881,#882);
#682=LINE('',#884,#885);
#683=VERTEX_POINT('',#887);
#684=CIRCLE('',#888,1.7);
#685=VERTEX_POINT('',#892);
#686=CIRCLE('',#893,1.7);
#687=VERTEX_POINT('',#897);
#688=CIRCLE('',#898,1.7);
#689=VERTEX_POINT('',#902);
#690=CIRCLE('',#903,1.7);
#691=VERTEX_POINT('',#907);
#692=CIRCLE('',#908,1.7);
#693=VERTEX_POINT('',#912);
#694=CIRCLE('',#913,1.7);
#695=VERTEX_POINT('',#917);
#696=CIRCLE('',#918,1.7);
#697=VERTEX_POINT('',#922);
#698=CIRCLE('',#923,1.7);
#699=VERTEX_POINT('',#927);
#700=CIRCLE('',#928,1.7);
#701=VERTEX_POINT('',#932);
#702=CIRCLE('',#933,1.7);
#703=VERTEX_POINT('',#937);
#704=CIRCLE('',#938,1.7);
#705=VERTEX_POINT('',#942);
#706=CIRCLE('',#943,1.7);
#707=VERTEX_POINT('',#947);
#708=CIRCLE('',#948,1.7);
#709=VERTEX_POINT('',#952);
#710=CIRCLE('',#953,1.7);
#711=VERTEX_POINT('',#957);
#712=CIRCLE('',#958,1.7);
#713=VERTEX_POINT('',#962);
#714=CIRCLE('',#963,1.7);
#715=VERTEX_POINT('',#967);
#716=CIRCLE('',#968,1.7);
#717=VERTEX_POINT('',#972);
#718=CIRCLE('',#973,1.7);
#719=VERTEX_POINT('',#977);
#720=CIRCLE('',#978,1.7);
#721=VERTEX_POINT('',#982);
#722=CIRCLE('',#983,1.7);
#723=VERTEX_POINT('',#987);
#724=CIRCLE('',#988,1.7);
#725=VERTEX_POINT('',#992);
#726=CIRCLE('',#993,1.7);
#727=VERTEX_POINT('',#997);
#728=CIRCLE('',#998,1.7);
#729=VERTEX_POINT('',#1002);
#730=CIRCLE('',#1003,1.7);
#731=LINE('',#1007,#1008);
#732=LINE('',#1010,#1011);
#733=LINE('',#1013,#1014);
#734=LINE('',#1016,#1017);
#735=CARTESIAN_POINT('',(-101.116150673044,242.537675574523,314.579999047455));
#736=CARTESIAN_POINT('',(242.537576318735,-101.11638874694,314.579999047455));
#737=CARTESIAN_POINT('',(-101.116150673044,242.537675574523,314.579999047455));
#738=VECTOR('',#739,1.);
#739=DIRECTION('',(0.707106434139463,-0.707107128233462,0.));
#740=CARTESIAN_POINT('',(-101.116150673044,242.537675574523,1003.95999992714));
#741=CARTESIAN_POINT('',(-101.116150673044,242.537675574523,1003.95999992714));
#742=VECTOR('',#743,1.);
#743=DIRECTION('',(-4.1227928564995E-17,8.24558571299901E-17,-1.));
#744=CARTESIAN_POINT('',(242.537576318735,-101.11638874694,1003.95999992714));
#745=CARTESIAN_POINT('',(242.537576318735,-101.11638874694,1003.95999992714));
#746=VECTOR('',#747,1.);
#747=DIRECTION('',(-0.707106434139463,0.707107128233462,0.));
#748=CARTESIAN_POINT('',(242.537576318735,-101.11638874694,314.579999047455));
#749=VECTOR('',#750,1.);
#750=DIRECTION('',(0.,-4.1227928564995E-17,1.));
#751=CARTESIAN_POINT('',(223.940677263931,-82.5194714374646,322.279999961215));
#752=AXIS2_PLACEMENT_3D('',#753,#754,#755);
#753=CARTESIAN_POINT('',(222.738596325894,-81.3173893194677,322.279999962145));
#754=DIRECTION('',(-0.707107128233462,-0.707106434139463,0.));
#755=DIRECTION('',(0.707106434139463,-0.707107128233462,-5.47201499798311E-10));
#756=CARTESIAN_POINT('',(223.940677100867,-82.5194712744002,421.419999963572));
#757=AXIS2_PLACEMENT_3D('',#758,#759,#760);
#758=CARTESIAN_POINT('',(222.73859616283,-81.3173891564033,421.419999963572));
#759=DIRECTION('',(-0.707107128233462,-0.707106434139463,0.));
#760=DIRECTION('',(0.707106434139463,-0.707107128233462,0.));
#761=CARTESIAN_POINT('',(223.940677100867,-82.5194712744002,520.559999963571));
#762=AXIS2_PLACEMENT_3D('',#763,#764,#765);
#763=CARTESIAN_POINT('',(222.73859616283,-81.3173891564033,520.559999963571));
#764=DIRECTION('',(-0.707107128233462,-0.707106434139463,0.));
#765=DIRECTION('',(0.707106434139463,-0.707107128233462,0.));
#766=CARTESIAN_POINT('',(223.940677100867,-82.5194712744002,619.699999963571));
#767=AXIS2_PLACEMENT_3D('',#768,#769,#770);
#768=CARTESIAN_POINT('',(222.73859616283,-81.3173891564033,619.699999963571));
#769=DIRECTION('',(-0.707107128233462,-0.707106434139463,0.));
#770=DIRECTION('',(0.707106434139463,-0.707107128233462,0.));
#771=CARTESIAN_POINT('',(223.940677100867,-82.5194712744002,718.839999963572));
#772=AXIS2_PLACEMENT_3D('',#773,#774,#775);
#773=CARTESIAN_POINT('',(222.73859616283,-81.3173891564033,718.839999963572));
#774=DIRECTION('',(-0.707107128233462,-0.707106434139463,0.));
#775=DIRECTION('',(0.707106434139463,-0.707107128233462,0.));
#776=CARTESIAN_POINT('',(223.940677100867,-82.5194712744002,817.979999963571));
#777=AXIS2_PLACEMENT_3D('',#778,#779,#780);
#778=CARTESIAN_POINT('',(222.73859616283,-81.3173891564033,817.979999963571));
#779=DIRECTION('',(-0.707107128233462,-0.707106434139463,0.));
#780=DIRECTION('',(0.707106434139463,-0.707107128233462,0.));
#781=CARTESIAN_POINT('',(223.940677100867,-82.5194712744003,917.119999963572));
#782=AXIS2_PLACEMENT_3D('',#783,#784,#785);
#783=CARTESIAN_POINT('',(222.73859616283,-81.3173891564033,917.119999963572));
#784=DIRECTION('',(-0.707107128233462,-0.707106434139463,0.));
#785=DIRECTION('',(0.707106434139463,-0.707107128233462,0.));
#786=CARTESIAN_POINT('',(223.940678435545,-82.5194726090791,996.259998924372));
#787=AXIS2_PLACEMENT_3D('',#788,#789,#790);
#788=CARTESIAN_POINT('',(222.738597497508,-81.3173904910823,996.259998931036));
#789=DIRECTION('',(-0.707107128233462,-0.707106434139463,0.));
#790=DIRECTION('',(0.707106434139463,-0.707107128233462,-3.91992216464135E-9));
#791=CARTESIAN_POINT('',(71.912769627566,69.5085854291346,322.280000126725));
#792=AXIS2_PLACEMENT_3D('',#793,#794,#795);
#793=CARTESIAN_POINT('',(70.7106886895289,70.7106675471315,322.280000133389));
#794=DIRECTION('',(-0.707107128233462,-0.707106434139463,0.));
#795=DIRECTION('',(0.707106434139463,-0.707107128233462,-3.91992216464132E-9));
#796=CARTESIAN_POINT('',(71.9127687366516,69.5085863200499,421.42));
#797=AXIS2_PLACEMENT_3D('',#798,#799,#800);
#798=CARTESIAN_POINT('',(70.7106877986145,70.7106684380468,421.42));
#799=DIRECTION('',(-0.707107128233462,-0.707106434139463,0.));
#800=DIRECTION('',(0.707106434139463,-0.707107128233462,0.));
#801=CARTESIAN_POINT('',(71.9127687366516,69.5085863200499,520.56));
#802=AXIS2_PLACEMENT_3D('',#803,#804,#805);
#803=CARTESIAN_POINT('',(70.7106877986145,70.7106684380468,520.56));
#804=DIRECTION('',(-0.707107128233462,-0.707106434139463,0.));
#805=DIRECTION('',(0.707106434139463,-0.707107128233462,0.));
#806=CARTESIAN_POINT('',(71.9127687366516,69.5085863200499,619.7));
#807=AXIS2_PLACEMENT_3D('',#808,#809,#810);
#808=CARTESIAN_POINT('',(70.7106877986145,70.7106684380468,619.7));
#809=DIRECTION('',(-0.707107128233462,-0.707106434139463,0.));
#810=DIRECTION('',(0.707106434139463,-0.707107128233462,0.));
#811=CARTESIAN_POINT('',(71.9127687366516,69.5085863200499,718.84));
#812=AXIS2_PLACEMENT_3D('',#813,#814,#815);
#813=CARTESIAN_POINT('',(70.7106877986145,70.7106684380468,718.84));
#814=DIRECTION('',(-0.707107128233462,-0.707106434139463,0.));
#815=DIRECTION('',(0.707106434139463,-0.707107128233462,0.));
#816=CARTESIAN_POINT('',(71.9127687366516,69.5085863200499,817.98));
#817=AXIS2_PLACEMENT_3D('',#818,#819,#820);
#818=CARTESIAN_POINT('',(70.7106877986145,70.7106684380468,817.98));
#819=DIRECTION('',(-0.707107128233462,-0.707106434139463,0.));
#820=DIRECTION('',(0.707106434139463,-0.707107128233462,0.));
#821=CARTESIAN_POINT('',(71.9127687366516,69.5085863200499,917.12));
#822=AXIS2_PLACEMENT_3D('',#823,#824,#825);
#823=CARTESIAN_POINT('',(70.7106877986145,70.7106684380468,917.12));
#824=DIRECTION('',(-0.707107128233462,-0.707106434139463,0.));
#825=DIRECTION('',(0.707106434139463,-0.707107128233462,0.));
#826=CARTESIAN_POINT('',(69.5086068605772,71.9127505560438,996.259999552462));
#827=AXIS2_PLACEMENT_3D('',#828,#829,#830);
#828=CARTESIAN_POINT('',(70.7106877986143,70.7106684380469,996.259999552462));
#829=DIRECTION('',(-0.707107128233462,-0.707106434139463,0.));
#830=DIRECTION('',(-0.707106434139463,0.707107128233462,0.));
#831=CARTESIAN_POINT('',(-82.5193001505885,223.940806797443,322.280001540061));
#832=AXIS2_PLACEMENT_3D('',#833,#834,#835);
#833=CARTESIAN_POINT('',(-81.3172192125514,222.738724679446,322.280001532448));
#834=DIRECTION('',(-0.707107128233462,-0.707106434139463,0.));
#835=DIRECTION('',(-0.707106434139463,0.707107128233462,4.47809110054927E-9));
#836=CARTESIAN_POINT('',(-82.5193014850132,223.940808131869,421.419999963572));
#837=AXIS2_PLACEMENT_3D('',#838,#839,#840);
#838=CARTESIAN_POINT('',(-81.3172205469762,222.738726013872,421.419999963572));
#839=DIRECTION('',(-0.707107128233462,-0.707106434139463,0.));
#840=DIRECTION('',(-0.707106434139463,0.707107128233462,0.));
#841=CARTESIAN_POINT('',(-82.5193014850132,223.940808131869,520.559999963571));
#842=AXIS2_PLACEMENT_3D('',#843,#844,#845);
#843=CARTESIAN_POINT('',(-81.3172205469762,222.738726013872,520.559999963571));
#844=DIRECTION('',(-0.707107128233462,-0.707106434139463,0.));
#845=DIRECTION('',(-0.707106434139463,0.707107128233462,0.));
#846=CARTESIAN_POINT('',(-82.5193014850132,223.940808131869,619.699999963571));
#847=AXIS2_PLACEMENT_3D('',#848,#849,#850);
#848=CARTESIAN_POINT('',(-81.3172205469762,222.738726013872,619.699999963571));
#849=DIRECTION('',(-0.707107128233462,-0.707106434139463,0.));
#850=DIRECTION('',(-0.707106434139463,0.707107128233462,0.));
#851=CARTESIAN_POINT('',(-82.5193014850132,223.940808131869,718.839999963572));
#852=AXIS2_PLACEMENT_3D('',#853,#854,#855);
#853=CARTESIAN_POINT('',(-81.3172205469762,222.738726013872,718.839999963572));
#854=DIRECTION('',(-0.707107128233462,-0.707106434139463,0.));
#855=DIRECTION('',(-0.707106434139463,0.707107128233462,0.));
#856=CARTESIAN_POINT('',(-82.5193014850132,223.940808131869,817.979999963571));
#857=AXIS2_PLACEMENT_3D('',#858,#859,#860);
#858=CARTESIAN_POINT('',(-81.3172205469762,222.738726013872,817.979999963571));
#859=DIRECTION('',(-0.707107128233462,-0.707106434139463,0.));
#860=DIRECTION('',(-0.707106434139463,0.707107128233462,0.));
#861=CARTESIAN_POINT('',(-82.5193014850132,223.940808131869,917.119999963572));
#862=AXIS2_PLACEMENT_3D('',#863,#864,#865);
#863=CARTESIAN_POINT('',(-81.3172205469762,222.738726013872,917.119999963572));
#864=DIRECTION('',(-0.707107128233462,-0.707106434139463,0.));
#865=DIRECTION('',(-0.707106434139463,0.707107128233462,0.));
#866=CARTESIAN_POINT('',(-82.5193028196911,223.940809466548,996.259998924372));
#867=AXIS2_PLACEMENT_3D('',#868,#869,#870);
#868=CARTESIAN_POINT('',(-81.317221881654,222.738727348551,996.259998931036));
#869=DIRECTION('',(-0.707107128233462,-0.707106434139463,0.));
#870=DIRECTION('',(-0.707106434139463,0.707107128233462,-3.91992216464135E-9));
#871=CARTESIAN_POINT('',(240.416254934034,-103.237708049358,314.579999047455));
#872=CARTESIAN_POINT('',(240.416254934034,-103.237708049358,1003.95999992714));
#873=CARTESIAN_POINT('',(240.416254934034,-103.237708049358,314.579999047455));
#874=VECTOR('',#875,1.);
#875=DIRECTION('',(4.1227928564995E-17,-2.06139642824975E-17,1.));
#876=CARTESIAN_POINT('',(-103.237472057744,240.416356272104,1003.95999992714));
#877=CARTESIAN_POINT('',(240.416254934034,-103.237708049358,1003.95999992714));
#878=VECTOR('',#879,1.);
#879=DIRECTION('',(-0.707106434139463,0.707107128233462,0.));
#880=CARTESIAN_POINT('',(-103.237472057744,240.416356272104,314.579999047455));
#881=CARTESIAN_POINT('',(-103.237472057744,240.416356272104,1003.95999992714));
#882=VECTOR('',#883,1.);
#883=DIRECTION('',(-4.1227928564995E-17,8.24558571299901E-17,-1.));
#884=CARTESIAN_POINT('',(-103.237472057744,240.416356272104,314.579999047455));
#885=VECTOR('',#886,1.);
#886=DIRECTION('',(0.707106434139463,-0.707107128233462,0.));
#887=CARTESIAN_POINT('',(221.819355879231,-84.6407907398829,322.279999961215));
#888=AXIS2_PLACEMENT_3D('',#889,#890,#891);
#889=CARTESIAN_POINT('',(220.617274941194,-83.438708621886,322.279999962145));
#890=DIRECTION('',(-0.707107128233462,-0.707106434139463,0.));
#891=DIRECTION('',(0.707106434139463,-0.707107128233462,-5.47201499798311E-10));
#892=CARTESIAN_POINT('',(221.819355716167,-84.6407905768186,421.419999963572));
#893=AXIS2_PLACEMENT_3D('',#894,#895,#896);
#894=CARTESIAN_POINT('',(220.61727477813,-83.4387084588217,421.419999963572));
#895=DIRECTION('',(-0.707107128233462,-0.707106434139463,0.));
#896=DIRECTION('',(0.707106434139463,-0.707107128233462,0.));
#897=CARTESIAN_POINT('',(221.819355716167,-84.6407905768186,520.559999963571));
#898=AXIS2_PLACEMENT_3D('',#899,#900,#901);
#899=CARTESIAN_POINT('',(220.61727477813,-83.4387084588217,520.559999963571));
#900=DIRECTION('',(-0.707107128233462,-0.707106434139463,0.));
#901=DIRECTION('',(0.707106434139463,-0.707107128233462,0.));
#902=CARTESIAN_POINT('',(221.819355716167,-84.6407905768186,619.699999963571));
#903=AXIS2_PLACEMENT_3D('',#904,#905,#906);
#904=CARTESIAN_POINT('',(220.61727477813,-83.4387084588217,619.699999963571));
#905=DIRECTION('',(-0.707107128233462,-0.707106434139463,0.));
#906=DIRECTION('',(0.707106434139463,-0.707107128233462,0.));
#907=CARTESIAN_POINT('',(221.819355716167,-84.6407905768186,718.839999963572));
#908=AXIS2_PLACEMENT_3D('',#909,#910,#911);
#909=CARTESIAN_POINT('',(220.61727477813,-83.4387084588217,718.839999963572));
#910=DIRECTION('',(-0.707107128233462,-0.707106434139463,0.));
#911=DIRECTION('',(0.707106434139463,-0.707107128233462,0.));
#912=CARTESIAN_POINT('',(221.819355716167,-84.6407905768186,817.979999963571));
#913=AXIS2_PLACEMENT_3D('',#914,#915,#916);
#914=CARTESIAN_POINT('',(220.61727477813,-83.4387084588217,817.979999963571));
#915=DIRECTION('',(-0.707107128233462,-0.707106434139463,0.));
#916=DIRECTION('',(0.707106434139463,-0.707107128233462,0.));
#917=CARTESIAN_POINT('',(221.819355716167,-84.6407905768186,917.119999963572));
#918=AXIS2_PLACEMENT_3D('',#919,#920,#921);
#919=CARTESIAN_POINT('',(220.61727477813,-83.4387084588217,917.119999963572));
#920=DIRECTION('',(-0.707107128233462,-0.707106434139463,0.));
#921=DIRECTION('',(0.707106434139463,-0.707107128233462,0.));
#922=CARTESIAN_POINT('',(221.819357050844,-84.6407919114975,996.259998924372));
#923=AXIS2_PLACEMENT_3D('',#924,#925,#926);
#924=CARTESIAN_POINT('',(220.617276112807,-83.4387097935006,996.259998931036));
#925=DIRECTION('',(-0.707107128233462,-0.707106434139463,0.));
#926=DIRECTION('',(0.707106434139463,-0.707107128233462,-3.91992216464135E-9));
#927=CARTESIAN_POINT('',(69.7914482428656,67.3872661267162,322.280000126725));
#928=AXIS2_PLACEMENT_3D('',#929,#930,#931);
#929=CARTESIAN_POINT('',(68.5893673048285,68.5893482447131,322.280000133389));
#930=DIRECTION('',(-0.707107128233462,-0.707106434139463,0.));
#931=DIRECTION('',(0.707106434139463,-0.707107128233462,-3.91992216464132E-9));
#932=CARTESIAN_POINT('',(69.7914473519512,67.3872670176315,421.42));
#933=AXIS2_PLACEMENT_3D('',#934,#935,#936);
#934=CARTESIAN_POINT('',(68.5893664139141,68.5893491356284,421.42));
#935=DIRECTION('',(-0.707107128233462,-0.707106434139463,0.));
#936=DIRECTION('',(0.707106434139463,-0.707107128233462,0.));
#937=CARTESIAN_POINT('',(69.7914473519512,67.3872670176315,520.56));
#938=AXIS2_PLACEMENT_3D('',#939,#940,#941);
#939=CARTESIAN_POINT('',(68.5893664139141,68.5893491356284,520.56));
#940=DIRECTION('',(-0.707107128233462,-0.707106434139463,0.));
#941=DIRECTION('',(0.707106434139463,-0.707107128233462,0.));
#942=CARTESIAN_POINT('',(69.7914473519512,67.3872670176315,619.7));
#943=AXIS2_PLACEMENT_3D('',#944,#945,#946);
#944=CARTESIAN_POINT('',(68.5893664139141,68.5893491356284,619.7));
#945=DIRECTION('',(-0.707107128233462,-0.707106434139463,0.));
#946=DIRECTION('',(0.707106434139463,-0.707107128233462,0.));
#947=CARTESIAN_POINT('',(69.7914473519512,67.3872670176315,718.84));
#948=AXIS2_PLACEMENT_3D('',#949,#950,#951);
#949=CARTESIAN_POINT('',(68.5893664139141,68.5893491356284,718.84));
#950=DIRECTION('',(-0.707107128233462,-0.707106434139463,0.));
#951=DIRECTION('',(0.707106434139463,-0.707107128233462,0.));
#952=CARTESIAN_POINT('',(69.7914473519512,67.3872670176315,817.98));
#953=AXIS2_PLACEMENT_3D('',#954,#955,#956);
#954=CARTESIAN_POINT('',(68.5893664139141,68.5893491356284,817.98));
#955=DIRECTION('',(-0.707107128233462,-0.707106434139463,0.));
#956=DIRECTION('',(0.707106434139463,-0.707107128233462,0.));
#957=CARTESIAN_POINT('',(69.7914473519512,67.3872670176315,917.12));
#958=AXIS2_PLACEMENT_3D('',#959,#960,#961);
#959=CARTESIAN_POINT('',(68.5893664139141,68.5893491356284,917.12));
#960=DIRECTION('',(-0.707107128233462,-0.707106434139463,0.));
#961=DIRECTION('',(0.707106434139463,-0.707107128233462,0.));
#962=CARTESIAN_POINT('',(67.3872854758769,69.7914312536254,996.259999552462));
#963=AXIS2_PLACEMENT_3D('',#964,#965,#966);
#964=CARTESIAN_POINT('',(68.589366413914,68.5893491356286,996.259999552462));
#965=DIRECTION('',(-0.707107128233462,-0.707106434139463,0.));
#966=DIRECTION('',(-0.707106434139463,0.707107128233462,0.));
#967=CARTESIAN_POINT('',(-84.6406215352889,221.819487495024,322.280001540061));
#968=AXIS2_PLACEMENT_3D('',#969,#970,#971);
#969=CARTESIAN_POINT('',(-83.4385405972518,220.617405377027,322.280001532448));
#970=DIRECTION('',(-0.707107128233462,-0.707106434139463,0.));
#971=DIRECTION('',(-0.707106434139463,0.707107128233462,4.47809110054927E-9));
#972=CARTESIAN_POINT('',(-84.6406228697136,221.81948882945,421.419999963572));
#973=AXIS2_PLACEMENT_3D('',#974,#975,#976);
#974=CARTESIAN_POINT('',(-83.4385419316765,220.617406711453,421.419999963572));
#975=DIRECTION('',(-0.707107128233462,-0.707106434139463,0.));
#976=DIRECTION('',(-0.707106434139463,0.707107128233462,0.));
#977=CARTESIAN_POINT('',(-84.6406228697136,221.81948882945,520.559999963571));
#978=AXIS2_PLACEMENT_3D('',#979,#980,#981);
#979=CARTESIAN_POINT('',(-83.4385419316765,220.617406711453,520.559999963571));
#980=DIRECTION('',(-0.707107128233462,-0.707106434139463,0.));
#981=DIRECTION('',(-0.707106434139463,0.707107128233462,0.));
#982=CARTESIAN_POINT('',(-84.6406228697136,221.81948882945,619.699999963571));
#983=AXIS2_PLACEMENT_3D('',#984,#985,#986);
#984=CARTESIAN_POINT('',(-83.4385419316765,220.617406711453,619.699999963571));
#985=DIRECTION('',(-0.707107128233462,-0.707106434139463,0.));
#986=DIRECTION('',(-0.707106434139463,0.707107128233462,0.));
#987=CARTESIAN_POINT('',(-84.6406228697136,221.81948882945,718.839999963572));
#988=AXIS2_PLACEMENT_3D('',#989,#990,#991);
#989=CARTESIAN_POINT('',(-83.4385419316766,220.617406711454,718.839999963572));
#990=DIRECTION('',(-0.707107128233462,-0.707106434139463,0.));
#991=DIRECTION('',(-0.707106434139463,0.707107128233462,0.));
#992=CARTESIAN_POINT('',(-84.6406228697136,221.81948882945,817.979999963571));
#993=AXIS2_PLACEMENT_3D('',#994,#995,#996);
#994=CARTESIAN_POINT('',(-83.4385419316766,220.617406711454,817.979999963571));
#995=DIRECTION('',(-0.707107128233462,-0.707106434139463,0.));
#996=DIRECTION('',(-0.707106434139463,0.707107128233462,0.));
#997=CARTESIAN_POINT('',(-84.6406228697136,221.81948882945,917.119999963572));
#998=AXIS2_PLACEMENT_3D('',#999,#1000,#1001);
#999=CARTESIAN_POINT('',(-83.4385419316766,220.617406711454,917.119999963572));
#1000=DIRECTION('',(-0.707107128233462,-0.707106434139463,0.));
#1001=DIRECTION('',(-0.707106434139463,0.707107128233462,0.));
#1002=CARTESIAN_POINT('',(-84.6406242043915,221.81949016413,996.259998924372));
#1003=AXIS2_PLACEMENT_3D('',#1004,#1005,#1006);
#1004=CARTESIAN_POINT('',(-83.4385432663544,220.617408046133,996.259998931036));
#1005=DIRECTION('',(-0.707107128233462,-0.707106434139463,0.));
#1006=DIRECTION('',(-0.707106434139463,0.707107128233462,-3.91992216464135E-9));
#1007=CARTESIAN_POINT('',(242.537576318735,-101.11638874694,314.579999047455));
#1008=VECTOR('',#1009,1.);
#1009=DIRECTION('',(-0.707107128233459,-0.707106434139466,0.));
#1010=CARTESIAN_POINT('',(-101.116150673044,242.537675574523,314.579999047455));
#1011=VECTOR('',#1012,1.);
#1012=DIRECTION('',(-0.707107128233462,-0.707106434139463,0.));
#1013=CARTESIAN_POINT('',(-101.116150673044,242.537675574523,1003.95999992714));
#1014=VECTOR('',#1015,1.);
#1015=DIRECTION('',(-0.707107128233459,-0.707106434139466,0.));
#1016=CARTESIAN_POINT('',(242.537576318735,-101.11638874694,1003.95999992714));
#1017=VECTOR('',#1018,1.);
#1018=DIRECTION('',(-0.707107128233461,-0.707106434139463,0.));
ENDSEC;
END-ISO-10303-21;
