ISO-10303-21;
HEADER;
FILE_DESCRIPTION(('STEP AP214'),
    '1');
FILE_NAME('Middle_Lvl_Plane',
    '',
    ('UNSPECIFIED'),
    ('UNSPECIFIED'),
    'C3D Converter',
    'C3D Toolkit',
    '');
FILE_SCHEMA(('AUTOMOTIVE_DESIGN { 1 0 10303 214 3 1 1}'));
ENDSEC;

DATA;
#1=PRODUCT_DEFINITION('','UNSPECIFIED',#30,#33);
#2=SHAPE_DEFINITION_REPRESENTATION(#28,#3);
#3=SHAPE_REPRESENTATION('NONE',(#4),#8);
#4=AXIS2_PLACEMENT_3D('',#5,#6,#7);
#5=CARTESIAN_POINT('',(0.,0.,0.));
#6=DIRECTION('',(0.,0.,1.));
#7=DIRECTION('',(1.,0.,0.));
#8=(GEOMETRIC_REPRESENTATION_CONTEXT(3)GLOBAL_UNCERTAINTY_ASSIGNED_CONTEXT((#10))
GLOBAL_UNIT_ASSIGNED_CONTEXT((#9,#11,#12))REPRESENTATION_CONTEXT('NONE','NONE'));
#9=(LENGTH_UNIT()NAMED_UNIT(*)SI_UNIT(.MILLI.,.METRE.));
#10=UNCERTAINTY_MEASURE_WITH_UNIT(LENGTH_MEASURE(1.E-5),#9,'NONE','NONE');
#11=(NAMED_UNIT(*)PLANE_ANGLE_UNIT()SI_UNIT($,.RADIAN.));
#12=(NAMED_UNIT(*)SI_UNIT($,.STERADIAN.)SOLID_ANGLE_UNIT());
#13=MANIFOLD_SOLID_BREP('',#14);
#14=CLOSED_SHELL('',(#55,#56,#57,#58,#59,#60,#61,#62,#63,#64,#65,#66,#67,#68,#69,
#70,#71,#72,#73,#74,#75,#76,#77,#78,#79,#80,#81,#82,#83,#84,#85,#86));
#15=COLOUR_RGB('',0.847058823529412,0.847058823529412,0.847058823529412);
#16=FILL_AREA_STYLE_COLOUR('',#15);
#17=FILL_AREA_STYLE($,(#16));
#18=SURFACE_STYLE_FILL_AREA(#17);
#19=SURFACE_SIDE_STYLE('',(#18,#23));
#20=SURFACE_STYLE_USAGE(.BOTH.,#19);
#21=PRESENTATION_STYLE_ASSIGNMENT((#20));
#22=SURFACE_STYLE_TRANSPARENT(0.498000025749207);
#23=SURFACE_STYLE_RENDERING_WITH_PROPERTIES(.UNSPECIFIED.,$,(#22));
#24=MECHANICAL_DESIGN_GEOMETRIC_PRESENTATION_REPRESENTATION('NONE',(#25),#8);
#25=STYLED_ITEM('',(#21),#13);
#26=ADVANCED_BREP_SHAPE_REPRESENTATION('NONE',(#13),#8);
#27=SHAPE_REPRESENTATION_RELATIONSHIP('','',#3,#26);
#28=PRODUCT_DEFINITION_SHAPE('NONE','NONE',#1);
#29=MECHANICAL_CONTEXT('NONE',#34,'mechanical');
#30=PRODUCT_DEFINITION_FORMATION_WITH_SPECIFIED_SOURCE('ANY','UNSPECIFIED',#31,.NOT_KNOWN.);
#31=PRODUCT('','Middle_Lvl_Plane','NONE',(#29));
#32=PRODUCT_RELATED_PRODUCT_CATEGORY('detail','',(#31));
#33=DESIGN_CONTEXT('detailed design',#34,'design');
#34=APPLICATION_CONTEXT('configuration controlled 3d designs of mechanical parts and assemblies');
#35=APPLICATION_PROTOCOL_DEFINITION('international standard','config_control_design',
1994,#34);
#36=CC_DESIGN_DATE_AND_TIME_ASSIGNMENT(#37,#41,(#1));
#37=DATE_AND_TIME(#38,#39);
#38=CALENDAR_DATE(0,1,1);
#39=LOCAL_TIME(0,0,0.,#40);
#40=COORDINATED_UNIVERSAL_TIME_OFFSET(0,0,.AHEAD.);
#41=DATE_TIME_ROLE('creation_date');
#42=CC_DESIGN_APPROVAL(#43,(#1));
#43=APPROVAL(#44,'UNSPECIFIED');
#44=APPROVAL_STATUS('not_yet_approved');
#45=APPROVAL_DATE_TIME(#46,#43);
#46=DATE_AND_TIME(#47,#48);
#47=CALENDAR_DATE(0,1,1);
#48=LOCAL_TIME(0,0,0.,#49);
#49=COORDINATED_UNIVERSAL_TIME_OFFSET(0,0,.AHEAD.);
#50=PERSON('UNSPECIFIED','User','UNSPECIFIED',('UNSPECIFIED'),('UNSPECIFIED'),('UNSPECIFIED'));
#51=ORGANIZATION('UNSPECIFIED','UNSPECIFIED','UNSPECIFIED');
#52=PERSON_AND_ORGANIZATION(#50,#51);
#53=PERSON_AND_ORGANIZATION_ROLE('creator');
#54=CC_DESIGN_PERSON_AND_ORGANIZATION_ASSIGNMENT(#52,#53,(#30,#1));
#55=ADVANCED_FACE('',(#87,#89,#91,#93,#95,#97,#99,#101,#103,#105,#107,#109,#111,
#113,#115,#117,#119,#121,#123,#125,#127),#129,.F.);
#56=ADVANCED_FACE('',(#134,#136,#138,#140,#142,#144,#146,#148,#150,#152,#154,#156,
#158,#160,#162,#164,#166,#168,#170,#172,#174),#176,.T.);
#57=ADVANCED_FACE('',(#181),#183,.F.);
#58=ADVANCED_FACE('',(#188),#190,.F.);
#59=ADVANCED_FACE('',(#195),#197,.F.);
#60=ADVANCED_FACE('',(#202),#204,.F.);
#61=ADVANCED_FACE('',(#209),#211,.F.);
#62=ADVANCED_FACE('',(#216),#218,.F.);
#63=ADVANCED_FACE('',(#223),#225,.F.);
#64=ADVANCED_FACE('',(#230),#232,.F.);
#65=ADVANCED_FACE('',(#237,#239),#241,.F.);
#66=ADVANCED_FACE('',(#246,#248),#250,.F.);
#67=ADVANCED_FACE('',(#255,#257),#259,.F.);
#68=ADVANCED_FACE('',(#264,#266),#268,.F.);
#69=ADVANCED_FACE('',(#273,#275),#277,.F.);
#70=ADVANCED_FACE('',(#282,#284),#286,.F.);
#71=ADVANCED_FACE('',(#291,#293),#295,.F.);
#72=ADVANCED_FACE('',(#300,#302),#304,.F.);
#73=ADVANCED_FACE('',(#309),#311,.T.);
#74=ADVANCED_FACE('',(#316),#318,.T.);
#75=ADVANCED_FACE('',(#323),#325,.T.);
#76=ADVANCED_FACE('',(#330),#332,.T.);
#77=ADVANCED_FACE('',(#337,#339),#341,.F.);
#78=ADVANCED_FACE('',(#346,#348),#350,.F.);
#79=ADVANCED_FACE('',(#355,#357),#359,.F.);
#80=ADVANCED_FACE('',(#364,#366),#368,.F.);
#81=ADVANCED_FACE('',(#373,#375),#377,.F.);
#82=ADVANCED_FACE('',(#382,#384),#386,.F.);
#83=ADVANCED_FACE('',(#391,#393),#395,.F.);
#84=ADVANCED_FACE('',(#400,#402),#404,.F.);
#85=ADVANCED_FACE('',(#409,#411),#413,.F.);
#86=ADVANCED_FACE('',(#418,#420),#422,.F.);
#87=FACE_BOUND('',#88,.T.);
#88=EDGE_LOOP('',(#427,#428,#429,#430));
#89=FACE_BOUND('',#90,.T.);
#90=EDGE_LOOP('',(#431));
#91=FACE_BOUND('',#92,.T.);
#92=EDGE_LOOP('',(#432));
#93=FACE_BOUND('',#94,.T.);
#94=EDGE_LOOP('',(#433));
#95=FACE_BOUND('',#96,.T.);
#96=EDGE_LOOP('',(#434));
#97=FACE_BOUND('',#98,.T.);
#98=EDGE_LOOP('',(#435));
#99=FACE_BOUND('',#100,.T.);
#100=EDGE_LOOP('',(#436));
#101=FACE_BOUND('',#102,.T.);
#102=EDGE_LOOP('',(#437));
#103=FACE_BOUND('',#104,.T.);
#104=EDGE_LOOP('',(#438));
#105=FACE_BOUND('',#106,.T.);
#106=EDGE_LOOP('',(#439,#440,#441,#442));
#107=FACE_BOUND('',#108,.T.);
#108=EDGE_LOOP('',(#443,#444,#445,#446));
#109=FACE_BOUND('',#110,.T.);
#110=EDGE_LOOP('',(#447));
#111=FACE_BOUND('',#112,.T.);
#112=EDGE_LOOP('',(#448));
#113=FACE_BOUND('',#114,.T.);
#114=EDGE_LOOP('',(#449));
#115=FACE_BOUND('',#116,.T.);
#116=EDGE_LOOP('',(#450));
#117=FACE_BOUND('',#118,.T.);
#118=EDGE_LOOP('',(#451));
#119=FACE_BOUND('',#120,.T.);
#120=EDGE_LOOP('',(#452));
#121=FACE_BOUND('',#122,.T.);
#122=EDGE_LOOP('',(#453));
#123=FACE_BOUND('',#124,.T.);
#124=EDGE_LOOP('',(#454));
#125=FACE_BOUND('',#126,.T.);
#126=EDGE_LOOP('',(#455));
#127=FACE_BOUND('',#128,.T.);
#128=EDGE_LOOP('',(#456));
#129=PLANE('',#130);
#130=AXIS2_PLACEMENT_3D('',#131,#132,#133);
#131=CARTESIAN_POINT('',(-5.50586731710001E-32,2.68983535113691E-64,409.419999927143));
#132=DIRECTION('',(-5.89212380997922E-17,-8.48811376265507E-17,1.));
#133=DIRECTION('',(6.12323399573677E-17,1.,8.48811376265507E-17));
#134=FACE_BOUND('',#135,.T.);
#135=EDGE_LOOP('',(#457,#458,#459,#460));
#136=FACE_BOUND('',#137,.T.);
#137=EDGE_LOOP('',(#461));
#138=FACE_BOUND('',#139,.T.);
#139=EDGE_LOOP('',(#462));
#140=FACE_BOUND('',#141,.T.);
#141=EDGE_LOOP('',(#463));
#142=FACE_BOUND('',#143,.T.);
#143=EDGE_LOOP('',(#464));
#144=FACE_BOUND('',#145,.T.);
#145=EDGE_LOOP('',(#465));
#146=FACE_BOUND('',#147,.T.);
#147=EDGE_LOOP('',(#466));
#148=FACE_BOUND('',#149,.T.);
#149=EDGE_LOOP('',(#467));
#150=FACE_BOUND('',#151,.T.);
#151=EDGE_LOOP('',(#468));
#152=FACE_BOUND('',#153,.T.);
#153=EDGE_LOOP('',(#469,#470,#471,#472));
#154=FACE_BOUND('',#155,.T.);
#155=EDGE_LOOP('',(#473,#474,#475,#476));
#156=FACE_BOUND('',#157,.T.);
#157=EDGE_LOOP('',(#477));
#158=FACE_BOUND('',#159,.T.);
#159=EDGE_LOOP('',(#478));
#160=FACE_BOUND('',#161,.T.);
#161=EDGE_LOOP('',(#479));
#162=FACE_BOUND('',#163,.T.);
#163=EDGE_LOOP('',(#480));
#164=FACE_BOUND('',#165,.T.);
#165=EDGE_LOOP('',(#481));
#166=FACE_BOUND('',#167,.T.);
#167=EDGE_LOOP('',(#482));
#168=FACE_BOUND('',#169,.T.);
#169=EDGE_LOOP('',(#483));
#170=FACE_BOUND('',#171,.T.);
#171=EDGE_LOOP('',(#484));
#172=FACE_BOUND('',#173,.T.);
#173=EDGE_LOOP('',(#485));
#174=FACE_BOUND('',#175,.T.);
#175=EDGE_LOOP('',(#486));
#176=PLANE('',#177);
#177=AXIS2_PLACEMENT_3D('',#178,#179,#180);
#178=CARTESIAN_POINT('',(-2.35684952399169E-16,-3.39524550506203E-16,413.419999927143));
#179=DIRECTION('',(-5.89212380997922E-17,-8.48811376265507E-17,1.));
#180=DIRECTION('',(6.12323399573677E-17,1.,8.48811376265507E-17));
#181=FACE_BOUND('',#182,.T.);
#182=EDGE_LOOP('',(#487,#488,#489,#490));
#183=CYLINDRICAL_SURFACE('',#184,10.);
#184=AXIS2_PLACEMENT_3D('',#185,#186,#187);
#185=CARTESIAN_POINT('',(38.6433983409632,158.356601895114,403.419999927143));
#186=DIRECTION('',(-5.89212380997922E-17,-8.48811376265507E-17,1.));
#187=DIRECTION('',(0.707106781185104,0.707106781187991,1.0168363502687E-16));
#188=FACE_BOUND('',#189,.T.);
#189=EDGE_LOOP('',(#491,#492,#493,#494));
#190=PLANE('',#191);
#191=AXIS2_PLACEMENT_3D('',#192,#193,#194);
#192=CARTESIAN_POINT('',(66.927669588454,144.214466271441,403.419999927143));
#193=DIRECTION('',(0.707106781185104,0.707106781187991,0.));
#194=DIRECTION('',(-0.707106781187991,0.707106781185104,0.));
#195=FACE_BOUND('',#196,.T.);
#196=EDGE_LOOP('',(#495,#496,#497,#498));
#197=CYLINDRICAL_SURFACE('',#198,10.);
#198=AXIS2_PLACEMENT_3D('',#199,#200,#201);
#199=CARTESIAN_POINT('',(59.856601776603,137.143398459561,403.419999927143));
#200=DIRECTION('',(-5.89212380997922E-17,-8.48811376265507E-17,1.));
#201=DIRECTION('',(-0.707106781185103,-0.707106781187992,-1.0168363502687E-16));
#202=FACE_BOUND('',#203,.T.);
#203=EDGE_LOOP('',(#499,#500,#501,#502));
#204=PLANE('',#205);
#205=AXIS2_PLACEMENT_3D('',#206,#207,#208);
#206=CARTESIAN_POINT('',(31.5723305291122,151.285534083234,403.419999927143));
#207=DIRECTION('',(-0.707106781185104,-0.707106781187991,0.));
#208=DIRECTION('',(0.707106781187991,-0.707106781185104,0.));
#209=FACE_BOUND('',#210,.T.);
#210=EDGE_LOOP('',(#503,#504,#505,#506));
#211=CYLINDRICAL_SURFACE('',#212,9.99999999999999);
#212=AXIS2_PLACEMENT_3D('',#213,#214,#215);
#213=CARTESIAN_POINT('',(158.356601894956,38.6433983416104,403.419999927143));
#214=DIRECTION('',(-5.89212380997922E-17,-8.48811376265507E-17,1.));
#215=DIRECTION('',(-0.707106781185102,-0.707106781187993,-1.0168363502687E-16));
#216=FACE_BOUND('',#217,.T.);
#217=EDGE_LOOP('',(#507,#508,#509,#510));
#218=PLANE('',#219);
#219=AXIS2_PLACEMENT_3D('',#220,#221,#222);
#220=CARTESIAN_POINT('',(130.072330647465,52.7855339652836,403.419999927143));
#221=DIRECTION('',(-0.707106781185102,-0.707106781187993,0.));
#222=DIRECTION('',(0.707106781187993,-0.707106781185102,0.));
#223=FACE_BOUND('',#224,.T.);
#224=EDGE_LOOP('',(#511,#512,#513,#514));
#225=CYLINDRICAL_SURFACE('',#226,9.99999999999999);
#226=AXIS2_PLACEMENT_3D('',#227,#228,#229);
#227=CARTESIAN_POINT('',(137.143398459316,59.8566017771635,403.419999927143));
#228=DIRECTION('',(-5.89212380997922E-17,-8.48811376265507E-17,1.));
#229=DIRECTION('',(0.707106781185102,0.707106781187994,1.0168363502687E-16));
#230=FACE_BOUND('',#231,.T.);
#231=EDGE_LOOP('',(#515,#516,#517,#518));
#232=PLANE('',#233);
#233=AXIS2_PLACEMENT_3D('',#234,#235,#236);
#234=CARTESIAN_POINT('',(165.427669706807,45.7144661534904,403.419999927143));
#235=DIRECTION('',(0.707106781185102,0.707106781187993,0.));
#236=DIRECTION('',(-0.707106781187993,0.707106781185102,0.));
#237=FACE_OUTER_BOUND('',#238,.T.);
#238=EDGE_LOOP('',(#519));
#239=FACE_OUTER_BOUND('',#240,.T.);
#240=EDGE_LOOP('',(#520));
#241=CYLINDRICAL_SURFACE('',#242,1.7);
#242=AXIS2_PLACEMENT_3D('',#243,#244,#245);
#243=CARTESIAN_POINT('',(-79.5196015868379,237.078527357774,403.419999927143));
#244=DIRECTION('',(-5.89212380997922E-17,-8.48811376265507E-17,1.));
#245=DIRECTION('',(-9.79489965798137E-7,-0.99999999999952,-8.48811953392715E-17));
#246=FACE_OUTER_BOUND('',#247,.T.);
#247=EDGE_LOOP('',(#521));
#248=FACE_OUTER_BOUND('',#249,.T.);
#249=EDGE_LOOP('',(#522));
#250=CYLINDRICAL_SURFACE('',#251,1.7);
#251=AXIS2_PLACEMENT_3D('',#252,#253,#254);
#252=CARTESIAN_POINT('',(-36.952996588953,238.732403865314,403.419999927143));
#253=DIRECTION('',(-5.89212380997922E-17,-8.48811376265507E-17,1.));
#254=DIRECTION('',(0.999999999999521,-9.79489965798141E-7,5.89211549595414E-17));
#255=FACE_OUTER_BOUND('',#256,.T.);
#256=EDGE_LOOP('',(#523));
#257=FACE_OUTER_BOUND('',#258,.T.);
#258=EDGE_LOOP('',(#524));
#259=CYLINDRICAL_SURFACE('',#260,1.7);
#260=AXIS2_PLACEMENT_3D('',#261,#262,#263);
#261=CARTESIAN_POINT('',(86.974166296021,116.672601192483,403.419999927143));
#262=DIRECTION('',(-5.89212380997922E-17,-8.48811376265507E-17,1.));
#263=DIRECTION('',(1.,-6.12323399573677E-17,5.89212380997922E-17));
#264=FACE_OUTER_BOUND('',#265,.T.);
#265=EDGE_LOOP('',(#525));
#266=FACE_OUTER_BOUND('',#267,.T.);
#267=EDGE_LOOP('',(#526));
#268=CYLINDRICAL_SURFACE('',#269,1.7);
#269=AXIS2_PLACEMENT_3D('',#270,#271,#272);
#270=CARTESIAN_POINT('',(67.1751667337937,96.8736210827683,403.419999927143));
#271=DIRECTION('',(-5.89212380997922E-17,-8.48811376265507E-17,1.));
#272=DIRECTION('',(-1.,6.12323399573677E-17,-5.89212380997922E-17));
#273=FACE_OUTER_BOUND('',#274,.T.);
#274=EDGE_LOOP('',(#527));
#275=FACE_OUTER_BOUND('',#276,.T.);
#276=EDGE_LOOP('',(#528));
#277=CYLINDRICAL_SURFACE('',#278,1.7);
#278=AXIS2_PLACEMENT_3D('',#279,#280,#281);
#279=CARTESIAN_POINT('',(116.672636561168,86.9741018379679,403.419999927143));
#280=DIRECTION('',(-5.89212380997922E-17,-8.48811376265507E-17,1.));
#281=DIRECTION('',(1.,-6.12323399573677E-17,5.89212380997922E-17));
#282=FACE_OUTER_BOUND('',#283,.T.);
#283=EDGE_LOOP('',(#529));
#284=FACE_OUTER_BOUND('',#285,.T.);
#285=EDGE_LOOP('',(#530));
#286=CYLINDRICAL_SURFACE('',#287,1.7);
#287=AXIS2_PLACEMENT_3D('',#288,#289,#290);
#288=CARTESIAN_POINT('',(96.8736369989412,67.1751217282529,403.419999927143));
#289=DIRECTION('',(-5.89212380997922E-17,-8.48811376265507E-17,1.));
#290=DIRECTION('',(-1.,6.12323399573677E-17,-5.89212380997922E-17));
#291=FACE_OUTER_BOUND('',#292,.T.);
#292=EDGE_LOOP('',(#531));
#293=FACE_OUTER_BOUND('',#294,.T.);
#294=EDGE_LOOP('',(#532));
#295=CYLINDRICAL_SURFACE('',#296,1.7);
#296=AXIS2_PLACEMENT_3D('',#297,#298,#299);
#297=CARTESIAN_POINT('',(238.732317788913,-36.9531805437126,403.419999927143));
#298=DIRECTION('',(-5.89212380997922E-17,-8.48811376265507E-17,1.));
#299=DIRECTION('',(6.12323399573677E-17,1.,8.48811376265508E-17));
#300=FACE_OUTER_BOUND('',#301,.T.);
#301=EDGE_LOOP('',(#533));
#302=FACE_OUTER_BOUND('',#303,.T.);
#303=EDGE_LOOP('',(#534));
#304=CYLINDRICAL_SURFACE('',#305,1.7);
#305=AXIS2_PLACEMENT_3D('',#306,#307,#308);
#306=CARTESIAN_POINT('',(237.078399587825,-79.5197839216077,403.419999927143));
#307=DIRECTION('',(-5.89212380997922E-17,-8.48811376265507E-17,1.));
#308=DIRECTION('',(-1.,6.12323399573677E-17,-5.89212380997922E-17));
#309=FACE_BOUND('',#310,.T.);
#310=EDGE_LOOP('',(#535,#536,#537,#538));
#311=PLANE('',#312);
#312=AXIS2_PLACEMENT_3D('',#313,#314,#315);
#313=CARTESIAN_POINT('',(258.05083685526,-31.7768091231883,409.419999927143));
#314=DIRECTION('',(0.707107128233462,0.707106434139463,0.));
#315=DIRECTION('',(-0.707106434139463,0.707107128233462,0.));
#316=FACE_BOUND('',#317,.T.);
#317=EDGE_LOOP('',(#539,#540,#541,#542));
#318=CYLINDRICAL_SURFACE('',#319,260.);
#319=AXIS2_PLACEMENT_3D('',#320,#321,#322);
#320=CARTESIAN_POINT('',(-5.00858018194809E-10,-1.54952322977634E-10,409.419999927143));
#321=DIRECTION('',(-5.89212380997922E-17,-8.48811376265507E-17,1.));
#322=DIRECTION('',(0.924677911603143,-0.380750259084942,2.21646522524536E-17));
#323=FACE_BOUND('',#324,.T.);
#324=EDGE_LOOP('',(#543,#544,#545,#546));
#325=PLANE('',#326);
#326=AXIS2_PLACEMENT_3D('',#327,#328,#329);
#327=CARTESIAN_POINT('',(-98.9948313706257,240.416354189822,409.419999927143));
#328=DIRECTION('',(-0.707107128233462,-0.707106434139463,0.));
#329=DIRECTION('',(0.707106434139463,-0.707107128233462,0.));
#330=FACE_BOUND('',#331,.T.);
#331=EDGE_LOOP('',(#547,#548,#549,#550));
#332=CYLINDRICAL_SURFACE('',#333,260.);
#333=AXIS2_PLACEMENT_3D('',#334,#335,#336);
#334=CARTESIAN_POINT('',(-5.00858018194809E-10,-1.54952322977634E-10,409.419999927143));
#335=DIRECTION('',(-5.89212380997922E-17,-8.48811376265507E-17,1.));
#336=DIRECTION('',(-0.122217522388664,0.992503338644851,7.70436047456956E-17));
#337=FACE_OUTER_BOUND('',#338,.T.);
#338=EDGE_LOOP('',(#551));
#339=FACE_OUTER_BOUND('',#340,.T.);
#340=EDGE_LOOP('',(#552));
#341=CYLINDRICAL_SURFACE('',#342,10.);
#342=AXIS2_PLACEMENT_3D('',#343,#344,#345);
#343=CARTESIAN_POINT('',(197.000000236322,4.02634795573354E-10,409.419999927143));
#344=DIRECTION('',(-5.89212380997922E-17,-8.48811376265507E-17,1.));
#345=DIRECTION('',(6.12323399573677E-17,1.,8.48811376265507E-17));
#346=FACE_OUTER_BOUND('',#347,.T.);
#347=EDGE_LOOP('',(#553));
#348=FACE_OUTER_BOUND('',#349,.T.);
#349=EDGE_LOOP('',(#554));
#350=CYLINDRICAL_SURFACE('',#351,10.);
#351=AXIS2_PLACEMENT_3D('',#352,#353,#354);
#352=CARTESIAN_POINT('',(-4.02524087248665E-10,197.000000236322,409.419999927143));
#353=DIRECTION('',(-5.89212380997922E-17,-8.48811376265507E-17,1.));
#354=DIRECTION('',(6.12323399573677E-17,1.,8.48811376265507E-17));
#355=FACE_OUTER_BOUND('',#356,.T.);
#356=EDGE_LOOP('',(#555));
#357=FACE_OUTER_BOUND('',#358,.T.);
#358=EDGE_LOOP('',(#556));
#359=CYLINDRICAL_SURFACE('',#360,1.65);
#360=AXIS2_PLACEMENT_3D('',#361,#362,#363);
#361=CARTESIAN_POINT('',(7.23887637880557E-6,211.750000070447,403.419999927143));
#362=DIRECTION('',(-5.89212380997922E-17,-8.48811376265507E-17,1.));
#363=DIRECTION('',(-0.707107128233458,-0.707106434139467,-1.01683626017515E-16));
#364=FACE_OUTER_BOUND('',#365,.T.);
#365=EDGE_LOOP('',(#557));
#366=FACE_OUTER_BOUND('',#367,.T.);
#367=EDGE_LOOP('',(#558));
#368=CYLINDRICAL_SURFACE('',#369,1.65);
#369=AXIS2_PLACEMENT_3D('',#370,#371,#372);
#370=CARTESIAN_POINT('',(14.7499999995957,196.99999283117,403.419999927143));
#371=DIRECTION('',(-5.89212380997922E-17,-8.48811376265507E-17,1.));
#372=DIRECTION('',(-0.707106434139464,0.707107128233461,1.83564709004731E-17));
#373=FACE_OUTER_BOUND('',#374,.T.);
#374=EDGE_LOOP('',(#559));
#375=FACE_OUTER_BOUND('',#376,.T.);
#376=EDGE_LOOP('',(#560));
#377=CYLINDRICAL_SURFACE('',#378,1.65);
#378=AXIS2_PLACEMENT_3D('',#379,#380,#381);
#379=CARTESIAN_POINT('',(-14.7500000004008,197.000007309728,403.419999927143));
#380=DIRECTION('',(-5.89212380997922E-17,-8.48811376265507E-17,1.));
#381=DIRECTION('',(0.707106434139464,-0.707107128233461,-1.83564709004731E-17));
#382=FACE_OUTER_BOUND('',#383,.T.);
#383=EDGE_LOOP('',(#561));
#384=FACE_OUTER_BOUND('',#385,.T.);
#385=EDGE_LOOP('',(#562));
#386=CYLINDRICAL_SURFACE('',#387,1.65);
#387=AXIS2_PLACEMENT_3D('',#388,#389,#390);
#388=CARTESIAN_POINT('',(-7.23968150358582E-6,182.250000070451,403.419999927143));
#389=DIRECTION('',(-5.89212380997922E-17,-8.48811376265507E-17,1.));
#390=DIRECTION('',(0.707107128233458,0.707106434139466,1.01683626017515E-16));
#391=FACE_OUTER_BOUND('',#392,.T.);
#392=EDGE_LOOP('',(#563));
#393=FACE_OUTER_BOUND('',#394,.T.);
#394=EDGE_LOOP('',(#564));
#395=CYLINDRICAL_SURFACE('',#396,1.65);
#396=AXIS2_PLACEMENT_3D('',#397,#398,#399);
#397=CARTESIAN_POINT('',(211.750000070447,-7.23887636587998E-6,403.419999927143));
#398=DIRECTION('',(-5.89212380997922E-17,-8.48811376265507E-17,1.));
#399=DIRECTION('',(-0.707106434139467,0.707107128233458,1.83564709004727E-17));
#400=FACE_OUTER_BOUND('',#401,.T.);
#401=EDGE_LOOP('',(#565));
#402=FACE_OUTER_BOUND('',#403,.T.);
#403=EDGE_LOOP('',(#566));
#404=CYLINDRICAL_SURFACE('',#405,1.65);
#405=AXIS2_PLACEMENT_3D('',#406,#407,#408);
#406=CARTESIAN_POINT('',(197.000007309728,14.7500000004008,403.419999927143));
#407=DIRECTION('',(-5.89212380997922E-17,-8.48811376265507E-17,1.));
#408=DIRECTION('',(-0.707107128233461,-0.707106434139464,-1.01683626017515E-16));
#409=FACE_OUTER_BOUND('',#410,.T.);
#410=EDGE_LOOP('',(#567));
#411=FACE_OUTER_BOUND('',#412,.T.);
#412=EDGE_LOOP('',(#568));
#413=CYLINDRICAL_SURFACE('',#414,1.65);
#414=AXIS2_PLACEMENT_3D('',#415,#416,#417);
#415=CARTESIAN_POINT('',(182.250000070451,7.2396815165114E-6,403.419999927143));
#416=DIRECTION('',(-5.89212380997922E-17,-8.48811376265507E-17,1.));
#417=DIRECTION('',(0.707106434139466,-0.707107128233458,-1.83564709004727E-17));
#418=FACE_OUTER_BOUND('',#419,.T.);
#419=EDGE_LOOP('',(#569));
#420=FACE_OUTER_BOUND('',#421,.T.);
#421=EDGE_LOOP('',(#570));
#422=CYLINDRICAL_SURFACE('',#423,1.65);
#423=AXIS2_PLACEMENT_3D('',#424,#425,#426);
#424=CARTESIAN_POINT('',(196.99999283117,-14.7499999995957,403.419999927143));
#425=DIRECTION('',(-5.89212380997922E-17,-8.48811376265507E-17,1.));
#426=DIRECTION('',(0.707107128233461,0.707106434139464,1.01683626017515E-16));
#427=ORIENTED_EDGE('',*,*,#571,.F.);
#428=ORIENTED_EDGE('',*,*,#572,.F.);
#429=ORIENTED_EDGE('',*,*,#573,.F.);
#430=ORIENTED_EDGE('',*,*,#574,.F.);
#431=ORIENTED_EDGE('',*,*,#575,.T.);
#432=ORIENTED_EDGE('',*,*,#576,.T.);
#433=ORIENTED_EDGE('',*,*,#577,.T.);
#434=ORIENTED_EDGE('',*,*,#578,.T.);
#435=ORIENTED_EDGE('',*,*,#579,.T.);
#436=ORIENTED_EDGE('',*,*,#580,.T.);
#437=ORIENTED_EDGE('',*,*,#581,.T.);
#438=ORIENTED_EDGE('',*,*,#582,.T.);
#439=ORIENTED_EDGE('',*,*,#583,.T.);
#440=ORIENTED_EDGE('',*,*,#584,.T.);
#441=ORIENTED_EDGE('',*,*,#585,.T.);
#442=ORIENTED_EDGE('',*,*,#586,.T.);
#443=ORIENTED_EDGE('',*,*,#587,.T.);
#444=ORIENTED_EDGE('',*,*,#588,.T.);
#445=ORIENTED_EDGE('',*,*,#589,.T.);
#446=ORIENTED_EDGE('',*,*,#590,.T.);
#447=ORIENTED_EDGE('',*,*,#591,.T.);
#448=ORIENTED_EDGE('',*,*,#592,.T.);
#449=ORIENTED_EDGE('',*,*,#593,.T.);
#450=ORIENTED_EDGE('',*,*,#594,.T.);
#451=ORIENTED_EDGE('',*,*,#595,.T.);
#452=ORIENTED_EDGE('',*,*,#596,.T.);
#453=ORIENTED_EDGE('',*,*,#597,.T.);
#454=ORIENTED_EDGE('',*,*,#598,.T.);
#455=ORIENTED_EDGE('',*,*,#599,.T.);
#456=ORIENTED_EDGE('',*,*,#600,.T.);
#457=ORIENTED_EDGE('',*,*,#601,.T.);
#458=ORIENTED_EDGE('',*,*,#602,.T.);
#459=ORIENTED_EDGE('',*,*,#603,.T.);
#460=ORIENTED_EDGE('',*,*,#604,.T.);
#461=ORIENTED_EDGE('',*,*,#605,.T.);
#462=ORIENTED_EDGE('',*,*,#606,.T.);
#463=ORIENTED_EDGE('',*,*,#607,.T.);
#464=ORIENTED_EDGE('',*,*,#608,.T.);
#465=ORIENTED_EDGE('',*,*,#609,.T.);
#466=ORIENTED_EDGE('',*,*,#610,.T.);
#467=ORIENTED_EDGE('',*,*,#611,.T.);
#468=ORIENTED_EDGE('',*,*,#612,.T.);
#469=ORIENTED_EDGE('',*,*,#613,.T.);
#470=ORIENTED_EDGE('',*,*,#614,.T.);
#471=ORIENTED_EDGE('',*,*,#615,.T.);
#472=ORIENTED_EDGE('',*,*,#616,.T.);
#473=ORIENTED_EDGE('',*,*,#617,.T.);
#474=ORIENTED_EDGE('',*,*,#618,.T.);
#475=ORIENTED_EDGE('',*,*,#619,.T.);
#476=ORIENTED_EDGE('',*,*,#620,.T.);
#477=ORIENTED_EDGE('',*,*,#621,.T.);
#478=ORIENTED_EDGE('',*,*,#622,.T.);
#479=ORIENTED_EDGE('',*,*,#623,.T.);
#480=ORIENTED_EDGE('',*,*,#624,.T.);
#481=ORIENTED_EDGE('',*,*,#625,.T.);
#482=ORIENTED_EDGE('',*,*,#626,.T.);
#483=ORIENTED_EDGE('',*,*,#627,.T.);
#484=ORIENTED_EDGE('',*,*,#628,.T.);
#485=ORIENTED_EDGE('',*,*,#629,.T.);
#486=ORIENTED_EDGE('',*,*,#630,.T.);
#487=ORIENTED_EDGE('',*,*,#618,.F.);
#488=ORIENTED_EDGE('',*,*,#631,.F.);
#489=ORIENTED_EDGE('',*,*,#590,.F.);
#490=ORIENTED_EDGE('',*,*,#632,.T.);
#491=ORIENTED_EDGE('',*,*,#619,.F.);
#492=ORIENTED_EDGE('',*,*,#632,.F.);
#493=ORIENTED_EDGE('',*,*,#589,.F.);
#494=ORIENTED_EDGE('',*,*,#633,.T.);
#495=ORIENTED_EDGE('',*,*,#620,.F.);
#496=ORIENTED_EDGE('',*,*,#633,.F.);
#497=ORIENTED_EDGE('',*,*,#588,.F.);
#498=ORIENTED_EDGE('',*,*,#634,.T.);
#499=ORIENTED_EDGE('',*,*,#617,.F.);
#500=ORIENTED_EDGE('',*,*,#634,.F.);
#501=ORIENTED_EDGE('',*,*,#587,.F.);
#502=ORIENTED_EDGE('',*,*,#631,.T.);
#503=ORIENTED_EDGE('',*,*,#614,.F.);
#504=ORIENTED_EDGE('',*,*,#635,.F.);
#505=ORIENTED_EDGE('',*,*,#586,.F.);
#506=ORIENTED_EDGE('',*,*,#636,.T.);
#507=ORIENTED_EDGE('',*,*,#615,.F.);
#508=ORIENTED_EDGE('',*,*,#636,.F.);
#509=ORIENTED_EDGE('',*,*,#585,.F.);
#510=ORIENTED_EDGE('',*,*,#637,.T.);
#511=ORIENTED_EDGE('',*,*,#616,.F.);
#512=ORIENTED_EDGE('',*,*,#637,.F.);
#513=ORIENTED_EDGE('',*,*,#584,.F.);
#514=ORIENTED_EDGE('',*,*,#638,.T.);
#515=ORIENTED_EDGE('',*,*,#613,.F.);
#516=ORIENTED_EDGE('',*,*,#638,.F.);
#517=ORIENTED_EDGE('',*,*,#583,.F.);
#518=ORIENTED_EDGE('',*,*,#635,.T.);
#519=ORIENTED_EDGE('',*,*,#612,.F.);
#520=ORIENTED_EDGE('',*,*,#582,.F.);
#521=ORIENTED_EDGE('',*,*,#611,.F.);
#522=ORIENTED_EDGE('',*,*,#581,.F.);
#523=ORIENTED_EDGE('',*,*,#610,.F.);
#524=ORIENTED_EDGE('',*,*,#580,.F.);
#525=ORIENTED_EDGE('',*,*,#609,.F.);
#526=ORIENTED_EDGE('',*,*,#579,.F.);
#527=ORIENTED_EDGE('',*,*,#608,.F.);
#528=ORIENTED_EDGE('',*,*,#578,.F.);
#529=ORIENTED_EDGE('',*,*,#607,.F.);
#530=ORIENTED_EDGE('',*,*,#577,.F.);
#531=ORIENTED_EDGE('',*,*,#606,.F.);
#532=ORIENTED_EDGE('',*,*,#576,.F.);
#533=ORIENTED_EDGE('',*,*,#605,.F.);
#534=ORIENTED_EDGE('',*,*,#575,.F.);
#535=ORIENTED_EDGE('',*,*,#571,.T.);
#536=ORIENTED_EDGE('',*,*,#639,.T.);
#537=ORIENTED_EDGE('',*,*,#604,.F.);
#538=ORIENTED_EDGE('',*,*,#640,.F.);
#539=ORIENTED_EDGE('',*,*,#572,.T.);
#540=ORIENTED_EDGE('',*,*,#640,.T.);
#541=ORIENTED_EDGE('',*,*,#603,.F.);
#542=ORIENTED_EDGE('',*,*,#641,.F.);
#543=ORIENTED_EDGE('',*,*,#573,.T.);
#544=ORIENTED_EDGE('',*,*,#641,.T.);
#545=ORIENTED_EDGE('',*,*,#602,.F.);
#546=ORIENTED_EDGE('',*,*,#642,.F.);
#547=ORIENTED_EDGE('',*,*,#574,.T.);
#548=ORIENTED_EDGE('',*,*,#642,.T.);
#549=ORIENTED_EDGE('',*,*,#601,.F.);
#550=ORIENTED_EDGE('',*,*,#639,.F.);
#551=ORIENTED_EDGE('',*,*,#621,.F.);
#552=ORIENTED_EDGE('',*,*,#591,.F.);
#553=ORIENTED_EDGE('',*,*,#622,.F.);
#554=ORIENTED_EDGE('',*,*,#592,.F.);
#555=ORIENTED_EDGE('',*,*,#623,.F.);
#556=ORIENTED_EDGE('',*,*,#593,.F.);
#557=ORIENTED_EDGE('',*,*,#624,.F.);
#558=ORIENTED_EDGE('',*,*,#594,.F.);
#559=ORIENTED_EDGE('',*,*,#625,.F.);
#560=ORIENTED_EDGE('',*,*,#595,.F.);
#561=ORIENTED_EDGE('',*,*,#626,.F.);
#562=ORIENTED_EDGE('',*,*,#596,.F.);
#563=ORIENTED_EDGE('',*,*,#627,.F.);
#564=ORIENTED_EDGE('',*,*,#597,.F.);
#565=ORIENTED_EDGE('',*,*,#628,.F.);
#566=ORIENTED_EDGE('',*,*,#598,.F.);
#567=ORIENTED_EDGE('',*,*,#629,.F.);
#568=ORIENTED_EDGE('',*,*,#599,.F.);
#569=ORIENTED_EDGE('',*,*,#630,.F.);
#570=ORIENTED_EDGE('',*,*,#600,.F.);
#571=EDGE_CURVE('',#643,#644,#645,.T.);
#572=EDGE_CURVE('',#646,#643,#647,.T.);
#573=EDGE_CURVE('',#648,#646,#649,.T.);
#574=EDGE_CURVE('',#644,#648,#650,.T.);
#575=EDGE_CURVE('',#651,#651,#652,.T.);
#576=EDGE_CURVE('',#653,#653,#654,.T.);
#577=EDGE_CURVE('',#655,#655,#656,.T.);
#578=EDGE_CURVE('',#657,#657,#658,.T.);
#579=EDGE_CURVE('',#659,#659,#660,.T.);
#580=EDGE_CURVE('',#661,#661,#662,.T.);
#581=EDGE_CURVE('',#663,#663,#664,.T.);
#582=EDGE_CURVE('',#665,#665,#666,.T.);
#583=EDGE_CURVE('',#667,#668,#669,.T.);
#584=EDGE_CURVE('',#668,#670,#671,.T.);
#585=EDGE_CURVE('',#670,#672,#673,.T.);
#586=EDGE_CURVE('',#672,#667,#674,.T.);
#587=EDGE_CURVE('',#675,#676,#677,.T.);
#588=EDGE_CURVE('',#676,#678,#679,.T.);
#589=EDGE_CURVE('',#678,#680,#681,.T.);
#590=EDGE_CURVE('',#680,#675,#682,.T.);
#591=EDGE_CURVE('',#683,#683,#684,.T.);
#592=EDGE_CURVE('',#685,#685,#686,.T.);
#593=EDGE_CURVE('',#687,#687,#688,.T.);
#594=EDGE_CURVE('',#689,#689,#690,.T.);
#595=EDGE_CURVE('',#691,#691,#692,.T.);
#596=EDGE_CURVE('',#693,#693,#694,.T.);
#597=EDGE_CURVE('',#695,#695,#696,.T.);
#598=EDGE_CURVE('',#697,#697,#698,.T.);
#599=EDGE_CURVE('',#699,#699,#700,.T.);
#600=EDGE_CURVE('',#701,#701,#702,.T.);
#601=EDGE_CURVE('',#703,#704,#705,.T.);
#602=EDGE_CURVE('',#704,#706,#707,.T.);
#603=EDGE_CURVE('',#706,#708,#709,.T.);
#604=EDGE_CURVE('',#708,#703,#710,.T.);
#605=EDGE_CURVE('',#711,#711,#712,.F.);
#606=EDGE_CURVE('',#713,#713,#714,.F.);
#607=EDGE_CURVE('',#715,#715,#716,.F.);
#608=EDGE_CURVE('',#717,#717,#718,.F.);
#609=EDGE_CURVE('',#719,#719,#720,.F.);
#610=EDGE_CURVE('',#721,#721,#722,.F.);
#611=EDGE_CURVE('',#723,#723,#724,.F.);
#612=EDGE_CURVE('',#725,#725,#726,.F.);
#613=EDGE_CURVE('',#727,#728,#729,.F.);
#614=EDGE_CURVE('',#728,#730,#731,.F.);
#615=EDGE_CURVE('',#730,#732,#733,.F.);
#616=EDGE_CURVE('',#732,#727,#734,.F.);
#617=EDGE_CURVE('',#735,#736,#737,.F.);
#618=EDGE_CURVE('',#736,#738,#739,.F.);
#619=EDGE_CURVE('',#738,#740,#741,.F.);
#620=EDGE_CURVE('',#740,#735,#742,.F.);
#621=EDGE_CURVE('',#743,#743,#744,.F.);
#622=EDGE_CURVE('',#745,#745,#746,.F.);
#623=EDGE_CURVE('',#747,#747,#748,.F.);
#624=EDGE_CURVE('',#749,#749,#750,.F.);
#625=EDGE_CURVE('',#751,#751,#752,.F.);
#626=EDGE_CURVE('',#753,#753,#754,.F.);
#627=EDGE_CURVE('',#755,#755,#756,.F.);
#628=EDGE_CURVE('',#757,#757,#758,.F.);
#629=EDGE_CURVE('',#759,#759,#760,.F.);
#630=EDGE_CURVE('',#761,#761,#762,.F.);
#631=EDGE_CURVE('',#675,#736,#763,.T.);
#632=EDGE_CURVE('',#680,#738,#764,.T.);
#633=EDGE_CURVE('',#678,#740,#765,.T.);
#634=EDGE_CURVE('',#676,#735,#766,.T.);
#635=EDGE_CURVE('',#667,#728,#767,.T.);
#636=EDGE_CURVE('',#672,#730,#768,.T.);
#637=EDGE_CURVE('',#670,#732,#769,.T.);
#638=EDGE_CURVE('',#668,#727,#770,.T.);
#639=EDGE_CURVE('',#644,#703,#771,.T.);
#640=EDGE_CURVE('',#643,#708,#772,.T.);
#641=EDGE_CURVE('',#646,#706,#773,.T.);
#642=EDGE_CURVE('',#648,#704,#774,.T.);
#643=VERTEX_POINT('',#775);
#644=VERTEX_POINT('',#776);
#645=LINE('',#777,#778);
#646=VERTEX_POINT('',#780);
#647=CIRCLE('',#781,260.);
#648=VERTEX_POINT('',#785);
#649=LINE('',#786,#787);
#650=CIRCLE('',#789,260.);
#651=VERTEX_POINT('',#793);
#652=CIRCLE('',#794,1.7);
#653=VERTEX_POINT('',#798);
#654=CIRCLE('',#799,1.7);
#655=VERTEX_POINT('',#803);
#656=CIRCLE('',#804,1.7);
#657=VERTEX_POINT('',#808);
#658=CIRCLE('',#809,1.7);
#659=VERTEX_POINT('',#813);
#660=CIRCLE('',#814,1.7);
#661=VERTEX_POINT('',#818);
#662=CIRCLE('',#819,1.7);
#663=VERTEX_POINT('',#823);
#664=CIRCLE('',#824,1.7);
#665=VERTEX_POINT('',#828);
#666=CIRCLE('',#829,1.7);
#667=VERTEX_POINT('',#833);
#668=VERTEX_POINT('',#834);
#669=LINE('',#835,#836);
#670=VERTEX_POINT('',#838);
#671=CIRCLE('',#839,9.99999999999999);
#672=VERTEX_POINT('',#843);
#673=LINE('',#844,#845);
#674=CIRCLE('',#847,9.99999999999999);
#675=VERTEX_POINT('',#851);
#676=VERTEX_POINT('',#852);
#677=LINE('',#853,#854);
#678=VERTEX_POINT('',#856);
#679=CIRCLE('',#857,10.);
#680=VERTEX_POINT('',#861);
#681=LINE('',#862,#863);
#682=CIRCLE('',#865,10.);
#683=VERTEX_POINT('',#869);
#684=CIRCLE('',#870,10.);
#685=VERTEX_POINT('',#874);
#686=CIRCLE('',#875,10.);
#687=VERTEX_POINT('',#879);
#688=CIRCLE('',#880,1.65);
#689=VERTEX_POINT('',#884);
#690=CIRCLE('',#885,1.65);
#691=VERTEX_POINT('',#889);
#692=CIRCLE('',#890,1.65);
#693=VERTEX_POINT('',#894);
#694=CIRCLE('',#895,1.65);
#695=VERTEX_POINT('',#899);
#696=CIRCLE('',#900,1.65);
#697=VERTEX_POINT('',#904);
#698=CIRCLE('',#905,1.65);
#699=VERTEX_POINT('',#909);
#700=CIRCLE('',#910,1.65);
#701=VERTEX_POINT('',#914);
#702=CIRCLE('',#915,1.65);
#703=VERTEX_POINT('',#919);
#704=VERTEX_POINT('',#920);
#705=CIRCLE('',#921,260.);
#706=VERTEX_POINT('',#925);
#707=LINE('',#926,#927);
#708=VERTEX_POINT('',#929);
#709=CIRCLE('',#930,260.);
#710=LINE('',#934,#935);
#711=VERTEX_POINT('',#937);
#712=CIRCLE('',#938,1.7);
#713=VERTEX_POINT('',#942);
#714=CIRCLE('',#943,1.7);
#715=VERTEX_POINT('',#947);
#716=CIRCLE('',#948,1.7);
#717=VERTEX_POINT('',#952);
#718=CIRCLE('',#953,1.7);
#719=VERTEX_POINT('',#957);
#720=CIRCLE('',#958,1.7);
#721=VERTEX_POINT('',#962);
#722=CIRCLE('',#963,1.7);
#723=VERTEX_POINT('',#967);
#724=CIRCLE('',#968,1.7);
#725=VERTEX_POINT('',#972);
#726=CIRCLE('',#973,1.7);
#727=VERTEX_POINT('',#977);
#728=VERTEX_POINT('',#978);
#729=LINE('',#979,#980);
#730=VERTEX_POINT('',#982);
#731=CIRCLE('',#983,9.99999999999999);
#732=VERTEX_POINT('',#987);
#733=LINE('',#988,#989);
#734=CIRCLE('',#991,9.99999999999999);
#735=VERTEX_POINT('',#995);
#736=VERTEX_POINT('',#996);
#737=LINE('',#997,#998);
#738=VERTEX_POINT('',#1000);
#739=CIRCLE('',#1001,10.);
#740=VERTEX_POINT('',#1005);
#741=LINE('',#1006,#1007);
#742=CIRCLE('',#1009,10.);
#743=VERTEX_POINT('',#1013);
#744=CIRCLE('',#1014,10.);
#745=VERTEX_POINT('',#1018);
#746=CIRCLE('',#1019,10.);
#747=VERTEX_POINT('',#1023);
#748=CIRCLE('',#1024,1.65);
#749=VERTEX_POINT('',#1028);
#750=CIRCLE('',#1029,1.65);
#751=VERTEX_POINT('',#1033);
#752=CIRCLE('',#1034,1.65);
#753=VERTEX_POINT('',#1038);
#754=CIRCLE('',#1039,1.65);
#755=VERTEX_POINT('',#1043);
#756=CIRCLE('',#1044,1.65);
#757=VERTEX_POINT('',#1048);
#758=CIRCLE('',#1049,1.65);
#759=VERTEX_POINT('',#1053);
#760=CIRCLE('',#1054,1.65);
#761=VERTEX_POINT('',#1058);
#762=CIRCLE('',#1059,1.65);
#763=LINE('',#1063,#1064);
#764=LINE('',#1066,#1067);
#765=LINE('',#1069,#1070);
#766=LINE('',#1072,#1073);
#767=LINE('',#1075,#1076);
#768=LINE('',#1078,#1079);
#769=LINE('',#1081,#1082);
#770=LINE('',#1084,#1085);
#771=LINE('',#1087,#1088);
#772=LINE('',#1090,#1091);
#773=LINE('',#1093,#1094);
#774=LINE('',#1096,#1097);
#775=CARTESIAN_POINT('',(258.05083685526,-31.7768091231884,409.419999927143));
#776=CARTESIAN_POINT('',(-31.7765558215534,258.050868047506,409.419999927143));
#777=CARTESIAN_POINT('',(258.05083685526,-31.7768091231883,409.419999927143));
#778=VECTOR('',#779,1.);
#779=DIRECTION('',(-0.707106434139463,0.707107128233462,0.));
#780=CARTESIAN_POINT('',(240.416257016316,-98.9950673622397,409.419999927143));
#781=AXIS2_PLACEMENT_3D('',#782,#783,#784);
#782=CARTESIAN_POINT('',(-5.00858018194809E-10,-1.54952322977634E-10,409.419999927143));
#783=DIRECTION('',(-5.89212380997922E-17,-8.48811376265507E-17,1.));
#784=DIRECTION('',(0.924677911603143,-0.380750259084942,2.21646522524536E-17));
#785=CARTESIAN_POINT('',(-98.9948313706256,240.416354189822,409.419999927143));
#786=CARTESIAN_POINT('',(-98.9948313706257,240.416354189822,409.419999927143));
#787=VECTOR('',#788,1.);
#788=DIRECTION('',(0.707106434139463,-0.707107128233462,0.));
#789=AXIS2_PLACEMENT_3D('',#790,#791,#792);
#790=CARTESIAN_POINT('',(-5.00858018194809E-10,-1.54952322977634E-10,409.419999927143));
#791=DIRECTION('',(-5.89212380997922E-17,-8.48811376265507E-17,1.));
#792=DIRECTION('',(-0.122217522388664,0.992503338644851,7.70436047456956E-17));
#793=CARTESIAN_POINT('',(235.378399587825,-79.5197839216077,409.419999927143));
#794=AXIS2_PLACEMENT_3D('',#795,#796,#797);
#795=CARTESIAN_POINT('',(237.078399587825,-79.5197839216077,409.419999927143));
#796=DIRECTION('',(-5.89212380997922E-17,-8.48811376265507E-17,1.));
#797=DIRECTION('',(-1.,6.12323399573677E-17,-5.89212380997922E-17));
#798=CARTESIAN_POINT('',(238.732317788913,-35.2531805437126,409.419999927143));
#799=AXIS2_PLACEMENT_3D('',#800,#801,#802);
#800=CARTESIAN_POINT('',(238.732317788913,-36.9531805437126,409.419999927143));
#801=DIRECTION('',(-5.89212380997922E-17,-8.48811376265507E-17,1.));
#802=DIRECTION('',(6.12323399573677E-17,1.,8.48811376265507E-17));
#803=CARTESIAN_POINT('',(95.1736369989411,67.1751217282529,409.419999927143));
#804=AXIS2_PLACEMENT_3D('',#805,#806,#807);
#805=CARTESIAN_POINT('',(96.8736369989412,67.1751217282529,409.419999927143));
#806=DIRECTION('',(-5.89212380997922E-17,-8.48811376265507E-17,1.));
#807=DIRECTION('',(-1.,6.12323399573677E-17,-5.89212380997922E-17));
#808=CARTESIAN_POINT('',(118.372636561168,86.9741018379679,409.419999927143));
#809=AXIS2_PLACEMENT_3D('',#810,#811,#812);
#810=CARTESIAN_POINT('',(116.672636561168,86.9741018379679,409.419999927143));
#811=DIRECTION('',(-5.89212380997922E-17,-8.48811376265507E-17,1.));
#812=DIRECTION('',(1.,-6.12323399573677E-17,5.89212380997922E-17));
#813=CARTESIAN_POINT('',(65.4751667337937,96.8736210827683,409.419999927143));
#814=AXIS2_PLACEMENT_3D('',#815,#816,#817);
#815=CARTESIAN_POINT('',(67.1751667337937,96.8736210827683,409.419999927143));
#816=DIRECTION('',(-5.89212380997922E-17,-8.48811376265507E-17,1.));
#817=DIRECTION('',(-1.,6.12323399573677E-17,-5.89212380997922E-17));
#818=CARTESIAN_POINT('',(88.674166296021,116.672601192483,409.419999927143));
#819=AXIS2_PLACEMENT_3D('',#820,#821,#822);
#820=CARTESIAN_POINT('',(86.974166296021,116.672601192483,409.419999927143));
#821=DIRECTION('',(-5.89212380997922E-17,-8.48811376265507E-17,1.));
#822=DIRECTION('',(1.,-6.12323399573677E-17,5.89212380997922E-17));
#823=CARTESIAN_POINT('',(-35.2529965889538,238.732402200181,409.419999927143));
#824=AXIS2_PLACEMENT_3D('',#825,#826,#827);
#825=CARTESIAN_POINT('',(-36.952996588953,238.732403865314,409.419999927143));
#826=DIRECTION('',(-5.89212380997922E-17,-8.48811376265507E-17,1.));
#827=DIRECTION('',(0.999999999999521,-9.79489965798141E-7,5.89211549595414E-17));
#828=CARTESIAN_POINT('',(-79.5196032519708,235.378527357775,409.419999927143));
#829=AXIS2_PLACEMENT_3D('',#830,#831,#832);
#830=CARTESIAN_POINT('',(-79.5196015868379,237.078527357774,409.419999927143));
#831=DIRECTION('',(-5.89212380997922E-17,-8.48811376265507E-17,1.));
#832=DIRECTION('',(-9.79489965798137E-7,-0.99999999999952,-8.48811953392715E-17));
#833=CARTESIAN_POINT('',(165.427669706807,45.7144661534904,409.419999927143));
#834=CARTESIAN_POINT('',(144.214466271167,66.9276695890434,409.419999927143));
#835=CARTESIAN_POINT('',(165.427669706807,45.7144661534904,409.419999927143));
#836=VECTOR('',#837,1.);
#837=DIRECTION('',(-0.707106781187993,0.707106781185102,0.));
#838=CARTESIAN_POINT('',(130.072330647465,52.7855339652836,409.419999927143));
#839=AXIS2_PLACEMENT_3D('',#840,#841,#842);
#840=CARTESIAN_POINT('',(137.143398459316,59.8566017771635,409.419999927143));
#841=DIRECTION('',(-5.89212380997922E-17,-8.48811376265508E-17,1.));
#842=DIRECTION('',(0.707106781185101,0.707106781187994,1.0168363502687E-16));
#843=CARTESIAN_POINT('',(151.285534083105,31.5723305297305,409.419999927143));
#844=CARTESIAN_POINT('',(130.072330647465,52.7855339652836,409.419999927143));
#845=VECTOR('',#846,1.);
#846=DIRECTION('',(0.707106781187993,-0.707106781185102,0.));
#847=AXIS2_PLACEMENT_3D('',#848,#849,#850);
#848=CARTESIAN_POINT('',(158.356601894956,38.6433983416104,409.419999927143));
#849=DIRECTION('',(-5.89212380997922E-17,-8.48811376265507E-17,1.));
#850=DIRECTION('',(-0.707106781185102,-0.707106781187993,-1.0168363502687E-16));
#851=CARTESIAN_POINT('',(31.5723305291122,151.285534083234,409.419999927143));
#852=CARTESIAN_POINT('',(52.7855339647519,130.072330647681,409.419999927143));
#853=CARTESIAN_POINT('',(31.5723305291122,151.285534083234,409.419999927143));
#854=VECTOR('',#855,1.);
#855=DIRECTION('',(0.707106781187991,-0.707106781185104,0.));
#856=CARTESIAN_POINT('',(66.927669588454,144.214466271441,409.419999927143));
#857=AXIS2_PLACEMENT_3D('',#858,#859,#860);
#858=CARTESIAN_POINT('',(59.856601776603,137.143398459561,409.419999927143));
#859=DIRECTION('',(-5.89212380997922E-17,-8.48811376265508E-17,1.));
#860=DIRECTION('',(-0.707106781185103,-0.707106781187992,-1.0168363502687E-16));
#861=CARTESIAN_POINT('',(45.7144661528143,165.427669706994,409.419999927143));
#862=CARTESIAN_POINT('',(66.927669588454,144.214466271441,409.419999927143));
#863=VECTOR('',#864,1.);
#864=DIRECTION('',(-0.707106781187991,0.707106781185104,0.));
#865=AXIS2_PLACEMENT_3D('',#866,#867,#868);
#866=CARTESIAN_POINT('',(38.6433983409632,158.356601895114,409.419999927143));
#867=DIRECTION('',(-5.89212380997922E-17,-8.48811376265508E-17,1.));
#868=DIRECTION('',(0.707106781185104,0.707106781187991,1.0168363502687E-16));
#869=CARTESIAN_POINT('',(197.000000236322,10.0000000004026,409.419999927143));
#870=AXIS2_PLACEMENT_3D('',#871,#872,#873);
#871=CARTESIAN_POINT('',(197.000000236322,4.02634795573354E-10,409.419999927143));
#872=DIRECTION('',(-5.89212380997922E-17,-8.48811376265507E-17,1.));
#873=DIRECTION('',(6.12323399573677E-17,1.,8.48811376265507E-17));
#874=CARTESIAN_POINT('',(-4.02522250278466E-10,207.000000236322,409.419999927143));
#875=AXIS2_PLACEMENT_3D('',#876,#877,#878);
#876=CARTESIAN_POINT('',(-4.02524087248665E-10,197.000000236322,409.419999927143));
#877=DIRECTION('',(-5.89212380997922E-17,-8.48811376265507E-17,1.));
#878=DIRECTION('',(6.12323399573677E-17,1.,8.48811376265507E-17));
#879=CARTESIAN_POINT('',(-1.16671952270883,210.583274454117,409.419999927143));
#880=AXIS2_PLACEMENT_3D('',#881,#882,#883);
#881=CARTESIAN_POINT('',(7.23887637845204E-6,211.750000070447,409.419999927143));
#882=DIRECTION('',(-5.89212380997922E-17,-8.48811376265507E-17,1.));
#883=DIRECTION('',(-0.707107128233458,-0.707106434139467,-1.01683626017515E-16));
#884=CARTESIAN_POINT('',(13.5832743832655,198.166719592755,409.419999927143));
#885=AXIS2_PLACEMENT_3D('',#886,#887,#888);
#886=CARTESIAN_POINT('',(14.7499999995957,196.99999283117,409.419999927143));
#887=DIRECTION('',(-5.89212380997922E-17,-8.48811376265507E-17,1.));
#888=DIRECTION('',(-0.707106434139464,0.707107128233461,1.83564709004731E-17));
#889=CARTESIAN_POINT('',(-13.5832743840707,195.833280548143,409.419999927143));
#890=AXIS2_PLACEMENT_3D('',#891,#892,#893);
#891=CARTESIAN_POINT('',(-14.7500000004008,197.000007309728,409.419999927143));
#892=DIRECTION('',(-5.89212380997922E-17,-8.48811376265507E-17,1.));
#893=DIRECTION('',(0.707106434139464,-0.707107128233461,-1.83564709004731E-17));
#894=CARTESIAN_POINT('',(1.1667195219037,183.416725686781,409.419999927143));
#895=AXIS2_PLACEMENT_3D('',#896,#897,#898);
#896=CARTESIAN_POINT('',(-7.23968150393935E-6,182.250000070451,409.419999927143));
#897=DIRECTION('',(-5.89212380997922E-17,-8.48811376265507E-17,1.));
#898=DIRECTION('',(0.707107128233458,0.707106434139466,1.01683626017515E-16));
#899=CARTESIAN_POINT('',(210.583274454117,1.16671952270884,409.419999927143));
#900=AXIS2_PLACEMENT_3D('',#901,#902,#903);
#901=CARTESIAN_POINT('',(211.750000070447,-7.23887636638927E-6,409.419999927143));
#902=DIRECTION('',(-5.89212380997922E-17,-8.48811376265507E-17,1.));
#903=DIRECTION('',(-0.707106434139467,0.707107128233458,1.83564709004727E-17));
#904=CARTESIAN_POINT('',(195.833280548143,13.5832743840707,409.419999927143));
#905=AXIS2_PLACEMENT_3D('',#906,#907,#908);
#906=CARTESIAN_POINT('',(197.000007309728,14.7500000004008,409.419999927143));
#907=DIRECTION('',(-5.89212380997922E-17,-8.48811376265507E-17,1.));
#908=DIRECTION('',(-0.707107128233461,-0.707106434139464,-1.01683626017515E-16));
#909=CARTESIAN_POINT('',(183.416725686781,-1.16671952190369,409.419999927143));
#910=AXIS2_PLACEMENT_3D('',#911,#912,#913);
#911=CARTESIAN_POINT('',(182.250000070451,7.23968151600212E-6,409.419999927143));
#912=DIRECTION('',(-5.89212380997922E-17,-8.48811376265507E-17,1.));
#913=DIRECTION('',(0.707106434139466,-0.707107128233458,-1.83564709004727E-17));
#914=CARTESIAN_POINT('',(198.166719592755,-13.5832743832655,409.419999927143));
#915=AXIS2_PLACEMENT_3D('',#916,#917,#918);
#916=CARTESIAN_POINT('',(196.99999283117,-14.7499999995957,409.419999927143));
#917=DIRECTION('',(-5.89212380997922E-17,-8.48811376265507E-17,1.));
#918=DIRECTION('',(0.707107128233461,0.707106434139464,1.01683626017515E-16));
#919=CARTESIAN_POINT('',(-31.7765558215534,258.050868047506,413.419999927143));
#920=CARTESIAN_POINT('',(-98.9948313706256,240.416354189822,413.419999927143));
#921=AXIS2_PLACEMENT_3D('',#922,#923,#924);
#922=CARTESIAN_POINT('',(-5.00858253879761E-10,-1.54952662502185E-10,413.419999927143));
#923=DIRECTION('',(-5.89212380997922E-17,-8.48811376265507E-17,1.));
#924=DIRECTION('',(-0.122217522388664,0.992503338644851,7.70436047456956E-17));
#925=CARTESIAN_POINT('',(240.416257016316,-98.9950673622397,413.419999927143));
#926=CARTESIAN_POINT('',(-98.9948313706257,240.416354189822,413.419999927143));
#927=VECTOR('',#928,1.);
#928=DIRECTION('',(0.707106434139463,-0.707107128233462,0.));
#929=CARTESIAN_POINT('',(258.05083685526,-31.7768091231884,413.419999927143));
#930=AXIS2_PLACEMENT_3D('',#931,#932,#933);
#931=CARTESIAN_POINT('',(-5.00858253879761E-10,-1.54952662502185E-10,413.419999927143));
#932=DIRECTION('',(-5.89212380997922E-17,-8.48811376265507E-17,1.));
#933=DIRECTION('',(0.924677911603143,-0.380750259084942,2.21646522524536E-17));
#934=CARTESIAN_POINT('',(258.05083685526,-31.7768091231883,413.419999927143));
#935=VECTOR('',#936,1.);
#936=DIRECTION('',(-0.707106434139463,0.707107128233462,0.));
#937=CARTESIAN_POINT('',(235.378399587825,-79.5197839216077,413.419999927143));
#938=AXIS2_PLACEMENT_3D('',#939,#940,#941);
#939=CARTESIAN_POINT('',(237.078399587825,-79.5197839216077,413.419999927143));
#940=DIRECTION('',(-5.89212380997922E-17,-8.48811376265507E-17,1.));
#941=DIRECTION('',(-1.,6.12323399573677E-17,-5.89212380997922E-17));
#942=CARTESIAN_POINT('',(238.732317788913,-35.2531805437126,413.419999927143));
#943=AXIS2_PLACEMENT_3D('',#944,#945,#946);
#944=CARTESIAN_POINT('',(238.732317788913,-36.9531805437126,413.419999927143));
#945=DIRECTION('',(-5.89212380997922E-17,-8.48811376265507E-17,1.));
#946=DIRECTION('',(6.12323399573677E-17,1.,8.48811376265507E-17));
#947=CARTESIAN_POINT('',(95.1736369989411,67.1751217282529,413.419999927143));
#948=AXIS2_PLACEMENT_3D('',#949,#950,#951);
#949=CARTESIAN_POINT('',(96.8736369989412,67.1751217282529,413.419999927143));
#950=DIRECTION('',(-5.89212380997922E-17,-8.48811376265507E-17,1.));
#951=DIRECTION('',(-1.,6.12323399573677E-17,-5.89212380997922E-17));
#952=CARTESIAN_POINT('',(118.372636561168,86.9741018379679,413.419999927143));
#953=AXIS2_PLACEMENT_3D('',#954,#955,#956);
#954=CARTESIAN_POINT('',(116.672636561168,86.9741018379679,413.419999927143));
#955=DIRECTION('',(-5.89212380997922E-17,-8.48811376265507E-17,1.));
#956=DIRECTION('',(1.,-6.12323399573677E-17,5.89212380997922E-17));
#957=CARTESIAN_POINT('',(65.4751667337937,96.8736210827683,413.419999927143));
#958=AXIS2_PLACEMENT_3D('',#959,#960,#961);
#959=CARTESIAN_POINT('',(67.1751667337937,96.8736210827683,413.419999927143));
#960=DIRECTION('',(-5.89212380997922E-17,-8.48811376265507E-17,1.));
#961=DIRECTION('',(-1.,6.12323399573677E-17,-5.89212380997922E-17));
#962=CARTESIAN_POINT('',(88.674166296021,116.672601192483,413.419999927143));
#963=AXIS2_PLACEMENT_3D('',#964,#965,#966);
#964=CARTESIAN_POINT('',(86.974166296021,116.672601192483,413.419999927143));
#965=DIRECTION('',(-5.89212380997922E-17,-8.48811376265507E-17,1.));
#966=DIRECTION('',(1.,-6.12323399573677E-17,5.89212380997922E-17));
#967=CARTESIAN_POINT('',(-35.2529965889538,238.732402200181,413.419999927143));
#968=AXIS2_PLACEMENT_3D('',#969,#970,#971);
#969=CARTESIAN_POINT('',(-36.952996588953,238.732403865314,413.419999927143));
#970=DIRECTION('',(-5.89212380997922E-17,-8.48811376265507E-17,1.));
#971=DIRECTION('',(0.999999999999521,-9.79489965798141E-7,5.89211549595414E-17));
#972=CARTESIAN_POINT('',(-79.5196032519708,235.378527357775,413.419999927143));
#973=AXIS2_PLACEMENT_3D('',#974,#975,#976);
#974=CARTESIAN_POINT('',(-79.5196015868379,237.078527357774,413.419999927143));
#975=DIRECTION('',(-5.89212380997922E-17,-8.48811376265507E-17,1.));
#976=DIRECTION('',(-9.79489965798137E-7,-0.99999999999952,-8.48811953392715E-17));
#977=CARTESIAN_POINT('',(144.214466271167,66.9276695890434,413.419999927143));
#978=CARTESIAN_POINT('',(165.427669706807,45.7144661534904,413.419999927143));
#979=CARTESIAN_POINT('',(165.427669706807,45.7144661534904,413.419999927143));
#980=VECTOR('',#981,1.);
#981=DIRECTION('',(-0.707106781187993,0.707106781185102,0.));
#982=CARTESIAN_POINT('',(151.285534083105,31.5723305297305,413.419999927143));
#983=AXIS2_PLACEMENT_3D('',#984,#985,#986);
#984=CARTESIAN_POINT('',(158.356601894956,38.6433983416104,413.419999927143));
#985=DIRECTION('',(-5.89212380997922E-17,-8.48811376265507E-17,1.));
#986=DIRECTION('',(-0.707106781185102,-0.707106781187993,-1.0168363502687E-16));
#987=CARTESIAN_POINT('',(130.072330647465,52.7855339652836,413.419999927143));
#988=CARTESIAN_POINT('',(130.072330647465,52.7855339652836,413.419999927143));
#989=VECTOR('',#990,1.);
#990=DIRECTION('',(0.707106781187993,-0.707106781185102,0.));
#991=AXIS2_PLACEMENT_3D('',#992,#993,#994);
#992=CARTESIAN_POINT('',(137.143398459316,59.8566017771635,413.419999927143));
#993=DIRECTION('',(-5.89212380997922E-17,-8.48811376265508E-17,1.));
#994=DIRECTION('',(0.707106781185101,0.707106781187994,1.0168363502687E-16));
#995=CARTESIAN_POINT('',(52.7855339647519,130.072330647681,413.419999927143));
#996=CARTESIAN_POINT('',(31.5723305291122,151.285534083234,413.419999927143));
#997=CARTESIAN_POINT('',(31.5723305291122,151.285534083234,413.419999927143));
#998=VECTOR('',#999,1.);
#999=DIRECTION('',(0.707106781187991,-0.707106781185104,0.));
#1000=CARTESIAN_POINT('',(45.7144661528143,165.427669706994,413.419999927143));
#1001=AXIS2_PLACEMENT_3D('',#1002,#1003,#1004);
#1002=CARTESIAN_POINT('',(38.6433983409632,158.356601895114,413.419999927143));
#1003=DIRECTION('',(-5.89212380997922E-17,-8.48811376265508E-17,1.));
#1004=DIRECTION('',(0.707106781185104,0.707106781187991,1.0168363502687E-16));
#1005=CARTESIAN_POINT('',(66.927669588454,144.214466271441,413.419999927143));
#1006=CARTESIAN_POINT('',(66.927669588454,144.214466271441,413.419999927143));
#1007=VECTOR('',#1008,1.);
#1008=DIRECTION('',(-0.707106781187991,0.707106781185104,0.));
#1009=AXIS2_PLACEMENT_3D('',#1010,#1011,#1012);
#1010=CARTESIAN_POINT('',(59.856601776603,137.143398459561,413.419999927143));
#1011=DIRECTION('',(-5.89212380997922E-17,-8.48811376265508E-17,1.));
#1012=DIRECTION('',(-0.707106781185103,-0.707106781187992,-1.0168363502687E-16));
#1013=CARTESIAN_POINT('',(197.000000236322,10.0000000004026,413.419999927143));
#1014=AXIS2_PLACEMENT_3D('',#1015,#1016,#1017);
#1015=CARTESIAN_POINT('',(197.000000236322,4.02634456048804E-10,413.419999927143));
#1016=DIRECTION('',(-5.89212380997922E-17,-8.48811376265507E-17,1.));
#1017=DIRECTION('',(6.12323399573677E-17,1.,8.48811376265507E-17));
#1018=CARTESIAN_POINT('',(-4.02522485963419E-10,207.000000236322,413.419999927143));
#1019=AXIS2_PLACEMENT_3D('',#1020,#1021,#1022);
#1020=CARTESIAN_POINT('',(-4.02524322933617E-10,197.000000236322,413.419999927143));
#1021=DIRECTION('',(-5.89212380997922E-17,-8.48811376265507E-17,1.));
#1022=DIRECTION('',(6.12323399573677E-17,1.,8.48811376265507E-17));
#1023=CARTESIAN_POINT('',(-1.16671952270883,210.583274454117,413.419999927143));
#1024=AXIS2_PLACEMENT_3D('',#1025,#1026,#1027);
#1025=CARTESIAN_POINT('',(7.23887637821635E-6,211.750000070447,413.419999927143));
#1026=DIRECTION('',(-5.89212380997922E-17,-8.48811376265507E-17,1.));
#1027=DIRECTION('',(-0.707107128233458,-0.707106434139467,-1.01683626017515E-16));
#1028=CARTESIAN_POINT('',(13.5832743832656,198.166719592755,413.419999927143));
#1029=AXIS2_PLACEMENT_3D('',#1030,#1031,#1032);
#1030=CARTESIAN_POINT('',(14.7499999995957,196.99999283117,413.419999927143));
#1031=DIRECTION('',(-5.89212380997922E-17,-8.48811376265507E-17,1.));
#1032=DIRECTION('',(-0.707106434139464,0.707107128233461,1.83564709004731E-17));
#1033=CARTESIAN_POINT('',(-13.5832743840707,195.833280548143,413.419999927143));
#1034=AXIS2_PLACEMENT_3D('',#1035,#1036,#1037);
#1035=CARTESIAN_POINT('',(-14.7500000004008,197.000007309728,413.419999927143));
#1036=DIRECTION('',(-5.89212380997922E-17,-8.48811376265507E-17,1.));
#1037=DIRECTION('',(0.707106434139464,-0.707107128233461,-1.83564709004731E-17));
#1038=CARTESIAN_POINT('',(1.16671952190371,183.416725686781,413.419999927143));
#1039=AXIS2_PLACEMENT_3D('',#1040,#1041,#1042);
#1040=CARTESIAN_POINT('',(-7.23968150417503E-6,182.250000070451,413.419999927143));
#1041=DIRECTION('',(-5.89212380997922E-17,-8.48811376265507E-17,1.));
#1042=DIRECTION('',(0.707107128233458,0.707106434139466,1.01683626017515E-16));
#1043=CARTESIAN_POINT('',(210.583274454117,1.16671952270885,413.419999927143));
#1044=AXIS2_PLACEMENT_3D('',#1045,#1046,#1047);
#1045=CARTESIAN_POINT('',(211.750000070447,-7.23887636672879E-6,413.419999927143));
#1046=DIRECTION('',(-5.89212380997922E-17,-8.48811376265507E-17,1.));
#1047=DIRECTION('',(-0.707106434139467,0.707107128233458,1.83564709004727E-17));
#1048=CARTESIAN_POINT('',(195.833280548143,13.5832743840707,413.419999927143));
#1049=AXIS2_PLACEMENT_3D('',#1050,#1051,#1052);
#1050=CARTESIAN_POINT('',(197.000007309728,14.7500000004008,413.419999927143));
#1051=DIRECTION('',(-5.89212380997922E-17,-8.48811376265507E-17,1.));
#1052=DIRECTION('',(-0.707107128233461,-0.707106434139464,-1.01683626017515E-16));
#1053=CARTESIAN_POINT('',(183.416725686781,-1.1667195219037,413.419999927143));
#1054=AXIS2_PLACEMENT_3D('',#1055,#1056,#1057);
#1055=CARTESIAN_POINT('',(182.250000070451,7.23968151566259E-6,413.419999927143));
#1056=DIRECTION('',(-5.89212380997922E-17,-8.48811376265507E-17,1.));
#1057=DIRECTION('',(0.707106434139466,-0.707107128233458,-1.83564709004727E-17));
#1058=CARTESIAN_POINT('',(198.166719592755,-13.5832743832655,413.419999927143));
#1059=AXIS2_PLACEMENT_3D('',#1060,#1061,#1062);
#1060=CARTESIAN_POINT('',(196.99999283117,-14.7499999995957,413.419999927143));
#1061=DIRECTION('',(-5.89212380997922E-17,-8.48811376265507E-17,1.));
#1062=DIRECTION('',(0.707107128233461,0.707106434139464,1.01683626017515E-16));
#1063=CARTESIAN_POINT('',(31.5723305291122,151.285534083234,409.419999927143));
#1064=VECTOR('',#1065,1.);
#1065=DIRECTION('',(0.,0.,1.));
#1066=CARTESIAN_POINT('',(45.7144661528143,165.427669706994,409.419999927143));
#1067=VECTOR('',#1068,1.);
#1068=DIRECTION('',(0.,0.,1.));
#1069=CARTESIAN_POINT('',(66.927669588454,144.214466271441,409.419999927143));
#1070=VECTOR('',#1071,1.);
#1071=DIRECTION('',(0.,0.,1.));
#1072=CARTESIAN_POINT('',(52.7855339647519,130.072330647681,409.419999927143));
#1073=VECTOR('',#1074,1.);
#1074=DIRECTION('',(0.,0.,1.));
#1075=CARTESIAN_POINT('',(165.427669706807,45.7144661534904,409.419999927143));
#1076=VECTOR('',#1077,1.);
#1077=DIRECTION('',(0.,0.,1.));
#1078=CARTESIAN_POINT('',(151.285534083105,31.5723305297305,409.419999927143));
#1079=VECTOR('',#1080,1.);
#1080=DIRECTION('',(0.,0.,1.));
#1081=CARTESIAN_POINT('',(130.072330647465,52.7855339652836,409.419999927143));
#1082=VECTOR('',#1083,1.);
#1083=DIRECTION('',(0.,0.,1.));
#1084=CARTESIAN_POINT('',(144.214466271167,66.9276695890434,409.419999927143));
#1085=VECTOR('',#1086,1.);
#1086=DIRECTION('',(0.,0.,1.));
#1087=CARTESIAN_POINT('',(-31.7765558215534,258.050868047506,409.419999927143));
#1088=VECTOR('',#1089,1.);
#1089=DIRECTION('',(0.,0.,1.));
#1090=CARTESIAN_POINT('',(258.05083685526,-31.7768091231884,409.419999927143));
#1091=VECTOR('',#1092,1.);
#1092=DIRECTION('',(0.,0.,1.));
#1093=CARTESIAN_POINT('',(240.416257016316,-98.9950673622396,409.419999927143));
#1094=VECTOR('',#1095,1.);
#1095=DIRECTION('',(0.,0.,1.));
#1096=CARTESIAN_POINT('',(-98.9948313706256,240.416354189822,409.419999927143));
#1097=VECTOR('',#1098,1.);
#1098=DIRECTION('',(0.,0.,1.));
ENDSEC;
END-ISO-10303-21;
